<?xml version="1.0" encoding="UTF-8"?>
<svg xmlns="http://www.w3.org/2000/svg" viewBox="0 0 587.19 180.22">
  <defs>
    <style>.d{fill: currentColor;}</style>
  </defs>
  <g id="a" />
  <g id="b">
    <g id="c">
      <g>
        <path class="d" d="M567.69,2.75h-53.16c-9.18,0-13.78,0-16.62,2.88-2.88,2.84-2.88,7.45-2.88,16.62V121.95c0,9.18,0,13.78,2.88,16.62,2.84,2.88,7.45,2.88,16.62,2.88h53.16c9.22,0,13.83,0,16.66-2.88,2.84-2.84,2.84-7.45,2.84-16.62V22.26c0-9.17,0-13.78-2.84-16.62-2.84-2.88-7.45-2.88-16.66-2.88Zm-26.58,83.73c-8.07,0-14.36-6.3-14.36-14.36s6.29-14.4,14.36-14.4,14.4,6.3,14.4,14.4-6.33,14.36-14.4,14.36Z" />
        <path class="d" d="M497.87,5.59c-2.84,2.84-2.84,7.45-2.84,16.62V121.9c0,9.18,0,13.78,2.84,16.62,2.84,2.88,7.45,2.88,16.66,2.88h53.16c9.18,0,13.78,0,16.62-2.88,2.88-2.84,2.88-7.45,2.88-16.62V22.21c0-9.17,0-13.78-2.88-16.62-2.84-2.88-7.45-2.88-16.62-2.88h-53.16c-9.22,0-13.83,0-16.66,2.88Zm28.84,66.49c0-8.11,6.33-14.4,14.4-14.4,8.07,0,14.36,6.3,14.36,14.4,0,8.06-6.29,14.36-14.36,14.36-8.07,0-14.4-6.3-14.4-14.36Z" />
        <g>
          <g>
            <path class="d" d="M121.23,129.95c-3.36,8.41-12.11,13.66-20.68,13.66-6.73,0-10.76-2.9-13.28-6.26,.17,31.27-20.01,42.87-44.05,42.87-26.73,0-43.21-14.12-43.21-47.75,0-9.75,1.35-20.34,3.87-30.1l23.03-4.2c-3.19,10.76-4.71,22.03-4.71,32.28,0,25.73,11.1,32.45,22.87,32.45,12.44,0,21.19-7.73,21.19-31.78v-58.51h22.19v31.11c0,15.8,3.53,21.69,12.27,21.69,9.42,0,13.11-6.56,13.11-21.52v-38h21.18v42.2c0,13.28,4.54,15.97,20.01,15.97h4.54c.67-6.73,1.01-15.13,1.01-20.18,0-16.81-2.02-32.28-4.88-45.06l21.69-3.03c3.36,13.45,5.38,29.93,5.38,46.57,0,6.73-.17,14.29-.67,21.69h16.98v17.49h-46.41c-19.84,0-27.57-3.53-31.44-11.6Z" />
            <path class="d" d="M272.72,129.95c-3.36,7.23-12.27,14-25.39,14-10.93,0-19.84-6.1-22.53-14.17-3.36,7.73-10.09,11.77-22.36,11.77h-5.88c-3.36,0-10.09-3.36-10.09-8.74s6.73-8.74,10.09-8.74h6.05c10.93,0,15.13-4.37,15.13-20.85v-30.6h22.19v31.11c0,15.13,1.68,21.69,11.6,21.69,8.74,0,13.62-5.21,13.62-21.52v-38h21.35v42.2c0,13.28,4.54,15.97,20.01,15.97h4.54c.67-6.73,1.01-14.96,1.01-20.18,0-16.81-2.02-32.28-4.88-45.06l21.69-3.03c3.19,13.45,5.38,29.93,5.38,46.57,0,6.73-.17,14.29-.67,21.69h16.98v17.49h-46.41c-17.65,0-26.57-2.35-31.44-11.6Z" />
            <path class="d" d="M348.05,141.55c-3.36,0-10.09-3.36-10.09-8.74s6.73-8.74,10.09-8.74h47.25c-.84-26.06-14.29-40.03-41.03-46.25v-16.31l66.58-41.7v22.03l-41.02,24.72c22.53,10.09,37.33,27.25,37.33,63.74v11.27h-69.1Z" />
            <path class="d" d="M442.2,44.22h22.19v97.33h-22.19V44.22Z" />
          </g>
          <path class="d" d="M430.43,23.71c3.7,0,7.73,.5,10.09,1.01-2.52-1.35-4.2-4.37-4.2-7.4,0-8.24,7.06-17.32,24.72-17.32,4.54,0,8.74,.84,9.92,1.01l-2.19,11.77c-.84-.17-4.71-1.01-9.08-1.01-5.72,0-8.24,2.52-8.24,5.72,0,3.87,2.69,6.22,12.11,6.22h10.26v12.11h-43.38v-12.11Z" />
        </g>
      </g>
    </g>
  </g>
</svg>
