<svg viewBox="0 0 84 41" fill="currentColor" xmlns="http://www.w3.org/2000/svg">
  <path d="M40.9147 23.6082C40.8947 23.9682 40.5647 24.2782 40.2147 24.2782H38.1047C37.7547 24.2782 37.4647 23.9682 37.4947 23.6082L37.9647 16.6682C37.9847 16.3082 38.3147 15.9982 38.6647 15.9982H41.4347L40.9147 23.6082ZM38.9547 11.6582C36.2347 11.6582 33.8647 13.9082 33.6747 16.6682L33.2047 23.6082C33.0147 26.3582 35.0847 28.6182 37.8047 28.6182H39.9147C42.6347 28.6182 45.0047 26.3682 45.1947 23.6082L46.0047 11.6582H38.9547Z" />
  <path d="M72.6051 23.8184C72.5851 24.1784 72.2551 24.4884 71.9051 24.4884H69.7951C69.4451 24.4884 69.1551 24.1784 69.1851 23.8184L69.7051 15.9984H72.4751C72.8251 15.9984 73.1151 16.3084 73.0851 16.6684L72.6151 23.8184H72.6051ZM72.7551 11.6584H65.7051L64.8951 23.6084C64.8651 24.0784 64.8951 24.5284 64.9951 24.9584C64.8951 24.9584 64.8051 24.9684 64.7051 24.9684C62.4851 24.9684 61.4051 23.4184 61.6051 20.4984L61.9451 15.4384H61.9251L62.0451 13.6584C62.1151 12.5584 61.2951 11.6584 60.2051 11.6584H57.8351C57.8351 11.6584 57.7751 12.5584 57.6951 13.6584L57.3751 18.4484C57.3751 18.5384 57.3651 18.6284 57.3551 18.7184L57.3251 19.1784C57.3151 19.3684 57.2951 19.5484 57.2851 19.7084L57.2651 19.9384C57.2651 20.0684 57.2451 20.1784 57.2451 20.2584V20.3284C57.2451 20.3284 57.2451 20.3484 57.2451 20.3684V20.4184V20.4484L57.1651 21.6784C57.0951 22.7484 57.1551 23.7184 57.3351 24.5684C56.8451 24.8384 56.2751 24.9684 55.6351 24.9684C53.7151 24.9684 51.2451 24.3484 51.2451 21.0084L51.7451 13.6584C51.8151 12.5584 50.9951 11.6584 49.9051 11.6584H47.5351C47.5351 11.6584 47.4751 12.5584 47.3951 13.6584L46.2651 30.9184C46.1951 32.0184 46.0051 34.6884 46.0051 34.6884H48.3751C49.4651 34.6884 50.4151 33.7884 50.4851 32.6884L50.7351 28.4584C51.3851 28.8284 53.1051 29.0184 54.1051 29.0184C55.6851 29.0184 57.2351 28.3684 58.4351 27.0584C59.4351 28.3284 60.9951 29.0184 63.0651 29.0184C64.4151 29.0184 65.7451 28.6184 66.8851 27.8084C67.2051 28.1684 67.8251 28.5484 68.3651 28.6784C68.7251 28.7684 69.1051 28.8184 69.4951 28.8184H71.6051C74.3251 28.8184 76.6951 26.5684 76.8851 23.8084L77.3551 16.6584C77.5451 13.9084 75.4751 11.6484 72.7551 11.6484" />
  <path d="M37.7448 10.3378H38.5048C39.4848 10.3378 40.3548 9.51781 40.4148 8.52781L40.6048 5.75781H38.0549C37.0749 5.75781 36.2148 6.57781 36.1448 7.56781L36.0849 8.51781C36.0149 9.51781 36.7648 10.3278 37.7548 10.3278" />
  <path d="M42.6247 10.3378H43.3847C44.3647 10.3378 45.2347 9.51781 45.2947 8.52781L45.4848 5.75781H42.9347C41.9547 5.75781 41.0848 6.57781 41.0248 7.56781L40.9647 8.51781C40.8947 9.51781 41.6447 10.3278 42.6347 10.3278" />
  <path d="M49.3246 10.3078H50.2747C51.2947 10.3278 52.0946 9.64781 52.1046 8.66781L52.1646 7.90781C52.2346 6.87781 51.7047 5.79781 50.7047 5.78781L47.7246 5.75781L47.5247 8.30781C47.5247 9.28781 48.3246 10.2278 49.3146 10.3078" />
  <path d="M51.5552 31.9899L51.4852 32.9399C51.4152 33.9399 52.1652 34.7499 53.1552 34.7499H53.9152C54.8952 34.7499 55.7652 33.9299 55.8252 32.9399L56.0152 30.1699H53.4652C52.4852 30.1699 51.6152 30.9899 51.5552 31.9799" />
  <path d="M56.7447 31.9899L56.6747 32.9399C56.6047 33.9399 57.3547 34.7499 58.3447 34.7499H59.1047C60.0847 34.7499 60.9547 33.9299 61.0147 32.9399L61.2047 30.1699H58.6547C57.6747 30.1699 56.8147 30.9899 56.7447 31.9799" />
  <path d="M54.515 10.2C54.875 10.2 55.225 10.2 55.585 10.2C55.705 10.2 55.745 10.17 55.755 10.04C55.795 9.49004 55.835 8.94004 55.875 8.40004C55.905 7.92004 55.945 7.44004 55.975 6.96004C55.975 6.92004 55.975 6.88004 56.035 6.89004C56.235 6.89004 56.435 6.89004 56.635 6.89004C56.855 6.90004 56.955 7.00004 56.965 7.22004C56.975 7.39004 56.965 7.57004 56.965 7.74004C56.915 8.51004 56.855 9.29004 56.795 10.06C56.795 10.17 56.815 10.2 56.935 10.2C57.295 10.2 57.655 10.2 58.015 10.2C58.115 10.2 58.165 10.16 58.165 10.07C58.175 9.89004 58.195 9.72004 58.205 9.54004C58.245 9.04004 58.275 8.54004 58.315 8.03004C58.345 7.68004 58.385 7.34004 58.315 6.99004C58.305 6.93004 58.335 6.91004 58.385 6.91004C58.585 6.91004 58.795 6.89004 58.995 6.89004C59.235 6.89004 59.355 7.00004 59.365 7.24004C59.375 7.43004 59.375 7.62004 59.365 7.80004C59.315 8.55004 59.265 9.31004 59.205 10.06C59.205 10.17 59.225 10.2 59.335 10.2C59.515 10.2 59.695 10.2 59.875 10.2C60.055 10.2 60.245 10.2 60.425 10.2C60.535 10.2 60.565 10.17 60.575 10.07C60.595 9.90004 60.605 9.72004 60.615 9.55004C60.665 8.89004 60.715 8.23004 60.765 7.56004C60.785 7.24004 60.815 6.93004 60.765 6.61004C60.695 6.21004 60.475 5.92004 60.065 5.81004C59.855 5.75004 59.635 5.72004 59.415 5.71004C58.885 5.69004 58.385 5.77004 57.895 5.94004C57.855 5.95004 57.805 5.96004 57.775 5.94004C57.535 5.83004 57.275 5.78004 57.015 5.75004C56.555 5.69004 56.095 5.70004 55.645 5.74004C55.365 5.76004 55.085 5.81004 54.815 5.85004C54.685 5.87004 54.655 5.90004 54.645 6.02004C54.605 6.56004 54.565 7.10004 54.535 7.64004C54.475 8.45004 54.425 9.26004 54.365 10.07C54.365 10.19 54.385 10.22 54.505 10.22" />
  <path d="M66.9751 7.22912C67.0551 7.00912 67.2251 6.89912 67.4551 6.88912C67.5851 6.87912 67.7251 6.88912 67.8651 6.89912C68.0651 6.92912 68.1751 7.03912 68.2151 7.23912C68.2751 7.53912 68.2651 7.55912 67.9651 7.55912H66.8951C66.9251 7.42912 66.9351 7.31912 66.9751 7.21912M65.9551 9.93912C66.1751 10.0891 66.4251 10.1691 66.6851 10.1791C67.0551 10.1991 67.4351 10.2291 67.8051 10.2091C68.2051 10.1891 68.5951 10.1391 68.9951 10.0991C69.0851 10.0991 69.1151 10.0391 69.1251 9.95912C69.1451 9.70912 69.1651 9.45912 69.1751 9.20912C69.1751 9.07912 69.1551 9.04912 69.0151 9.04912C68.7351 9.04912 68.4551 9.04912 68.1851 9.04912C67.9051 9.04912 67.6251 9.04912 67.3551 9.04912C66.9751 9.02912 66.8451 8.86912 66.8651 8.49912C66.8651 8.42912 66.8951 8.39912 66.9651 8.40912C67.3551 8.40912 67.7551 8.40912 68.1451 8.40912C68.5351 8.40912 68.9051 8.40912 69.2751 8.40912C69.3251 8.40912 69.3651 8.40912 69.4151 8.40912C69.5051 8.40912 69.5451 8.34912 69.5551 8.25912C69.5951 7.78912 69.6351 7.31912 69.5751 6.83912C69.5351 6.54912 69.4551 6.27912 69.2251 6.05912C69.0351 5.88912 68.8051 5.80912 68.5751 5.76912C68.0351 5.66912 67.5051 5.67912 66.9751 5.74912C66.7351 5.77912 66.5151 5.83912 66.3051 5.95912C65.9551 6.15912 65.7751 6.47912 65.6651 6.85912C65.5651 7.21912 65.5251 7.58912 65.4951 7.96912C65.4651 8.37912 65.4451 8.79912 65.5251 9.21912C65.5851 9.50912 65.6951 9.77912 65.9651 9.95912" />
  <path d="M63.125 6.88912C63.255 6.87912 63.395 6.88912 63.535 6.90912C63.715 6.93912 63.8351 7.04912 63.8651 7.22912C63.8851 7.33912 63.8851 7.44912 63.8951 7.56912H62.5851C62.5851 7.17912 62.755 6.91912 63.125 6.88912ZM61.6451 9.97912C61.8151 10.0891 62.0151 10.1491 62.2051 10.1791C62.6351 10.2491 63.065 10.2591 63.495 10.2291C63.885 10.1991 64.2651 10.1491 64.6451 10.1091C64.7251 10.1091 64.7651 10.0491 64.7751 9.96912C64.7951 9.70912 64.8151 9.45912 64.8251 9.19912C64.8251 9.07912 64.7951 9.04912 64.6751 9.04912C64.2251 9.04912 63.765 9.04912 63.315 9.04912C63.205 9.04912 63.105 9.04912 62.995 9.04912C62.625 9.01912 62.505 8.88912 62.505 8.51912C62.505 8.43912 62.5251 8.39912 62.6151 8.39912C63.0051 8.39912 63.3951 8.39912 63.7751 8.39912C64.1551 8.39912 64.535 8.39912 64.905 8.39912C64.945 8.39912 64.995 8.39912 65.035 8.39912C65.135 8.39912 65.185 8.32912 65.195 8.23912C65.205 8.12912 65.215 8.01912 65.225 7.90912C65.225 7.55912 65.235 7.20912 65.215 6.85912C65.195 6.56912 65.105 6.28912 64.875 6.06912C64.685 5.88912 64.4551 5.80912 64.2051 5.76912C63.6651 5.66912 63.1351 5.67912 62.6151 5.74912C62.3751 5.77912 62.155 5.83912 61.945 5.95912C61.575 6.16912 61.3851 6.51912 61.2951 6.91912C61.2251 7.21912 61.185 7.52912 61.155 7.82912C61.105 8.28912 61.0851 8.74912 61.1751 9.21912C61.2351 9.51912 61.3651 9.79912 61.6451 9.96912" />
  <path d="M76.455 9.02832C76.455 9.02832 76.425 9.07832 76.405 9.07832C76.125 9.12832 75.835 9.15832 75.535 9.11832C75.345 9.09832 75.255 9.00832 75.255 8.80832C75.255 8.74832 75.255 8.68832 75.265 8.62832C75.295 8.42832 75.435 8.33832 75.625 8.32832C75.915 8.31832 76.205 8.32832 76.505 8.32832C76.485 8.56832 76.475 8.78832 76.455 9.01832M77.275 5.83832C77.005 5.74832 76.725 5.71832 76.445 5.69832C75.805 5.66832 75.175 5.69832 74.555 5.81832C74.485 5.82832 74.445 5.86832 74.435 5.94832C74.415 6.20832 74.395 6.46832 74.375 6.72832C74.375 6.83832 74.405 6.86832 74.515 6.86832C74.785 6.86832 75.055 6.86832 75.325 6.86832C75.595 6.86832 75.855 6.86832 76.125 6.86832C76.455 6.86832 76.605 7.03832 76.585 7.35832C76.585 7.37832 76.585 7.38832 76.585 7.40832C76.585 7.46832 76.565 7.48832 76.505 7.48832C76.195 7.48832 75.885 7.48832 75.585 7.48832C75.365 7.48832 75.145 7.50832 74.925 7.54832C74.505 7.61832 74.175 7.81832 74.025 8.23832C73.885 8.60832 73.855 9.00832 73.935 9.41832C74.005 9.77832 74.215 10.0183 74.575 10.1183C74.765 10.1683 74.955 10.1983 75.145 10.2083C75.945 10.2583 76.735 10.2083 77.505 10.0783C77.725 10.0383 77.785 9.96832 77.805 9.73832C77.835 9.31832 77.865 8.89832 77.895 8.47832C77.935 7.92832 77.985 7.37832 77.995 6.82832C78.005 6.33832 77.805 6.00832 77.295 5.82832" />
  <path d="M69.8548 10.2H71.8748C72.3748 10.2 72.8848 10.2 73.3848 10.2C73.5148 10.2 73.5548 10.17 73.5648 10.07C73.5848 9.76 73.6048 9.45 73.6248 9.14C73.6248 9.08 73.5948 9.04 73.5348 9.03C73.4948 9.03 73.4548 9.03 73.4148 9.03H71.7248C71.7248 9.03 71.7848 8.96 71.8048 8.93C72.4148 8.19 73.0248 7.46 73.6348 6.72C73.6748 6.67 73.6948 6.61 73.7048 6.54C73.7248 6.33 73.7348 6.11 73.7548 5.9C73.7548 5.78 73.7348 5.75 73.6148 5.75C73.4448 5.75 73.2848 5.75 73.1248 5.75H70.2548C70.1048 5.75 70.0648 5.79 70.0548 5.92C70.0348 6.18 70.0248 6.44 70.0048 6.71C69.9948 6.88 70.0148 6.9 70.1848 6.9C70.6848 6.9 71.1848 6.9 71.6848 6.9H71.8048C71.6848 7.04 71.5848 7.16 71.4848 7.28C70.9248 7.94 70.3548 8.6 69.7948 9.26C69.7548 9.3 69.7248 9.37 69.7248 9.42C69.7048 9.62 69.6848 9.82 69.6748 10.01C69.6648 10.17 69.6948 10.21 69.8548 10.21" />
  <path d="M62.515 32.4097L62.365 34.7797H74.415C75.435 34.7797 76.325 33.8897 76.395 32.7997L76.545 30.4297H64.495C63.475 30.4297 62.585 31.3197 62.515 32.4097Z" />
  <path d="M79.185 31.9091C78.915 35.2391 75.875 38.0591 72.535 38.0591H29.025L31.615 2.25914L81.575 2.30914L79.185 31.9091ZM4.365 35.3291C2.455 33.2891 2.295 29.8991 2.645 24.7691L4.665 2.21914L29.495 2.24914L26.905 38.0591H14.775C9.40501 38.0591 6.09501 37.1891 4.35501 35.3391M2.71501 0.119141L0.525005 24.6191C0.195005 29.3891 0.125004 33.9091 2.805 36.7891C4.995 39.1391 8.68501 40.1791 14.765 40.1791H72.525C76.915 40.1791 80.935 36.4791 81.285 32.0891L83.855 0.209139L2.71501 0.119141Z" />
  <path d="M18.655 27.3893H11.795C11.445 27.3893 11.185 27.1093 11.215 26.7593L11.285 25.8393H19.395L19.325 26.7593C19.295 27.1093 18.995 27.3893 18.655 27.3893ZM12.185 13.5093C12.205 13.1593 12.515 12.8793 12.855 12.8793H19.715C20.065 12.8793 20.325 13.1593 20.295 13.5093L19.495 24.5193H11.385L12.185 13.5093ZM19.815 11.5293H12.955C11.865 11.5293 10.915 12.4193 10.835 13.5093L9.86501 26.7693C9.78501 27.8593 10.605 28.7493 11.695 28.7493H18.555C19.645 28.7493 20.595 27.8593 20.675 26.7693L21.645 13.5093C21.725 12.4193 20.905 11.5293 19.815 11.5293Z" />
</svg>
