<svg viewBox="0 0 81 27" fill="currentColor" xmlns="http://www.w3.org/2000/svg">
  <path d="M30.7152 1.17875L20.1652 26.3388H13.2852L8.09524 6.25875C7.77524 5.01875 7.50524 4.56875 6.54524 4.04875C4.98524 3.19875 2.39524 2.39875 0.125244 1.90875L0.275244 1.17875H11.3652C12.7752 1.17875 14.0452 2.11875 14.3652 3.74875L17.1052 18.3088L23.8752 1.17875H30.7152ZM57.6752 18.1288C57.7052 11.4888 48.4952 11.1188 48.5552 8.15875C48.5752 7.25875 49.4352 6.29875 51.3152 6.04875C52.2452 5.92875 54.8152 5.82875 57.7352 7.17875L58.8752 1.83875C57.3052 1.26875 55.2952 0.71875 52.7852 0.71875C46.3552 0.71875 41.8252 4.13875 41.7852 9.03875C41.7452 12.6588 45.0152 14.6788 47.4852 15.8888C50.0252 17.1187 50.8752 17.9088 50.8652 19.0188C50.8452 20.7088 48.8452 21.4487 46.9652 21.4788C43.6952 21.5287 41.7952 20.5888 40.2852 19.8888L39.1052 25.3988C40.6252 26.0988 43.4352 26.7088 46.3452 26.7388C53.1852 26.7388 57.6552 23.3588 57.6752 18.1288ZM74.6652 26.3487H80.6852L75.4352 1.18875H69.8752C68.6252 1.18875 67.5752 1.91875 67.1052 3.03875L57.3352 26.3588H64.1652L65.5252 22.5987H73.8752L74.6652 26.3588V26.3487ZM67.4052 17.4288L70.8352 7.97875L72.8052 17.4288H67.4052ZM40.0152 1.17875L34.6352 26.3388H28.1252L33.5052 1.17875H40.0152Z" />
</svg>
