<svg width="133" height="187" viewBox="0 0 133 187" fill="none" xmlns="http://www.w3.org/2000/svg">
<path d="M76.4297 44.6869C74.771 42.0717 70.2371 36.3486 66.0731 37.2571C63.1351 37.8979 64.9474 43.3722 64.9882 45.8C65.1403 54.6846 71.2247 63.2008 79.0808 67.148C88.837 72.0492 99.2892 68.0029 106.437 60.4361C109 57.7218 111.515 54.9161 113.488 51.731C114.951 49.3725 116.009 46.8644 117.693 44.6412C119.3 42.5205 121.738 40.8374 124.003 39.4708C124.359 39.2566 124.751 39.0079 124.848 38.6032C125.026 37.8648 124.035 37.7593 123.566 37.8979C121.978 38.3624 120.434 38.978 118.963 39.7321C119.769 39.1149 124.922 36.0274 123.895 34.7915C123.702 34.5601 123.356 34.5018 123.067 34.5853C122.578 34.727 122.026 35.2119 121.594 35.4969C121.092 35.8275 120.606 36.1786 120.123 36.536C119.471 37.0178 118.833 37.6287 118.116 38.0144C119.465 36.4399 120.868 34.949 122.042 33.2202C122.338 32.7857 122.622 32.1889 122.299 31.7717C122.086 31.4962 121.678 31.4395 121.348 31.545C121.017 31.6505 120.747 31.8867 120.49 32.1181C117.841 34.4955 115.309 37.0209 113.178 39.8833C111.118 42.6496 109.555 45.8016 107.346 48.4483C102.18 54.6374 90.2699 62.1806 82.881 55.2546C79.6687 52.2427 79.0055 48.7443 76.4297 44.6838V44.6869Z" fill="white" stroke="black"/>
<path d="M62.0105 180.011L68.6487 179.858C68.4189 176.379 68.1906 172.901 67.9608 169.422C65.9581 169.824 61.9276 169.661 61.4023 172.03C61.2225 172.84 61.876 180.011 62.0105 180.011Z" fill="white"/>
<path d="M62.0108 180.403C62.0108 180.403 62.017 180.403 62.0202 180.403L68.6584 180.249C68.7647 180.246 68.8663 180.201 68.9382 180.123C69.0101 180.045 69.0461 179.94 69.0398 179.833L68.3519 169.398C68.3441 169.285 68.2894 169.182 68.2003 169.113C68.1112 169.044 67.9955 169.018 67.886 169.04C67.4733 169.123 66.9574 169.182 66.4102 169.246C64.2214 169.499 61.4964 169.814 61.0243 171.946C60.907 172.478 61.0821 174.892 61.1962 176.283C61.5027 180.002 61.6324 180.165 61.7028 180.252C61.7763 180.345 61.8935 180.403 62.0123 180.403H62.0108ZM68.2315 179.477L62.3203 179.615C62.2375 179.052 62.0905 177.674 61.9592 176.05C61.7653 173.663 61.7325 172.354 61.7856 172.117C62.1374 170.527 64.556 170.247 66.4977 170.023C66.887 169.978 67.2607 169.936 67.5999 169.884L68.2315 179.479V179.477Z" fill="#1A1E22"/>
<path d="M84.4731 185.985C85.3533 183.521 81.4682 182.141 79.9486 181.24C77.555 179.822 75.1005 178.506 72.5959 177.297C71.8455 176.936 70.8387 176.225 70.0038 176.148C69.2127 176.076 68.1058 176.528 67.3038 176.647C66.7816 176.725 61.2628 177.424 61.2159 177.125C61.6896 180.158 61.3191 186.051 61.2988 185.923L84.4731 185.985Z" fill="#D6B18D"/>
<path d="M84.4731 186.376C84.6389 186.376 84.7858 186.273 84.8405 186.116C85.6863 183.751 82.9144 182.336 81.079 181.399C80.7288 181.22 80.3974 181.051 80.1472 180.904C77.7521 179.484 75.2678 178.152 72.7648 176.945C72.5678 176.85 72.3474 176.728 72.1145 176.597C71.4641 176.232 70.7246 175.821 70.0398 175.759C69.4676 175.709 68.8094 175.881 68.1731 176.048C67.837 176.137 67.5181 176.22 67.2476 176.261C66.3033 176.401 62.1259 176.894 61.4349 176.8C61.3567 176.747 61.2582 176.722 61.1566 176.739C60.9439 176.772 60.797 176.972 60.8298 177.185C61.2707 180.011 60.9612 185.385 60.9174 185.833C60.9064 185.882 60.9033 185.933 60.9127 185.985C60.9455 186.19 61.1362 186.332 61.3379 186.313L84.4716 186.376H84.4731ZM69.8241 176.531C69.8741 176.531 69.9226 176.533 69.9695 176.537C70.4901 176.584 71.1514 176.953 71.7346 177.28C71.9784 177.416 72.2083 177.544 72.4271 177.65C74.9114 178.848 77.3753 180.169 79.7517 181.578C80.0221 181.739 80.3645 181.912 80.7257 182.098C82.7128 183.113 84.4669 184.148 84.1792 185.596L61.7256 185.535C61.735 185.386 61.746 185.203 61.7569 184.991C61.7788 184.567 61.8179 183.701 61.8367 182.656C61.8648 181.162 61.8554 179.145 61.6756 177.594C61.8179 177.594 61.9711 177.586 62.1337 177.579C62.6183 177.557 63.2875 177.502 64.1239 177.416C65.5669 177.269 67.0975 177.074 67.3649 177.033C67.6775 176.986 68.0168 176.897 68.3748 176.803C68.8845 176.669 69.4113 176.531 69.8272 176.531H69.8241Z" fill="#1A1E22"/>
<path d="M6.47191 149.957L7.99108 156.421C11.3474 155.478 14.7041 154.538 18.0605 153.595C17.2543 151.718 16.582 147.741 14.156 147.716C13.3265 147.707 6.44418 149.825 6.47191 149.957Z" fill="white"/>
<path d="M6.089 150.038C6.089 150.038 6.09028 150.044 6.09093 150.047L7.6101 156.511C7.63509 156.614 7.70041 156.704 7.79173 156.758C7.88305 156.813 7.99296 156.826 8.0957 156.798L18.1651 153.972C18.2736 153.942 18.3633 153.867 18.4123 153.765C18.4612 153.664 18.4633 153.545 18.4193 153.443C18.2531 153.056 18.0886 152.563 17.913 152.041C17.2137 149.952 16.3441 147.35 14.1601 147.328C13.6158 147.323 11.2899 147.992 9.95198 148.391C6.37583 149.458 6.24349 149.618 6.17234 149.705C6.09724 149.796 6.06481 149.923 6.08932 150.039L6.089 150.038ZM8.27777 155.934L6.92386 150.178C7.45749 149.981 8.77493 149.553 10.3373 149.089C12.6333 148.407 13.9069 148.105 14.1504 148.108C15.7788 148.124 16.5515 150.433 17.1707 152.287C17.2954 152.659 17.4138 153.016 17.5342 153.337L8.27624 155.934L8.27777 155.934Z" fill="#1A1E22"/>
<path d="M5.2603 173.169C7.85279 173.522 8.40222 169.436 8.96993 167.763C9.86373 165.129 10.6455 162.455 11.3114 159.755C11.51 158.946 11.9984 157.815 11.9012 156.982C11.8084 156.193 11.1379 155.203 10.8562 154.443C10.672 153.948 8.84988 148.692 9.1324 148.584C6.26233 149.674 0.420159 150.526 0.541409 150.48L5.2603 173.169Z" fill="#D6B18D"/>
<path d="M4.87761 173.25C4.91179 173.412 5.04307 173.535 5.20734 173.556C7.69636 173.896 8.50905 170.892 9.0468 168.902C9.15049 168.523 9.24735 168.164 9.33956 167.888C10.2346 165.252 11.0255 162.546 11.6902 159.848C11.7429 159.636 11.8168 159.395 11.8972 159.14C12.1195 158.428 12.3693 157.62 12.2893 156.937C12.2202 156.367 11.9161 155.758 11.6212 155.17C11.4647 154.86 11.3178 154.565 11.2222 154.308C10.8898 153.413 9.54625 149.427 9.4955 148.732C9.53139 148.645 9.53555 148.543 9.49777 148.447C9.42178 148.246 9.19566 148.143 8.99438 148.219C6.31948 149.234 0.997755 150.039 0.549678 150.089C0.499997 150.088 0.448873 150.096 0.400325 150.116C0.206696 150.19 0.106831 150.406 0.166788 150.599L4.87729 173.248L4.87761 173.25ZM11.489 156.885C11.4994 156.934 11.5078 156.982 11.5129 157.029C11.5744 157.548 11.3498 158.271 11.1503 158.909C11.0676 159.176 10.9895 159.427 10.9306 159.663C10.2713 162.341 9.48681 165.025 8.59864 167.64C8.49686 167.938 8.39767 168.309 8.29011 168.701C7.70715 170.854 7.05626 172.784 5.58034 172.801L1.00859 150.818C1.15585 150.797 1.3371 150.77 1.5474 150.737C1.96649 150.671 2.82206 150.53 3.84782 150.333C5.3161 150.052 7.28758 149.627 8.76804 149.131C8.79739 149.271 8.83663 149.419 8.87782 149.576C8.99921 150.046 9.19078 150.69 9.44744 151.49C9.88889 152.872 10.3958 154.329 10.4907 154.582C10.6011 154.879 10.7583 155.192 10.9239 155.523C11.1606 155.994 11.4039 156.481 11.4897 156.888L11.489 156.885Z" fill="#1A1E22"/>
<path d="M57.8651 26.7886C57.3711 28.0862 57.7854 31.6305 59.0408 32.0432C59.663 32.248 59.5505 32.692 59.8663 33.2673C60.759 34.898 59.0252 36.6724 58.0152 37.9372C56.4846 39.8555 54.0692 41.0296 51.6162 41.05C49.1648 41.0687 46.7243 39.9321 45.1531 38.0388C44.6622 37.4463 44.2354 36.7084 44.3526 35.9486C44.484 35.1106 45.8769 31.5335 46.7587 30.9019C51.0799 27.8111 49.2242 24.0339 48.7692 18.6214C48.5519 16.0433 49.01 13.3746 50.3045 11.1421C51.599 8.90796 53.7721 7.14913 56.2877 6.59256C58.8032 6.03599 61.6282 6.7786 63.387 8.67501C65.5023 10.9545 65.9901 14.2736 65.6274 17.2597C65.2819 20.1035 64.1828 23.8228 61.5672 25.3722C60.6433 25.9193 59.9695 26.0804 58.9173 25.9741C58.4483 25.9256 58.5374 25.7614 58.2403 26.1273C58.0809 26.3243 57.9574 26.5478 57.8651 26.7902V26.7886Z" fill="white"/>
<path d="M51.5534 41.4411C51.5753 41.4411 51.5972 41.4411 51.6191 41.4411C54.2018 41.4208 56.708 40.2029 58.3198 38.1814C58.4277 38.0454 58.5449 37.9047 58.6653 37.7578C59.7066 36.4945 61.1324 34.7654 60.2084 33.0801C60.124 32.9269 60.0755 32.7783 60.027 32.6361C59.9082 32.278 59.7722 31.8731 59.1625 31.673C58.9608 31.6074 58.7529 31.365 58.5747 30.9914C58.0181 29.8235 57.918 27.7457 58.2291 26.9281C58.3104 26.717 58.4152 26.5294 58.5434 26.3715C58.5621 26.3481 58.5793 26.3277 58.5919 26.3121C58.6622 26.3293 58.7544 26.3481 58.8764 26.3606C60.002 26.4747 60.7556 26.3043 61.7655 25.7071C64.9064 23.8466 65.7835 19.2127 66.0149 17.3054C66.6105 12.4025 64.8032 9.62593 63.6729 8.40804C61.8719 6.46629 58.9389 5.6033 56.203 6.2099C53.6953 6.7649 51.3627 8.53467 49.9666 10.9454C48.708 13.117 48.1452 15.8545 48.3797 18.6546C48.4782 19.8193 48.6377 20.8902 48.7909 21.9252C49.3412 25.6211 49.7383 28.2914 46.5318 30.5849C45.9689 30.9882 45.3436 32.2249 44.9168 33.1911C44.4493 34.2511 44.0413 35.4111 43.9678 35.8895C43.8521 36.6337 44.1491 37.442 44.8527 38.2893C46.4927 40.267 48.9941 41.4411 51.5534 41.4411ZM57.5006 26.6498C57.0753 27.7645 57.2551 30.0377 57.8711 31.3275C58.1494 31.9122 58.5027 32.278 58.9202 32.4156C59.1484 32.4907 59.1812 32.5673 59.2876 32.8831C59.3407 33.0426 59.4064 33.2411 59.5252 33.4553C60.1943 34.6763 59.0124 36.1099 58.0634 37.2606C57.9399 37.4107 57.8211 37.5545 57.7101 37.6937C56.2421 39.5322 53.9642 40.6407 51.6144 40.6594C51.5941 40.6594 51.5737 40.6594 51.555 40.6594C49.2255 40.6594 46.9492 39.5901 45.4561 37.789C44.9027 37.1215 44.6619 36.5227 44.7417 36.0083C44.7964 35.6534 45.1544 34.595 45.6344 33.5053C46.2582 32.0889 46.7428 31.3963 46.9883 31.2196C50.5841 28.6478 50.1338 25.6289 49.5663 21.808C49.4147 20.7855 49.2568 19.7286 49.1614 18.5873C48.9394 15.9452 49.4663 13.3703 50.6451 11.3363C51.9349 9.11157 54.0767 7.48094 56.3749 6.97284C58.8467 6.42565 61.4873 7.19797 63.1023 8.9396C64.1404 10.059 65.7991 12.6214 65.241 17.2116C65.0237 19.0032 64.2107 23.351 61.3685 25.0348C60.5008 25.5476 59.916 25.6821 58.9577 25.5836C58.8498 25.5726 58.7841 25.5539 58.7263 25.5382C58.3355 25.4319 58.1682 25.5961 57.9383 25.8806C57.7585 26.1026 57.6116 26.3621 57.5021 26.6498H57.5006Z" fill="#1A1E22"/>
<path d="M60.2325 14.6973C58.7926 12.729 57.6591 10.534 56.8899 8.2186C56.9994 9.83359 56.904 11.4611 56.6054 13.0511C56.5522 13.3325 56.4584 13.6561 56.1911 13.7562C55.8159 13.8969 55.4719 13.4904 55.2812 13.1355C54.6714 11.9927 54.1852 10.7841 53.8335 9.53811C54.2102 12.2475 54.1008 15.0225 53.5114 17.6912C53.341 18.462 53.0596 19.3156 52.3498 19.6564C51.4633 20.0832 50.3612 19.4172 49.9531 18.5183C49.5451 17.6193 49.642 16.5828 49.7452 15.601C50.1329 18.1102 49.7874 20.7274 48.7618 23.0443C48.4569 23.7307 47.8331 24.5061 47.1233 24.2607C46.6934 24.1121 46.4714 23.6431 46.3151 23.2132C45.4865 20.9306 45.216 18.4495 45.5334 16.045C45.2238 17.3067 44.686 18.5105 43.9559 19.583C42.8725 19.0827 42.5973 17.6678 42.6379 16.4749C42.7427 13.334 44.0903 10.2557 46.3229 8.05444C45.8726 8.5516 45.3989 9.0644 44.7736 9.31142C44.1498 9.55843 43.3305 9.45056 42.96 8.88617C42.6614 8.42966 42.7349 7.82462 42.9006 7.30557C43.2821 6.10957 44.0747 5.08398 44.9783 4.21629C48.2443 1.07855 53.205 -0.169046 57.5747 1.05041C60.1434 1.76801 62.4525 3.32359 64.1613 5.37008C64.5412 5.82347 67.7634 10.5715 67.1974 10.9827C66.2031 11.705 65.029 11.877 63.9846 12.4945C62.7355 13.2324 61.4816 13.961 60.2309 14.6973H60.2325Z" fill="#045042"/>
<path d="M47.4043 24.6981C48.1735 24.6981 48.7942 23.9383 49.1225 23.2004C49.6431 22.0231 49.9949 20.7615 50.1684 19.4732C50.4311 19.7281 50.7437 19.9298 51.072 20.0501C51.5786 20.2346 52.0804 20.219 52.5229 20.0064C53.3953 19.5858 53.7158 18.593 53.8955 17.7738C54.2927 15.9743 54.4756 14.1499 54.4443 12.3207C54.5991 12.6584 54.7632 12.9914 54.9383 13.3181C55.3073 14.0107 55.8279 14.3109 56.3298 14.1217C56.8379 13.931 56.9489 13.3431 56.9911 13.1227C57.1599 12.2206 57.2662 11.306 57.3069 10.3899C58.0073 11.9908 58.8812 13.5104 59.9178 14.9284C60.0366 15.091 60.2586 15.1364 60.4321 15.0347C60.9699 14.7189 61.5078 14.4031 62.0456 14.0889C62.76 13.6715 63.4729 13.2525 64.1859 12.8319C64.6205 12.5755 65.0801 12.4004 65.5663 12.2159C66.1901 11.9783 66.8343 11.7328 67.4299 11.3013C67.5159 11.2388 67.6253 11.1184 67.6519 10.9058C67.6769 10.6979 67.7379 10.2132 66.2198 7.7446C65.4678 6.52046 64.6549 5.34947 64.4626 5.12121C62.6709 2.97466 60.2617 1.39719 57.6805 0.676462C53.1701 -0.582077 48.0797 0.696787 44.709 3.93616C43.6021 4.99927 42.8892 6.06394 42.5296 7.18803C42.2795 7.97129 42.3154 8.61542 42.6344 9.10163C43.0205 9.69104 43.7366 9.88646 44.3807 9.80985C43.0846 11.7751 42.3279 14.0967 42.2482 16.4621C42.1904 18.1913 42.7532 19.4576 43.7928 19.9391C43.9664 20.0189 44.1712 19.9626 44.2791 19.8047C44.5558 19.3998 44.8044 18.9792 45.0232 18.5461C45.078 20.1815 45.3891 21.8074 45.9488 23.3489C46.127 23.8383 46.4069 24.4277 46.9963 24.6325C47.1354 24.6809 47.2714 24.7028 47.4027 24.7028L47.4043 24.6981ZM49.4883 18.3914C49.3961 19.9407 49.0302 21.4775 48.408 22.883C48.222 23.3036 47.7389 24.0571 47.2542 23.8883C46.9759 23.7914 46.804 23.4052 46.6851 23.0769C45.8784 20.8522 45.6142 18.4367 45.9238 16.0932C45.9503 15.8868 45.8128 15.6961 45.608 15.6585C45.4031 15.6195 45.2062 15.7477 45.1561 15.9493C44.8857 17.0531 44.4417 18.0943 43.8382 19.0511C43.0581 18.4336 43.0096 17.0812 43.0299 16.4856C43.1237 13.6965 44.2212 10.9699 46.066 8.89214C46.2615 8.70297 46.4428 8.50441 46.6132 8.31524C46.7555 8.1589 46.7477 7.91658 46.5945 7.77118C46.4413 7.62422 46.2005 7.62578 46.0488 7.7743C45.8628 7.95722 45.683 8.1464 45.5095 8.34026C45.2452 8.59353 44.956 8.81709 44.6308 8.94529C44.1774 9.12508 43.5521 9.07036 43.2879 8.66857C43.0596 8.31837 43.1534 7.79619 43.2738 7.42098C43.5927 6.42353 44.2384 5.46672 45.2499 4.49429C48.4252 1.44253 53.2202 0.238709 57.4695 1.42377C59.9006 2.10228 62.1706 3.59064 63.8622 5.61681C64.3954 6.25468 66.7639 9.90522 66.8718 10.7323C66.3856 11.0621 65.8509 11.2654 65.2881 11.4811C64.7925 11.6703 64.2812 11.8642 63.7888 12.155C63.0774 12.5755 62.3645 12.9929 61.65 13.4104C61.2138 13.6652 60.7776 13.9216 60.343 14.1764C59.0204 12.3097 57.9854 10.2648 57.2616 8.09167C57.199 7.90563 57.0083 7.79307 56.8144 7.83215C56.6206 7.86967 56.4861 8.04634 56.5002 8.24176C56.6081 9.82393 56.5142 11.417 56.2219 12.9757C56.1562 13.3244 56.0765 13.3791 56.0546 13.3869C55.9874 13.4119 55.7935 13.2572 55.6278 12.9476C55.0321 11.8298 54.5553 10.6463 54.2114 9.42838C54.1551 9.22983 53.9565 9.10945 53.7548 9.15166C53.5532 9.19387 53.4203 9.38461 53.4484 9.58785C53.8205 12.2675 53.7142 14.9644 53.131 17.6034C52.9888 18.2491 52.7511 19.0261 52.1821 19.3013C51.8678 19.4529 51.5489 19.3919 51.3378 19.3153C50.9016 19.1559 50.5077 18.7885 50.3122 18.3538C50.2997 18.3257 50.2872 18.2976 50.2763 18.2694C50.32 17.3548 50.2731 16.4371 50.134 15.5382C50.1043 15.3443 49.9323 15.1989 49.7385 15.2067C49.5415 15.2114 49.3804 15.3615 49.3586 15.5569C49.2694 16.4058 49.16 17.4424 49.4868 18.3914H49.4883Z" fill="#022821"/>
<path d="M62.1938 20.5542C61.9487 21.3167 61.677 22.1256 60.8936 22.4983C60.0169 22.9144 59.1834 22.588 58.9384 21.6724C58.8634 21.3955 58.6467 20.1984 58.7634 19.9989C59.0018 19.586 60.917 19.1993 61.4103 19.0214C61.7037 18.9163 62.0604 18.8173 62.3088 18.9951C62.6088 19.2101 62.5155 19.6447 62.3904 19.9773C62.3221 20.1613 62.2604 20.3562 62.1954 20.5542H62.1938Z" fill="#1A1E22"/>
<mask id="path-15-inside-1_958_3767" fill="white">
<path fill-rule="evenodd" clip-rule="evenodd" d="M71.6714 87.2108C71.3493 85.8038 70.9851 84.3514 70.0361 83.1757L70.0329 83.1772C65.3083 77.3207 51.7255 79.9129 50.0324 86.5511C49.9746 86.777 49.9243 87.0042 49.8806 87.2323C49.7119 87.1965 49.543 87.1613 49.374 87.1268C48.1576 86.8782 46.8381 86.6202 45.5984 86.6828C44.9198 86.7169 44.2538 86.8217 43.5876 86.9265C42.9397 87.0285 42.2918 87.1304 41.632 87.1674C40.7753 87.2159 39.8888 87.2206 38.9914 87.2034C38.1764 87.1881 37.3526 87.1552 36.5338 87.1225C35.5935 87.085 34.6599 87.0477 33.754 87.0377C33.5032 87.0349 33.2669 87.0187 33.0428 87.0033C32.1313 86.9407 31.4224 86.892 30.7648 87.8194C30.3724 88.3744 30.2051 89.0357 30.0488 89.683C29.9584 90.054 29.8711 90.4265 29.7838 90.7991L29.783 90.8023C28.9523 94.3522 29.3905 97.949 29.8279 101.54C30.2796 105.247 30.7305 108.948 29.783 112.584C29.5896 113.326 29.3872 114.117 29.1753 114.946C27.3662 122.018 24.8598 131.816 21.245 137.39C20.8378 138.017 18.5871 140.165 16.5163 142.141C14.8342 143.747 13.2709 145.239 12.9108 145.71C12.944 149.263 12.9785 150.403 13.0122 151.518C13.0465 152.655 13.0801 153.766 13.1109 157.383C14.0605 156.802 15.2419 156.208 16.4485 155.603C17.9933 154.827 19.5793 154.031 20.7731 153.212C29.4125 147.282 38.0252 141.294 44.1413 133.088C47.4807 128.608 49.9775 123.662 51.9513 118.553C53.0227 127.869 54.3344 137.169 55.7513 146.457C56.1289 148.934 56.5799 152.06 57.0478 155.303C57.7229 159.983 58.4332 164.907 59.0094 168.476C59.0808 168.918 59.1203 169.367 59.1587 169.804C59.3237 171.683 59.4694 173.342 62.0502 173.237C63.9862 173.158 65.9342 172.956 67.8765 172.755C68.9975 172.638 70.1166 172.522 71.2305 172.43C71.4284 172.482 71.605 171.077 71.643 170.774C71.6461 170.749 71.6483 170.732 71.6495 170.723C71.8934 168.931 72.0873 167.133 72.2483 165.332L72.2514 165.298C72.5146 162.36 72.7474 159.422 72.9801 156.484C73.2618 152.93 73.5434 149.375 73.8789 145.82C74.5043 139.192 75.078 132.553 75.25 125.896C75.4204 119.364 75.261 112.824 74.8326 106.303C74.4105 99.8791 73.105 93.4785 71.6714 87.2108Z"/>
</mask>
<path fill-rule="evenodd" clip-rule="evenodd" d="M71.6714 87.2108C71.3493 85.8038 70.9851 84.3514 70.0361 83.1757L70.0329 83.1772C65.3083 77.3207 51.7255 79.9129 50.0324 86.5511C49.9746 86.777 49.9243 87.0042 49.8806 87.2323C49.7119 87.1965 49.543 87.1613 49.374 87.1268C48.1576 86.8782 46.8381 86.6202 45.5984 86.6828C44.9198 86.7169 44.2538 86.8217 43.5876 86.9265C42.9397 87.0285 42.2918 87.1304 41.632 87.1674C40.7753 87.2159 39.8888 87.2206 38.9914 87.2034C38.1764 87.1881 37.3526 87.1552 36.5338 87.1225C35.5935 87.085 34.6599 87.0477 33.754 87.0377C33.5032 87.0349 33.2669 87.0187 33.0428 87.0033C32.1313 86.9407 31.4224 86.892 30.7648 87.8194C30.3724 88.3744 30.2051 89.0357 30.0488 89.683C29.9584 90.054 29.8711 90.4265 29.7838 90.7991L29.783 90.8023C28.9523 94.3522 29.3905 97.949 29.8279 101.54C30.2796 105.247 30.7305 108.948 29.783 112.584C29.5896 113.326 29.3872 114.117 29.1753 114.946C27.3662 122.018 24.8598 131.816 21.245 137.39C20.8378 138.017 18.5871 140.165 16.5163 142.141C14.8342 143.747 13.2709 145.239 12.9108 145.71C12.944 149.263 12.9785 150.403 13.0122 151.518C13.0465 152.655 13.0801 153.766 13.1109 157.383C14.0605 156.802 15.2419 156.208 16.4485 155.603C17.9933 154.827 19.5793 154.031 20.7731 153.212C29.4125 147.282 38.0252 141.294 44.1413 133.088C47.4807 128.608 49.9775 123.662 51.9513 118.553C53.0227 127.869 54.3344 137.169 55.7513 146.457C56.1289 148.934 56.5799 152.06 57.0478 155.303C57.7229 159.983 58.4332 164.907 59.0094 168.476C59.0808 168.918 59.1203 169.367 59.1587 169.804C59.3237 171.683 59.4694 173.342 62.0502 173.237C63.9862 173.158 65.9342 172.956 67.8765 172.755C68.9975 172.638 70.1166 172.522 71.2305 172.43C71.4284 172.482 71.605 171.077 71.643 170.774C71.6461 170.749 71.6483 170.732 71.6495 170.723C71.8934 168.931 72.0873 167.133 72.2483 165.332L72.2514 165.298C72.5146 162.36 72.7474 159.422 72.9801 156.484C73.2618 152.93 73.5434 149.375 73.8789 145.82C74.5043 139.192 75.078 132.553 75.25 125.896C75.4204 119.364 75.261 112.824 74.8326 106.303C74.4105 99.8791 73.105 93.4785 71.6714 87.2108Z" fill="white"/>
<path d="M70.0361 83.1757L69.5889 82.2813L70.3087 81.9213L70.8142 82.5476L70.0361 83.1757ZM71.6714 87.2108L72.6462 86.9877L72.6462 86.9878L71.6714 87.2108ZM70.0329 83.1772L70.4802 84.0717L69.7601 84.4317L69.2546 83.8051L70.0329 83.1772ZM50.0324 86.5511L51.0013 86.7982L51.0012 86.7986L50.0324 86.5511ZM49.8806 87.2323L50.8628 87.4204L50.6709 88.4223L49.6731 88.2105L49.8806 87.2323ZM49.374 87.1268L49.1741 88.1066L49.1737 88.1065L49.374 87.1268ZM45.5984 86.6828L45.6487 87.6815L45.6485 87.6815L45.5984 86.6828ZM43.5876 86.9265L43.4321 85.9387L43.5876 86.9265ZM41.632 87.1674L41.5755 86.169L41.576 86.169L41.632 87.1674ZM38.9914 87.2034L39.0102 86.2036L39.0106 86.2036L38.9914 87.2034ZM36.5338 87.1225L36.4939 88.1217L36.5338 87.1225ZM33.754 87.0377L33.743 88.0376L33.754 87.0377ZM33.0428 87.0033L33.1114 86.0056H33.1114L33.0428 87.0033ZM30.7648 87.8194L29.9483 87.2421L29.9491 87.241L30.7648 87.8194ZM30.0488 89.683L31.0208 89.9177L31.0203 89.9197L30.0488 89.683ZM29.7838 90.7991L28.8098 90.5723L28.8101 90.5709L29.7838 90.7991ZM29.783 90.8023L30.7569 91.0291L30.7567 91.0302L29.783 90.8023ZM29.8279 101.54L28.8353 101.661L29.8279 101.54ZM29.783 112.584L28.8153 112.332L28.8153 112.332L29.783 112.584ZM29.1753 114.946L30.1441 115.193L30.1441 115.193L29.1753 114.946ZM21.245 137.39L22.084 137.934L22.0837 137.934L21.245 137.39ZM16.5163 142.141L17.2067 142.865L16.5163 142.141ZM12.9108 145.71L11.9108 145.72L11.9076 145.376L12.116 145.103L12.9108 145.71ZM13.0122 151.518L12.0126 151.548L13.0122 151.518ZM13.1109 157.383L13.6331 158.236L12.126 159.159L12.1109 157.391L13.1109 157.383ZM16.4485 155.603L16.8972 156.496L16.4485 155.603ZM20.7731 153.212L21.339 154.036L21.3388 154.036L20.7731 153.212ZM44.1413 133.088L43.3395 132.49L43.3395 132.49L44.1413 133.088ZM51.9513 118.553L51.0185 118.193L52.9448 118.439L51.9513 118.553ZM55.7513 146.457L56.7398 146.307L56.7398 146.307L55.7513 146.457ZM57.0478 155.303L56.058 155.446L57.0478 155.303ZM59.0094 168.476L58.0222 168.636L58.0222 168.636L59.0094 168.476ZM59.1587 169.804L60.1548 169.717L59.1587 169.804ZM62.0502 173.237L62.0912 174.236L62.091 174.236L62.0502 173.237ZM67.8765 172.755L67.7734 171.76H67.7734L67.8765 172.755ZM71.2305 172.43L71.1481 171.434L71.3189 171.42L71.4847 171.463L71.2305 172.43ZM71.643 170.774L72.6352 170.899H72.6352L71.643 170.774ZM71.6495 170.723L72.6404 170.858L72.64 170.861L71.6495 170.723ZM72.2483 165.332L71.2523 165.243L71.2524 165.242L72.2483 165.332ZM72.2514 165.298L73.2474 165.387L73.2473 165.389L72.2514 165.298ZM72.9801 156.484L71.9833 156.405L72.9801 156.484ZM73.8789 145.82L74.8745 145.914H74.8745L73.8789 145.82ZM75.25 125.896L74.2504 125.87L74.2504 125.87L75.25 125.896ZM74.8326 106.303L75.8305 106.238L75.8305 106.238L74.8326 106.303ZM70.8142 82.5476C71.9272 83.9264 72.3284 85.5995 72.6462 86.9877L70.6966 87.4339C70.3702 86.008 70.043 84.7763 69.2579 83.8038L70.8142 82.5476ZM69.5857 82.2828L69.5889 82.2813L70.4833 84.0701L70.4802 84.0717L69.5857 82.2828ZM49.0634 86.3039C49.564 84.341 50.9234 82.7512 52.6426 81.5746C54.3644 80.3962 56.5072 79.5873 58.721 79.1941C63.0769 78.4202 68.1155 79.2077 70.8113 82.5494L69.2546 83.8051C67.2258 81.2903 63.1107 80.4456 59.0708 81.1632C57.0866 81.5157 55.221 82.2335 53.7721 83.2251C52.3207 84.2185 51.3473 85.442 51.0013 86.7982L49.0634 86.3039ZM48.8985 87.0442C48.9458 86.7972 49.0005 86.5502 49.0635 86.3036L51.0012 86.7986C50.9488 87.0038 50.9029 87.2111 50.8628 87.4204L48.8985 87.0442ZM49.6731 88.2105C49.5066 88.1752 49.3403 88.1405 49.1741 88.1066L49.5738 86.147C49.7457 86.182 49.9172 86.2178 50.0882 86.2541L49.6731 88.2105ZM49.1737 88.1065C47.9396 87.8543 46.7422 87.6264 45.6487 87.6815L45.548 85.6841C46.9341 85.6141 48.3757 85.9021 49.5742 86.147L49.1737 88.1065ZM45.6485 87.6815C45.0317 87.7125 44.4177 87.8082 43.743 87.9144L43.4321 85.9387C44.0898 85.8352 44.808 85.7212 45.5482 85.684L45.6485 87.6815ZM43.743 87.9144C43.1032 88.015 42.406 88.1256 41.688 88.1659L41.576 86.169C42.1775 86.1353 42.7763 86.0419 43.4321 85.9387L43.743 87.9144ZM41.6885 88.1658C40.7979 88.2162 39.8844 88.2207 38.9723 88.2032L39.0106 86.2036C39.8932 86.2205 40.7526 86.2156 41.5755 86.169L41.6885 88.1658ZM38.9727 88.2032C38.1453 88.1877 37.3108 88.1543 36.4939 88.1217L36.5737 86.1233C37.3943 86.1561 38.2075 86.1885 39.0102 86.2036L38.9727 88.2032ZM36.4939 88.1217C35.5509 88.0841 34.6319 88.0475 33.743 88.0376L33.7651 86.0377C34.6879 86.0479 35.6362 86.0859 36.5737 86.1233L36.4939 88.1217ZM33.743 88.0376C33.4592 88.0345 33.1952 88.0161 32.9743 88.0009L33.1114 86.0056C33.3386 86.0212 33.5473 86.0353 33.7651 86.0377L33.743 88.0376ZM32.9743 88.0009C32.4787 87.9669 32.2449 87.9605 32.0574 88.0086C31.9425 88.0381 31.791 88.1009 31.5805 88.3978L29.9491 87.241C30.3961 86.6105 30.9279 86.2339 31.5598 86.0715C32.1191 85.9278 32.6955 85.9771 33.1114 86.0056L32.9743 88.0009ZM31.5813 88.3967C31.3157 88.7724 31.1827 89.2476 31.0208 89.9177L29.0767 89.4482C29.2275 88.8238 29.4291 87.9764 29.9483 87.2421L31.5813 88.3967ZM31.0203 89.9197C30.9311 90.2857 30.8449 90.6539 30.7574 91.0272L28.8101 90.5709C28.8973 90.1991 28.9856 89.8222 29.0772 89.4462L31.0203 89.9197ZM30.7577 91.0258L30.7569 91.0291L28.8091 90.5756L28.8098 90.5723L30.7577 91.0258ZM30.7567 91.0302C29.9731 94.3787 30.3793 97.797 30.8206 101.419L28.8353 101.661C28.4016 98.1009 27.9314 94.3257 28.8093 90.5745L30.7567 91.0302ZM30.8206 101.419C31.2682 105.092 31.7541 108.985 30.7507 112.836L28.8153 112.332C29.7068 108.91 29.291 105.402 28.8353 101.661L30.8206 101.419ZM30.7507 112.836C30.5579 113.576 30.3561 114.365 30.1441 115.193L28.2065 114.698C28.4183 113.87 28.6212 113.077 28.8153 112.332L30.7507 112.836ZM30.1441 115.193C29.2407 118.725 28.1544 122.973 26.8387 127.038C25.5272 131.089 23.9648 135.034 22.084 137.934L20.406 136.846C22.14 134.172 23.6382 130.431 24.9359 126.422C26.2293 122.426 27.3008 118.238 28.2065 114.698L30.1441 115.193ZM22.0837 137.934C21.9265 138.177 21.6493 138.489 21.3549 138.803C21.0417 139.137 20.6473 139.536 20.2075 139.971C19.3275 140.841 18.2402 141.879 17.2067 142.865L15.8259 141.418C16.8632 140.428 17.9366 139.404 18.8015 138.549C19.2341 138.121 19.6082 137.742 19.8962 137.435C20.2031 137.108 20.3599 136.917 20.4063 136.845L22.0837 137.934ZM17.2067 142.865C16.3641 143.669 15.558 144.438 14.9174 145.066C14.2504 145.719 13.8316 146.152 13.7055 146.317L12.116 145.103C12.35 144.797 12.893 144.249 13.5182 143.637C14.1699 142.999 14.9864 142.219 15.8259 141.418L17.2067 142.865ZM13.9107 145.701C13.9439 149.247 13.9782 150.38 14.0117 151.488L12.0126 151.548C11.9787 150.426 11.9442 149.279 11.9108 145.72L13.9107 145.701ZM14.0117 151.488C14.0463 152.633 14.08 153.751 14.1108 157.374L12.1109 157.391C12.0802 153.782 12.0467 152.678 12.0126 151.548L14.0117 151.488ZM12.5887 156.53C13.5816 155.922 14.8044 155.309 15.9998 154.709L16.8972 156.496C15.6794 157.108 14.5393 157.681 13.6331 158.236L12.5887 156.53ZM15.9998 154.709C17.5635 153.924 19.0816 153.16 20.2074 152.387L21.3388 154.036C20.0771 154.902 18.423 155.73 16.8972 156.496L15.9998 154.709ZM20.2072 152.387C28.8685 146.442 37.3385 140.542 43.3395 132.49L44.9431 133.685C38.7119 142.046 29.9564 148.121 21.339 154.036L20.2072 152.387ZM43.3395 132.49C46.6112 128.101 49.0681 123.241 51.0185 118.193L52.8841 118.914C50.8869 124.083 48.3503 129.114 44.943 133.685L43.3395 132.49ZM54.7627 146.608C53.3448 137.312 52.0311 127.999 50.9579 118.668L52.9448 118.439C54.0142 127.738 55.324 137.025 56.7398 146.307L54.7627 146.608ZM56.058 155.446C55.5899 152.201 55.1396 149.08 54.7627 146.608L56.7398 146.307C57.1182 148.788 57.5698 151.918 58.0375 155.161L56.058 155.446ZM58.0222 168.636C57.4443 165.056 56.7327 160.122 56.058 155.446L58.0375 155.161C58.7131 159.843 59.4221 164.757 59.9966 168.317L58.0222 168.636ZM58.1625 169.892C58.1236 169.449 58.0869 169.036 58.0222 168.636L59.9966 168.317C60.0748 168.8 60.117 169.286 60.1548 169.717L58.1625 169.892ZM62.091 174.236C61.3451 174.267 60.6862 174.174 60.1235 173.922C59.5431 173.661 59.1267 173.258 58.8397 172.777C58.3177 171.902 58.2382 170.754 58.1625 169.892L60.1548 169.717C60.2441 170.733 60.3199 171.354 60.5573 171.752C60.65 171.908 60.7642 172.017 60.9421 172.097C61.1378 172.185 61.4649 172.26 62.0095 172.238L62.091 174.236ZM67.9796 173.749C66.0427 173.95 64.0636 174.155 62.0912 174.236L62.0093 172.238C63.9089 172.16 65.8257 171.962 67.7734 171.76L67.9796 173.749ZM71.3129 173.427C70.2111 173.518 69.1024 173.633 67.9796 173.749L67.7734 171.76C68.8926 171.644 70.0221 171.527 71.1481 171.434L71.3129 173.427ZM72.6352 170.899C72.6164 171.048 72.5593 171.505 72.4787 171.924C72.4399 172.126 72.3873 172.364 72.3175 172.565C72.2864 172.654 72.2271 172.811 72.1227 172.96C72.0722 173.032 71.6748 173.581 70.9764 173.397L71.4847 171.463C71.1837 171.384 70.9164 171.465 70.7422 171.573C70.5929 171.665 70.5124 171.773 70.4844 171.813C70.4276 171.894 70.4148 171.947 70.4287 171.907C70.4489 171.849 70.4799 171.727 70.5147 171.546C70.5814 171.2 70.6315 170.803 70.6508 170.649L72.6352 170.899ZM72.64 170.861C72.6402 170.859 72.6403 170.859 72.64 170.861C72.6398 170.862 72.6395 170.865 72.639 170.869C72.638 170.876 72.6368 170.886 72.6352 170.899L70.6508 170.649C70.6533 170.629 70.6567 170.602 70.659 170.585L72.64 170.861ZM73.2443 165.421C73.0822 167.234 72.8867 169.048 72.6404 170.858L70.6586 170.588C70.9 168.815 71.0923 167.032 71.2523 165.243L73.2443 165.421ZM73.2473 165.389L73.2442 165.423L71.2524 165.242L71.2555 165.207L73.2473 165.389ZM73.977 156.563C73.7443 159.5 73.5112 162.443 73.2474 165.387L71.2554 165.209C71.5181 162.277 71.7504 159.344 71.9833 156.405L73.977 156.563ZM74.8745 145.914C74.5398 149.46 74.2587 153.007 73.977 156.563L71.9833 156.405C72.2648 152.852 72.547 149.29 72.8833 145.726L74.8745 145.914ZM76.2497 125.921C76.0768 132.615 75.5 139.284 74.8745 145.914L72.8833 145.726C73.5085 139.1 74.0793 132.49 74.2504 125.87L76.2497 125.921ZM75.8305 106.238C76.2606 112.786 76.421 119.356 76.2497 125.922L74.2504 125.87C74.4199 119.371 74.2613 112.862 73.8348 106.369L75.8305 106.238ZM72.6462 86.9878C74.0818 93.264 75.4028 99.7295 75.8305 106.238L73.8348 106.369C73.4182 100.029 72.1283 93.693 70.6966 87.4338L72.6462 86.9878Z" fill="black" mask="url(#path-15-inside-1_958_3767)"/>
<path d="M29.1606 58.4509C29.8165 58.6899 30.7725 58.8728 31.5558 58.9941C32.3952 59.1214 32.6639 60.1808 32.0135 60.7033L32.0119 60.7046C31.6279 61.0104 31.1625 61.4516 30.6913 62.0604L41.1142 33.2157C39.1104 33.9145 37.1338 34.6709 35.2218 35.5641L35.2217 35.5642C32.0089 37.0639 30.5867 38.1085 27.9472 40.5271L27.6094 40.1584L27.9472 40.5271C27.0044 41.3909 25.7984 43.2652 24.8466 45.4212C23.9083 47.5467 23.2647 49.8396 23.3304 51.5756C23.332 51.5787 23.3338 51.582 23.3357 51.5855C23.3653 51.64 23.4139 51.7195 23.4835 51.8249C23.6216 52.0341 23.8233 52.3161 24.0732 52.65C24.5717 53.3163 25.247 54.1694 25.9523 55.0206C26.658 55.8723 27.3887 56.7161 27.9984 57.3656C28.3039 57.6909 28.5735 57.9617 28.7912 58.1588C28.9002 58.2575 28.9907 58.3326 29.0622 58.3854C29.1209 58.4287 29.1521 58.4458 29.1602 58.4503C29.1631 58.4518 29.1631 58.4519 29.1606 58.4509ZM29.1606 58.4509L28.9892 58.9206L29.1604 58.4508C29.1604 58.4509 29.1605 58.4509 29.1606 58.4509ZM46.343 31.6092C46.3076 32.8602 46.937 34.2078 47.9014 35.2926C49.1203 36.6637 50.9735 37.7393 53.0826 37.8178L46.343 31.6092ZM46.343 31.6092C46.2491 31.6392 46.1505 31.6704 46.0486 31.7024C45.5159 31.8697 44.8523 32.0719 44.1842 32.2742C43.9284 32.3517 43.6727 32.4289 43.4236 32.5042C42.3618 32.8249 41.4214 33.109 41.1147 33.2155L46.343 31.6092ZM30.5866 85.1492C30.8919 86.0356 31.2087 86.6587 31.5141 87.0015L30.2956 61.7547C27.1713 65.7975 27.3132 67.3651 28.0647 73.9004L28.5614 73.8432C28.5614 73.8433 28.5614 73.8433 28.5614 73.8433C28.8178 76.0714 29.1819 79.0489 29.6993 81.6655C29.9581 82.9746 30.2527 84.1796 30.5866 85.1492Z" fill="#088D73" stroke="#022821"/>
<path d="M77.6286 37.1852C79.2165 37.7799 80.0852 38.0757 81.2023 37.4325C81.056 33.661 81.1246 29.8801 81.4065 26.1148C80.6156 26.0397 78.8477 25.492 78.2305 26.1367C77.6606 26.7314 77.8739 28.6391 77.8282 29.4012C77.7886 30.0663 77.6987 37.1727 77.627 37.1852H77.6286Z" fill="#1A1E22"/>
<path d="M109.004 8.36635C108.152 10.2107 106.657 15.2929 107.136 21.0055M109.004 8.36635L109.314 30.4688C108.881 29.4602 108.586 28.3588 108.301 27.2956C108.288 27.2464 108.275 27.1972 108.262 27.1481M109.004 8.36635C108.784 8.45702 108.564 8.54802 108.343 8.63931M109.004 8.36635L108.343 8.63931M107.136 21.0055C107.31 23.0802 107.723 25.1407 108.262 27.1481M107.136 21.0055L106.638 21.0473C106.638 21.0473 106.638 21.0472 106.638 21.0472M107.136 21.0055L106.638 21.0472M108.262 27.1481L107.779 27.2776M108.262 27.1481L107.779 27.2779C107.779 27.2778 107.779 27.2777 107.779 27.2776M107.779 27.2776C107.793 27.33 107.807 27.3827 107.821 27.4356C108.103 28.49 108.407 29.6233 108.855 30.6662L108.855 30.6669C108.961 30.913 109.155 31.1313 109.33 31.3063C109.478 31.454 109.649 31.6048 109.809 31.7451C109.674 31.7222 109.538 31.699 109.402 31.6758C108.572 31.5345 107.737 31.3922 107.222 31.2887L107.222 31.2887C106.034 31.0507 104.843 30.8189 103.649 30.5979C103.649 30.5979 103.649 30.5978 103.649 30.5978L107.779 27.2776ZM107.779 27.2776C107.234 25.25 106.815 23.1592 106.638 21.0472M107.779 27.2776L108.343 8.63931M106.638 21.0472C106.336 17.4483 106.803 14.101 107.408 11.6274C107.709 10.3965 108.045 9.37476 108.343 8.63931M108.343 8.63931C106.216 9.51758 104.048 10.4234 101.86 11.338C95.5619 13.9695 89.0925 16.6727 82.9427 18.9968L82.9426 18.9968C81.8523 19.4086 80.7839 19.6789 79.7478 19.9082C79.3812 19.9893 79.0228 20.0646 78.6692 20.1388C78.0104 20.277 77.3687 20.4117 76.7236 20.5742L76.7227 20.5744C76.1079 20.7282 75.434 20.9506 74.9299 21.2439L74.9293 21.2442C74.488 21.5001 74.1732 22.0207 73.9826 22.7233C73.7948 23.4155 73.7507 24.2042 73.7848 24.868L73.7848 24.8686C73.8432 26.0299 74.4295 27.1363 75.3616 27.5283C75.8954 27.7527 76.5139 27.7523 77.2364 27.7395L108.343 8.63931ZM108.343 8.63931C108.344 8.63552 108.346 8.63174 108.347 8.62797C108.447 8.38081 108.545 8.16236 108.636 7.97731C106.349 8.91995 104.015 9.89542 101.658 10.8804C95.3635 13.5105 88.9073 16.2082 82.7659 18.5291C81.3429 19.0665 79.9489 19.3592 78.5806 19.6464L108.343 8.63931ZM93.2923 28.8222C94.3761 29.0147 95.4415 29.204 96.4763 29.3667L82.841 27.6347C82.841 27.6347 82.8411 27.6347 82.8412 27.6347C86.2486 27.5709 89.8624 28.2129 93.2923 28.8222Z" fill="#E8A3B9" stroke="#022821"/>
<path d="M109.008 29.4211C107.451 25.3375 106.132 20.1962 106.681 14.6401C106.85 12.9332 107.287 11.0855 107.931 9.77741C108.254 9.12023 108.609 8.64324 108.968 8.37467C109.305 8.12306 109.637 8.05708 110.008 8.18699L110.008 8.18708C110.337 8.30226 110.67 8.60053 110.994 9.11586C111.315 9.62565 111.594 10.2959 111.838 11.0633C112.325 12.5983 112.643 14.4244 112.899 15.9167C113.522 19.5522 113.736 23.6457 113.078 27.6931L109.008 29.4211ZM109.008 29.4211L109.009 29.4209C109.368 30.3596 109.74 31.159 110.211 31.6256C110.432 31.8449 110.657 31.9565 110.857 31.9815C111.044 32.0049 111.259 31.9592 111.497 31.7654C111.86 31.4682 112.191 30.9083 112.469 30.1513C112.741 29.4085 112.94 28.5389 113.078 27.6933L109.008 29.4211Z" fill="white" stroke="#022821"/>
<path fill-rule="evenodd" clip-rule="evenodd" d="M118.334 14.1704C118.386 14.1704 118.437 14.161 118.487 14.1391C121.348 12.9181 124.003 11.4266 126.378 9.70998C126.553 9.58334 126.592 9.33945 126.465 9.16435C126.339 8.98925 126.093 8.95016 125.92 9.0768C123.592 10.7606 120.987 12.2224 118.181 13.4199C117.982 13.5044 117.89 13.7342 117.974 13.9327C118.038 14.0812 118.182 14.1704 118.334 14.1704ZM119.536 19.1826C119.556 19.1826 119.578 19.1811 119.598 19.178C121.198 18.92 123.671 18.5166 126.143 18.1133C128.61 17.7099 131.077 17.3081 132.671 17.0502C132.884 17.0158 133.029 16.8157 132.995 16.6015C132.961 16.3888 132.76 16.2434 132.546 16.2778C130.95 16.5358 128.483 16.9376 126.016 17.341C123.544 17.7443 121.071 18.1477 119.473 18.4056C119.26 18.44 119.115 18.6401 119.149 18.8543C119.181 19.0466 119.346 19.1826 119.534 19.1826H119.536ZM130.148 25.1281C130.104 25.3079 129.945 25.4283 129.768 25.4283H129.767C129.737 25.4283 129.707 25.4252 129.676 25.4174C126.446 24.6419 123.11 24.2026 119.761 24.1088C119.545 24.1026 119.375 23.9228 119.381 23.707C119.387 23.4913 119.564 23.3224 119.783 23.3271C123.186 23.4225 126.576 23.8696 129.859 24.6576C130.07 24.7076 130.198 24.9187 130.148 25.1281Z" fill="#1A1E22"/>
<path d="M82.6573 38.6074C82.8738 40.6173 79.4943 45.1272 78.9041 46.2499C77.5663 48.7927 76.1102 51.288 74.4283 53.6489C69.1505 61.0589 61.4074 65.776 52.8264 68.2713C45.6066 70.3713 37.58 70.9785 30.8601 66.9794C25.601 63.8484 22.5361 57.8694 22.8476 51.7165C22.8476 51.7165 37.1019 54.702 37.1362 54.827C39.4582 63.2475 49.9734 59.2989 55.4537 56.9997C62.1471 54.1913 68.5135 49.9075 72.3274 43.5332C73.4783 41.6103 74.0156 39.3854 75.0699 37.3756C76.3049 35.0194 77.7657 31.618 80.7651 30.9491C81.1482 30.8637 81.5562 30.821 81.9269 30.9333C82.2975 31.0471 82.6215 31.3476 82.6479 31.716C82.6838 32.2331 82.1683 32.6364 81.6762 32.8783C80.6795 33.3717 80.0846 34.0263 79.3713 34.8344C79.7871 34.3631 81.5251 33.7939 82.0328 34.379C82.7492 35.2028 80.3976 37.9606 79.9273 38.6564C80.2356 38.3465 80.5533 38.0302 80.9536 37.8389C81.3554 37.6475 81.8646 37.6049 82.2275 37.842C82.486 38.0112 82.6199 38.2737 82.6557 38.6042L82.6573 38.6074Z" fill="white" stroke="black"/>
<path d="M60.3547 14.868C58.8817 12.8815 57.7221 10.6663 56.9352 8.32953C57.0472 9.95941 56.9496 11.6019 56.6441 13.2065C56.5898 13.4906 56.4938 13.8172 56.2203 13.9181C55.8364 14.0601 55.4846 13.6499 55.2895 13.2918C54.6657 12.1384 54.1683 10.9187 53.8085 9.6612C54.1939 12.3956 54.082 15.1962 53.479 17.8895C53.3047 18.6674 53.0168 19.5289 52.2907 19.8728C51.3838 20.3036 50.2563 19.6314 49.8388 18.7242C49.4214 17.8169 49.5206 16.7708 49.6261 15.78C50.0228 18.3124 49.6693 20.9536 48.6201 23.2919C48.3083 23.9846 47.6701 24.7672 46.944 24.5195C46.5042 24.3696 46.2771 23.8962 46.1171 23.4623C45.2695 21.1587 44.9928 18.6547 45.3174 16.2281C45.0008 17.5014 44.4506 18.7163 43.7037 19.7987C42.5953 19.2938 42.3138 17.8658 42.3554 16.662C42.4626 13.4921 43.8412 10.3854 46.1251 8.16386C45.6645 8.6656 45.1799 9.18312 44.5401 9.43242C43.902 9.68171 43.0639 9.57284 42.6849 9.00325C42.3794 8.54253 42.4546 7.93192 42.6241 7.40808C43.0144 6.20105 43.8252 5.16601 44.7497 4.29032C48.0907 1.12365 53.1655 -0.135448 57.6357 1.09525C60.2635 1.81946 62.6258 3.38939 64.3739 5.45475C64.7625 5.91231 68.0588 10.7041 67.4798 11.1191C66.4626 11.8481 65.2615 12.0216 64.1931 12.6448C62.9153 13.3896 61.6326 14.1248 60.3531 14.868H60.3547Z" fill="#045042"/>
<path d="M47.4671 24.5617C48.2296 24.5617 48.8449 23.8 49.1704 23.0601C49.6865 21.8799 50.0352 20.615 50.2073 19.3235C50.4677 19.5789 50.7776 19.7811 51.1031 19.9018C51.6053 20.0868 52.1028 20.0711 52.5414 19.8579C53.4062 19.4363 53.724 18.441 53.9022 17.6197C54.2959 15.8156 54.4772 13.9865 54.4462 12.1526C54.5997 12.4912 54.7624 12.825 54.936 13.1526C55.3018 13.847 55.8179 14.1479 56.3154 13.9582C56.8191 13.767 56.9292 13.1777 56.971 12.9567C57.1384 12.0523 57.2438 11.1354 57.2841 10.2169C57.9784 11.8219 58.8448 13.3454 59.8724 14.767C59.9902 14.93 60.2103 14.9755 60.3823 14.8736C60.9155 14.557 61.4486 14.2404 61.9818 13.9253C62.6901 13.5068 63.3968 13.0868 64.1036 12.6651C64.5344 12.4081 64.9901 12.2325 65.4721 12.0476C66.0905 11.8093 66.7291 11.5632 67.3196 11.1306C67.4048 11.068 67.5133 10.9473 67.5397 10.7341C67.5645 10.5256 67.6249 10.0397 66.12 7.56481C65.3745 6.33753 64.5685 5.16355 64.3779 4.93471C62.6017 2.78267 60.2134 1.20116 57.6545 0.478586C53.1831 -0.783172 48.1366 0.498964 44.7951 3.74662C43.6977 4.81245 42.991 5.87985 42.6345 7.00681C42.3865 7.79208 42.4222 8.43785 42.7384 8.92531C43.1212 9.51622 43.831 9.71215 44.4696 9.63535C43.1847 11.6056 42.4346 13.9332 42.3555 16.3046C42.2982 18.0382 42.8562 19.3078 43.8868 19.7905C44.0589 19.8705 44.2619 19.8141 44.3688 19.6557C44.6432 19.2498 44.8896 18.8282 45.1066 18.394C45.1608 20.0335 45.4693 21.6636 46.0241 23.209C46.2008 23.6996 46.4782 24.2906 47.0626 24.4959C47.2005 24.5445 47.3353 24.5664 47.4655 24.5664L47.4671 24.5617ZM49.5331 18.2388C49.4416 19.7921 49.079 21.3329 48.4621 22.742C48.2777 23.1636 47.7988 23.9191 47.3183 23.7498C47.0424 23.6526 46.8719 23.2655 46.7541 22.9363C45.9544 20.7059 45.6925 18.2843 45.9993 15.9347C46.0257 15.7278 45.8893 15.5366 45.6863 15.499C45.4832 15.4598 45.2879 15.5883 45.2383 15.7905C44.9702 16.8971 44.53 17.941 43.9318 18.9003C43.1584 18.2811 43.1103 16.9253 43.1305 16.3281C43.2235 13.5319 44.3115 10.7984 46.1404 8.71528C46.3341 8.52563 46.5139 8.32657 46.6828 8.13691C46.8239 7.98017 46.8161 7.73722 46.6642 7.59146C46.5124 7.44412 46.2737 7.44569 46.1233 7.59459C45.9389 7.77797 45.7606 7.96763 45.5886 8.16199C45.3267 8.41591 45.0399 8.64005 44.7176 8.76857C44.2681 8.94882 43.6482 8.89396 43.3862 8.49114C43.1599 8.14005 43.2529 7.61653 43.3723 7.24036C43.6884 6.24035 44.3285 5.2811 45.3313 4.30618C48.4791 1.24661 53.2327 0.0397138 57.4453 1.2278C59.8553 1.90806 62.1058 3.40022 63.7828 5.43158C64.3113 6.07108 66.6594 9.73096 66.7663 10.5601C66.2843 10.8908 65.7542 11.0946 65.1963 11.3109C64.7049 11.5006 64.1981 11.6949 63.7099 11.9864C63.0047 12.4081 62.298 12.8266 61.5897 13.2451C61.1572 13.5006 60.7248 13.7576 60.294 14.0131C58.9828 12.1416 57.9567 10.0915 57.2391 7.91277C57.1771 7.72625 56.9881 7.6134 56.7959 7.65258C56.6037 7.6902 56.4704 7.86732 56.4843 8.06324C56.5913 9.64945 56.4983 11.2466 56.2085 12.8093C56.1434 13.1589 56.0643 13.2137 56.0426 13.2216C55.976 13.2466 55.7838 13.0915 55.6195 12.7811C55.029 11.6604 54.5563 10.4739 54.2153 9.2529C54.1595 9.05384 53.9627 8.93315 53.7627 8.97547C53.5628 9.01779 53.4311 9.20901 53.459 9.41278C53.8278 12.0993 53.7224 14.8031 53.1443 17.4488C53.0033 18.0962 52.7677 18.8752 52.2035 19.151C51.892 19.3031 51.5758 19.242 51.3666 19.1651C50.9342 19.0053 50.5436 18.6369 50.3499 18.2012C50.3375 18.173 50.3251 18.1448 50.3142 18.1166C50.3576 17.1996 50.3111 16.2796 50.1732 15.3783C50.1437 15.1839 49.9733 15.0382 49.7811 15.046C49.5858 15.0507 49.4261 15.2012 49.4044 15.3971C49.3161 16.2482 49.2076 17.2874 49.5315 18.2388H49.5331Z" fill="#022821"/>
<path fill-rule="evenodd" clip-rule="evenodd" d="M49.1225 23.2008C48.7942 23.9387 48.1735 24.6985 47.4043 24.6985L47.4027 24.7032C47.2714 24.7032 47.1354 24.6813 46.9963 24.6329C46.4069 24.4281 46.127 23.8387 45.9488 23.3493C45.3891 21.8078 45.078 20.1819 45.0232 18.5466C44.8044 18.9796 44.5558 19.4002 44.2791 19.8051C44.1712 19.963 43.9664 20.0193 43.7928 19.9395C42.7532 19.458 42.1904 18.1917 42.2482 16.4625C42.3279 14.0971 43.0846 11.7755 44.3807 9.81027C43.7366 9.88687 43.0205 9.69145 42.6344 9.10205C42.3154 8.61583 42.2795 7.9717 42.5296 7.18844C42.8892 6.06435 43.6021 4.99968 44.709 3.93657C48.0797 0.697199 53.1701 -0.581665 57.6805 0.676874C60.2617 1.3976 62.6709 2.97507 64.4626 5.12162C64.6549 5.34988 65.4678 6.52087 66.2198 7.74501C67.7357 10.21 67.6771 10.6969 67.652 10.9053L67.6519 10.9062C67.6253 11.1188 67.5159 11.2392 67.4299 11.3018C66.8343 11.7332 66.1901 11.9787 65.5663 12.2163C65.0801 12.4008 64.6205 12.5759 64.1859 12.8323C63.4729 13.2529 62.76 13.6719 62.0456 14.0893C61.5078 14.4035 60.9699 14.7193 60.4321 15.0352C60.2586 15.1368 60.0366 15.0914 59.9178 14.9288C58.8812 13.5108 58.0073 11.9912 57.3069 10.3903C57.2662 11.3064 57.1599 12.221 56.9911 13.1231L56.9907 13.1253C56.9482 13.3474 56.8362 13.932 56.3298 14.1221C55.8279 14.3113 55.3073 14.0111 54.9383 13.3185C54.7632 12.9918 54.5991 12.6588 54.4443 12.3211C54.4756 14.1503 54.2927 15.9748 53.8955 17.7742C53.7158 18.5935 53.3953 19.5862 52.5229 20.0068C52.0804 20.2194 51.5786 20.235 51.072 20.0505C50.7437 19.9302 50.4311 19.7285 50.1684 19.4737C49.9949 20.7619 49.6431 22.0236 49.1225 23.2008Z" fill="#022821"/>
</svg>
