<svg width="229" height="202" viewBox="0 0 229 202" fill="none" xmlns="http://www.w3.org/2000/svg">
<path d="M165.129 176.449C165.116 176.183 165.046 175.912 164.914 175.641C162.797 171.302 145.767 168.179 126.875 168.666C109.523 169.112 96.6363 172.449 96.2922 176.351C96.2621 176.697 96.4605 182.204 96.2922 184.107C96.2621 184.452 96.3299 184.803 96.5019 185.158C98.6189 189.496 115.649 193.958 134.541 193.471C152.252 193.015 165.311 188.212 165.13 184.205C165.117 183.937 165.22 178.444 165.13 176.449H165.129Z" fill="white"/>
<path d="M131.686 193.822C123.779 193.822 115.879 192.989 109.16 191.429C102.032 189.775 97.3155 187.539 96.2193 185.295C96.0234 184.894 95.9431 184.485 95.9782 184.079C96.095 182.762 96.0322 179.667 95.9946 177.817C95.9757 176.864 95.9669 176.439 95.9782 176.324C96.1051 174.88 97.7964 172.767 105.127 170.908C110.778 169.475 118.499 168.568 126.866 168.352C136.023 168.115 145.035 168.714 152.241 170.034C159.526 171.37 164.127 173.312 165.195 175.503C165.345 175.81 165.428 176.123 165.443 176.434C165.509 177.903 165.472 181.24 165.451 183.034C165.445 183.621 165.439 184.127 165.443 184.191C165.475 184.913 165.145 185.652 164.461 186.387C161.319 189.763 150.037 193.387 134.549 193.786C133.596 193.811 132.64 193.822 131.686 193.822ZM130.776 168.93C129.484 168.93 128.185 168.946 126.883 168.98C118.562 169.194 110.891 170.095 105.283 171.518C99.9197 172.877 96.7567 174.65 96.6048 176.379C96.5973 176.472 96.6098 177.119 96.6236 177.804C96.6613 179.667 96.7241 182.784 96.6048 184.135C96.5797 184.425 96.64 184.723 96.7844 185.02C98.8147 189.18 115.747 193.643 134.533 193.157C141.505 192.978 148.124 192.119 153.674 190.675C158.655 189.378 162.419 187.659 164.001 185.958C164.566 185.351 164.84 184.766 164.816 184.22C164.812 184.144 164.816 183.799 164.825 183.028C164.845 181.24 164.881 177.915 164.816 176.464C164.806 176.239 164.745 176.009 164.633 175.781C163.668 173.804 159.11 171.935 152.129 170.655C145.989 169.529 138.524 168.932 130.777 168.932L130.776 168.93Z" fill="#212121"/>
<path d="M164.914 175.642C162.797 171.302 145.767 168.179 126.875 168.666C107.984 169.152 94.385 173.064 96.502 177.403C98.619 181.743 115.649 186.205 134.542 185.718C153.433 185.232 167.031 179.981 164.914 175.641V175.642Z" fill="#F0D6BC"/>
<path d="M131.686 186.067C123.779 186.067 115.878 185.233 109.16 183.674C102.032 182.02 97.3155 179.784 96.2193 177.539C96.0234 177.138 95.9431 176.73 95.9782 176.324C96.1051 174.88 97.7964 172.767 105.127 170.908C110.778 169.475 118.499 168.568 126.866 168.352C136.023 168.115 145.035 168.714 152.241 170.034C159.526 171.37 164.127 173.312 165.195 175.503C165.345 175.81 165.428 176.123 165.443 176.434C165.475 177.156 165.145 177.895 164.461 178.63C161.319 182.006 150.037 185.63 134.549 186.029C133.596 186.054 132.64 186.065 131.686 186.065V186.067ZM130.776 168.931C129.484 168.931 128.185 168.947 126.883 168.981C118.562 169.195 110.891 170.096 105.283 171.519C99.9197 172.879 96.7567 174.651 96.6048 176.38C96.5797 176.67 96.64 176.968 96.7844 177.265C98.8147 181.425 115.744 185.887 134.533 185.403C141.505 185.223 148.124 184.365 153.674 182.921C158.655 181.624 162.419 179.904 164.001 178.204C164.566 177.597 164.84 177.011 164.816 176.466C164.806 176.241 164.744 176.011 164.633 175.782C163.668 173.805 159.11 171.936 152.129 170.657C145.989 169.53 138.524 168.933 130.777 168.933L130.776 168.931Z" fill="#212121"/>
<path d="M158.028 175.552C156.337 172.591 142.735 170.459 127.647 170.791C112.558 171.123 101.697 173.792 103.388 176.753C105.079 179.714 118.682 183.184 133.769 182.852C148.858 182.521 159.72 178.513 158.028 175.552Z" fill="#FCF8F5"/>
<path d="M165.129 159.085C165.116 158.818 165.046 158.548 164.914 158.277C162.797 153.938 145.767 150.815 126.875 151.301C109.523 151.747 96.6363 155.084 96.2922 158.987C96.2621 159.332 96.4605 164.84 96.2922 166.743C96.2621 167.088 96.3299 167.439 96.5019 167.793C98.6189 172.132 115.649 176.593 134.541 176.107C152.252 175.651 165.311 170.847 165.13 166.841C165.117 166.573 165.22 161.079 165.13 159.085H165.129Z" fill="white"/>
<path d="M131.686 176.458C123.779 176.458 115.879 175.625 109.16 174.065C102.032 172.411 97.3155 170.175 96.2193 167.93C96.0234 167.53 95.9431 167.121 95.9782 166.715C96.095 165.398 96.0322 162.302 95.9946 160.452C95.9757 159.5 95.9669 159.075 95.9782 158.959C96.1051 157.515 97.7964 155.402 105.127 153.544C110.778 152.111 118.499 151.203 126.866 150.987C136.023 150.751 145.035 151.349 152.241 152.67C159.526 154.006 164.127 155.948 165.195 158.139C165.345 158.445 165.428 158.758 165.443 159.07C165.509 160.539 165.472 163.876 165.451 165.669C165.445 166.256 165.439 166.763 165.443 166.827C165.475 167.548 165.145 168.287 164.461 169.023C161.319 172.398 150.037 176.023 134.549 176.422C133.596 176.447 132.64 176.458 131.686 176.458ZM130.776 151.565C129.484 151.565 128.185 151.582 126.883 151.616C118.562 151.829 110.891 152.73 105.283 154.153C99.9197 155.513 96.7567 157.285 96.6048 159.015C96.5973 159.108 96.6098 159.755 96.6236 160.44C96.6613 162.302 96.7241 165.419 96.6048 166.77C96.5797 167.061 96.64 167.359 96.7844 167.655C98.8147 171.815 115.747 176.278 134.533 175.793C141.505 175.613 148.124 174.755 153.674 173.311C158.655 172.014 162.419 170.295 164.001 168.594C164.566 167.987 164.84 167.401 164.816 166.856C164.812 166.779 164.816 166.435 164.825 165.663C164.845 163.876 164.881 160.55 164.816 159.1C164.806 158.875 164.745 158.645 164.633 158.416C163.668 156.439 159.11 154.57 152.129 153.291C145.989 152.165 138.524 151.568 130.777 151.568L130.776 151.565Z" fill="#212121"/>
<path d="M164.914 158.278C162.797 153.938 145.767 150.815 126.875 151.301C107.984 151.788 94.385 155.7 96.502 160.039C98.619 164.378 115.649 168.84 134.542 168.354C153.433 167.867 167.031 162.616 164.914 158.277V158.278Z" fill="#F0D6BC"/>
<path d="M131.686 168.702C123.779 168.702 115.878 167.869 109.16 166.309C102.032 164.655 97.3155 162.419 96.2193 160.175C96.0234 159.774 95.9431 159.365 95.9782 158.959C96.1051 157.515 97.7964 155.402 105.127 153.544C110.778 152.111 118.499 151.203 126.866 150.987C136.023 150.751 145.035 151.349 152.241 152.67C159.526 154.006 164.127 155.948 165.195 158.139C165.345 158.445 165.428 158.758 165.443 159.07C165.475 159.791 165.145 160.53 164.461 161.266C161.319 164.641 150.037 168.266 134.549 168.664C133.596 168.69 132.64 168.701 131.686 168.701V168.702ZM130.776 151.567C129.484 151.567 128.185 151.583 126.883 151.617C118.562 151.831 110.891 152.732 105.283 154.154C99.9197 155.514 96.7567 157.286 96.6048 159.016C96.5797 159.306 96.64 159.604 96.7844 159.901C98.8147 164.061 115.744 168.522 134.533 168.039C141.505 167.859 148.124 167 153.674 165.556C158.655 164.259 162.419 162.54 164.001 160.839C164.566 160.232 164.84 159.647 164.816 159.101C164.806 158.876 164.744 158.646 164.633 158.418C163.668 156.441 159.11 154.572 152.129 153.292C145.989 152.166 138.524 151.569 130.777 151.569L130.776 151.567Z" fill="#212121"/>
<path d="M158.028 158.187C156.337 155.226 142.735 153.095 127.647 153.426C112.558 153.758 101.697 156.428 103.388 159.389C105.079 162.35 118.682 165.82 133.769 165.488C148.858 165.156 159.72 161.148 158.028 158.187Z" fill="#FCF8F5"/>
<g clip-path="url(#clip0_958_3379)">
<path d="M135.995 70.6578C121.185 69.659 109.75 69.3183 97.8419 69.9349C86.029 70.5121 73.7432 72.0527 59.456 73.8974C60.5747 61.3528 59.9966 50.2809 58.6539 37.2422C73.5714 37.2414 85.0623 37.3036 96.9501 37.0401C108.746 36.8268 120.939 36.2876 135.122 36.2703C134.065 48.7143 134.653 59.0453 135.998 70.6591L135.995 70.6578Z" fill="#54D9BF"/>
<path d="M132.643 67.8331C106.495 66.2049 89.0552 67.361 62.6477 70.657C63.3361 60.314 62.9699 50.8401 62.0278 40.1673C88.3799 40.0753 105.761 39.4099 131.965 39.114C131.323 49.3389 131.7 58.2279 132.645 67.8344L132.643 67.8331Z" fill="white"/>
<path d="M107.102 53.5556C106.971 48.257 102.505 43.8208 97.1345 43.929C91.7724 44.0327 87.5651 48.6655 87.6948 54.0769C87.818 59.4999 92.2932 63.5922 97.6685 63.3703C103.038 63.1421 107.235 58.8555 107.102 53.5556Z" fill="#54D9BF"/>
<path d="M123.163 53.5637C123.11 51.1267 120.932 49.1087 118.331 49.1188C115.727 49.1276 113.703 51.121 113.761 53.5151C113.819 55.9092 115.925 57.8415 118.524 57.8793C121.122 57.9134 123.222 56.0047 123.165 53.565L123.163 53.5637Z" fill="#54D9BF"/>
<path d="M81.0039 54.1365C80.9493 51.6706 78.8344 49.7211 76.2197 49.8218C73.6074 49.9239 71.4942 52.1187 71.5487 54.6794C71.5995 57.2412 73.7877 59.13 76.4061 58.9335C79.0259 58.7346 81.0586 56.6025 81.0039 54.1365Z" fill="#54D9BF"/>
<path d="M1.71562 174.343L70.3899 174.552C71.1834 174.552 71.8294 173.914 71.8294 173.124V126.024C71.8294 125.236 71.186 124.596 70.3925 124.596H3.49293C1.18216 124.639 0.41548 126.169 0.380631 127.369V127.447L0.321655 171.425C0.321655 171.425 0.375269 172.604 0.579003 173.174C0.782736 173.743 1.05617 174.321 1.05617 174.321L1.71294 174.343H1.71562Z" fill="#FAFAFA"/>
<path d="M1.87382 174.777L20.1374 174.833C31.2784 174.868 42.4194 174.9 53.5604 174.935C57.6887 174.949 61.8143 174.959 65.9426 174.973L69.264 174.983C70.0655 174.983 70.8724 175.048 71.5801 174.584C72.5934 173.919 72.4835 172.909 72.4835 171.878V152.053C72.4835 143.461 72.6926 134.838 72.4835 126.249C72.4246 123.821 70.1245 124.164 68.3955 124.164H24.3917C17.7007 124.164 11.007 124.089 4.31594 124.164C2.21695 124.188 0.233225 125.204 0.125997 127.509C0.0938285 128.2 0.125997 128.899 0.123316 129.593C0.117955 133.948 0.112593 138.303 0.107232 142.657L0.0697021 170.706C0.0697021 172.041 0.227864 173.25 0.806895 174.496C0.884636 174.662 1.03476 174.75 1.21972 174.756C1.43686 174.764 1.654 174.769 1.87382 174.777C2.45285 174.796 3.21685 173.936 2.34026 173.909C2.12312 173.901 1.90598 173.895 1.68617 173.887C1.82288 173.973 1.96228 174.062 2.09899 174.147C0.989183 171.749 1.3752 168.833 1.38057 166.156C1.38593 161.228 1.39397 156.3 1.39933 151.375C1.40737 146.101 1.41273 140.824 1.42078 135.551C1.42346 132.855 1.32427 130.135 1.4315 127.439C1.54677 124.55 4.5438 125.03 6.58917 125.03H67.8218C68.5161 125.03 69.3122 124.92 69.9985 125.03C71.0681 125.201 71.178 125.917 71.178 126.78V171.995C71.178 172.644 71.3576 173.858 70.5829 174.115C70.1165 174.268 69.3257 174.112 68.8431 174.11C65.5941 174.099 62.3451 174.091 59.0961 174.08L27.3593 173.984C19.4431 173.96 11.527 173.936 3.61091 173.911H2.34026C1.76659 173.906 0.999906 174.774 1.87382 174.777Z" fill="#212121"/>
<path d="M9.11169 162.541C11.9291 148.162 14.8377 135.074 17.2342 122.832C19.679 110.441 21.6118 98.8967 23.5955 84.1124C35.8597 88.384 46.915 92.1142 59.4901 94.25C56.1446 106.649 52.8688 118.293 50.2042 129.532C47.4913 140.923 45.3896 151.913 43.2987 166.515C31.7422 164.728 21.2606 163.01 9.11437 162.538L9.11169 162.541Z" fill="#54D9BF"/>
<path d="M12.5215 159.628C15.229 146.38 17.7917 134.613 19.9685 123.43C22.1747 112.154 23.9976 101.461 25.9384 88.1857C36.0902 91.6801 45.4298 94.5608 55.8792 96.3911C52.7508 108.021 49.8985 118.633 47.51 129.031C45.092 139.525 43.1405 149.81 41.1299 163.016C31.525 161.434 22.6304 160.132 12.5215 159.628Z" fill="white"/>
<path d="M32.415 133.069C37.5941 134.002 42.7599 130.652 43.9581 125.501C45.1323 120.338 41.6259 115.297 36.2913 114.062C30.9648 112.818 25.7454 115.991 24.6919 121.447C23.6572 126.919 27.2279 132.158 32.415 133.069Z" fill="#54D9BF"/>
<path d="M28.7077 152.071C31.1284 152.388 33.4794 150.472 33.9592 147.872C34.439 145.273 32.9164 142.928 30.5574 142.555C28.1984 142.186 25.8259 143.984 25.2844 146.645C24.7456 149.3 26.287 151.758 28.7077 152.071Z" fill="#54D9BF"/>
<path d="M28.3297 152.428C30.7772 152.634 33.482 151.109 34.3559 148.467C35.3075 145.576 33.6536 142.684 30.9782 142.247C28.7077 141.88 26.0913 143.255 25.027 145.71C23.7081 148.756 25.4077 151.927 28.2251 152.409C28.5495 152.463 29.6111 151.806 29.1929 151.734C27.3619 151.407 25.9707 149.962 25.8018 147.894C25.59 145.259 27.6059 142.507 30.1391 142.88C34.8545 143.518 34.3076 152.109 29.0883 151.715C28.7639 151.683 27.6943 152.374 28.3324 152.428H28.3297Z" fill="#212121"/>
<path d="M37.3261 110.481C39.7387 111.044 42.1781 109.498 42.7625 107.014C43.3442 104.532 41.776 102 39.2642 101.359C36.7524 100.719 34.3103 102.292 33.8224 104.848C33.3372 107.405 34.9107 109.919 37.3234 110.481H37.3261Z" fill="#54D9BF"/>
<path d="M0.855103 171.824L0.911397 127.846L0.970373 127.45C0.970373 127.45 1.35103 128.329 2.76108 128.251H66.6261C67.3553 128.251 67.9451 128.846 67.9451 129.58V176.594C67.9451 177.328 67.3553 177.923 66.6261 177.923H6.90813C3.56529 177.923 0.855103 175.192 0.855103 171.824Z" fill="white"/>
<path d="M1.31086 171.776C1.32695 158.792 1.34571 145.809 1.3618 132.825C1.3618 131.057 1.16611 129.157 1.42881 127.401C1.01331 127.514 0.597797 127.624 0.179607 127.736C0.820295 129.036 2.97826 128.728 4.21943 128.728H64.9936C66.141 128.728 67.1248 128.637 67.157 130.129C67.283 136.113 67.157 142.113 67.157 148.1V174.965C67.157 175.463 67.2588 176.085 67.157 176.575C66.8728 177.942 64.9588 177.451 63.9669 177.451H19.5718C15.3202 177.451 11.0365 177.596 6.78754 177.451C3.69937 177.347 1.40469 174.809 1.31354 171.778C1.2921 171.1 -0.0160842 171.299 0.0026807 171.878C0.123312 175.889 3.25169 178.389 7.10654 178.4C9.03129 178.405 10.9534 178.4 12.8781 178.4H65.881C66.5994 178.4 67.2803 178.357 67.8566 177.832C68.4759 177.267 68.4705 176.597 68.4705 175.852V130.459C68.4705 129.899 68.5429 129.25 68.2829 128.739C67.61 127.426 65.4628 127.779 64.2296 127.779H44.6149C30.7825 127.779 16.9233 128.036 3.09353 127.779C2.46357 127.769 1.69688 127.83 1.36716 127.166C1.13394 126.694 0.182288 127.074 0.117951 127.501C-0.0965053 128.932 0.0562948 130.464 0.0536141 131.906C0.0482527 135.409 0.045572 138.908 0.0402105 142.411C0.0294877 150.375 0.0187649 158.339 0.00804211 166.306C0.00804211 168.163 0.0026807 170.02 0 171.878C0 172.553 1.31086 172.363 1.31086 171.778V171.776Z" fill="#212121"/>
<path d="M59.2837 147.859H56.0588L53.0672 151.158C51.7134 152.653 51.7643 155.091 53.1797 156.514L55.9033 159.253H71.4461C72.0546 159.253 72.5478 158.709 72.5478 158.039V149.073C72.5478 148.403 72.0546 147.859 71.4461 147.859H59.2864H59.2837Z" fill="#D6B18D"/>
<path d="M59.7019 147.591C58.1364 147.591 56.1741 147.13 55.0348 148.384C53.3379 150.257 50.7564 152.262 51.6035 155.116C51.952 156.295 52.909 157.08 53.7427 157.919C54.2252 158.406 54.8364 159.336 55.5039 159.521C55.9838 159.652 56.6915 159.521 57.182 159.521C58.3133 159.521 59.4445 159.521 60.5758 159.521C63.2592 159.521 65.9452 159.521 68.6286 159.521C69.8081 159.521 71.942 159.875 72.8481 158.894C73.3091 158.393 73.1912 157.635 73.1912 157.005V149.593C73.1912 148.853 73.2931 147.977 72.4326 147.658C71.7168 147.392 70.6472 147.591 69.9154 147.591H59.7019C59.4204 147.591 58.2355 148.127 58.8655 148.127H68.8484C69.5293 148.127 70.3899 147.985 71.0627 148.127C71.8589 148.296 71.8884 148.915 71.8991 149.579C71.9313 151.602 71.8991 153.631 71.8991 155.657C71.8991 156.471 71.9286 157.294 71.8991 158.109C71.891 158.296 71.9741 158.723 71.9393 158.824C71.8347 159.124 72.0707 158.883 71.7007 158.988C71.1646 159.143 70.3228 158.988 69.7679 158.988C68.7788 158.988 67.7922 158.988 66.8031 158.988C64.5245 158.988 62.2432 158.988 59.9646 158.988C59.1068 158.988 58.2463 158.988 57.3884 158.988C57.0989 158.988 56.603 159.087 56.3296 158.988C56.6754 159.114 55.9033 158.42 55.78 158.294C55.335 157.846 54.89 157.399 54.4423 156.951C53.4264 155.93 52.6302 154.864 52.7428 153.328C52.9009 151.158 55.2787 149.327 56.6486 147.816C56.3135 147.92 55.9784 148.025 55.6433 148.129H58.8682C59.1497 148.129 60.3345 147.593 59.7046 147.593L59.7019 147.591Z" fill="#212121"/>
<path d="M64.3147 154.48C64.7564 152.621 63.6069 150.756 61.7473 150.314C59.8876 149.873 58.0221 151.022 57.5804 152.881C57.1388 154.74 58.2883 156.605 60.1479 157.046C62.0075 157.488 63.8731 156.339 64.3147 154.48Z" fill="#F9F9F9"/>
<path d="M65.0553 153.5C64.798 148.424 56.8068 148.85 56.839 153.792C56.8711 158.918 64.8141 158.503 65.0607 153.61C65.0902 153.001 63.782 153.224 63.7579 153.738C63.6774 155.311 62.5944 156.882 60.8332 156.691C59.273 156.525 58.1525 155.07 58.1579 153.556C58.1632 151.881 59.5599 150.321 61.3318 150.713C62.8437 151.045 63.6882 152.374 63.7632 153.848" fill="#212121"/>
</g>
<path d="M221.614 184.347C221.601 184.08 221.531 183.81 221.399 183.539C219.282 179.2 202.252 176.077 183.36 176.563C166.008 177.009 153.121 180.346 152.777 184.249C152.747 184.594 152.946 190.102 152.777 192.005C152.747 192.35 152.815 192.701 152.987 193.055C155.104 197.394 172.134 201.856 191.027 201.369C208.737 200.913 221.796 196.109 221.615 192.103C221.603 191.835 221.706 186.341 221.615 184.347H221.614Z" fill="white"/>
<path d="M188.171 201.72C180.264 201.72 172.364 200.887 165.645 199.327C158.517 197.673 153.8 195.437 152.704 193.192C152.508 192.792 152.428 192.383 152.463 191.977C152.58 190.66 152.517 187.564 152.48 185.714C152.461 184.762 152.452 184.337 152.463 184.221C152.59 182.777 154.281 180.664 161.612 178.806C167.263 177.373 174.984 176.465 183.351 176.249C192.508 176.013 201.52 176.611 208.726 177.932C216.011 179.268 220.612 181.21 221.68 183.401C221.83 183.707 221.913 184.02 221.928 184.332C221.994 185.801 221.957 189.138 221.936 190.931C221.93 191.518 221.924 192.025 221.928 192.089C221.96 192.81 221.63 193.549 220.946 194.285C217.804 197.66 206.522 201.285 191.034 201.684C190.081 201.709 189.125 201.72 188.171 201.72ZM187.261 176.827C185.969 176.827 184.67 176.844 183.368 176.878C175.047 177.091 167.376 177.992 161.768 179.415C156.405 180.775 153.242 182.547 153.09 184.277C153.082 184.37 153.095 185.017 153.109 185.702C153.146 187.564 153.209 190.681 153.09 192.032C153.065 192.323 153.125 192.621 153.269 192.917C155.3 197.077 172.232 201.54 191.018 201.055C197.99 200.875 204.609 200.017 210.159 198.573C215.14 197.276 218.904 195.557 220.486 193.856C221.051 193.249 221.325 192.663 221.301 192.118C221.297 192.041 221.301 191.697 221.31 190.925C221.33 189.138 221.366 185.812 221.301 184.362C221.291 184.137 221.229 183.907 221.118 183.678C220.153 181.701 215.595 179.832 208.614 178.553C202.474 177.427 195.009 176.83 187.262 176.83L187.261 176.827Z" fill="#212121"/>
<path d="M221.399 183.54C219.282 179.2 202.252 176.077 183.36 176.563C164.469 177.05 150.87 180.962 152.987 185.301C155.104 189.64 172.134 194.102 191.026 193.616C209.918 193.129 223.516 187.878 221.399 183.539V183.54Z" fill="#F0D6BC"/>
<path d="M188.171 193.964C180.264 193.964 172.363 193.131 165.645 191.571C158.517 189.917 153.8 187.681 152.704 185.437C152.508 185.036 152.428 184.627 152.463 184.221C152.59 182.777 154.281 180.664 161.612 178.806C167.263 177.373 174.984 176.465 183.351 176.249C192.508 176.013 201.52 176.611 208.726 177.932C216.011 179.268 220.612 181.21 221.68 183.401C221.83 183.707 221.912 184.02 221.928 184.332C221.96 185.053 221.63 185.792 220.946 186.528C217.804 189.903 206.522 193.528 191.034 193.926C190.081 193.952 189.125 193.963 188.171 193.963V193.964ZM187.261 176.829C185.969 176.829 184.67 176.845 183.368 176.879C175.047 177.093 167.376 177.994 161.767 179.416C156.405 180.776 153.242 182.548 153.09 184.278C153.065 184.568 153.125 184.866 153.269 185.163C155.3 189.323 172.229 193.784 191.018 193.301C197.99 193.121 204.609 192.262 210.158 190.818C215.14 189.521 218.904 187.802 220.486 186.101C221.051 185.494 221.325 184.909 221.301 184.363C221.291 184.138 221.229 183.908 221.118 183.68C220.153 181.703 215.595 179.834 208.614 178.554C202.474 177.428 195.009 176.831 187.262 176.831L187.261 176.829Z" fill="#212121"/>
<path d="M214.513 183.449C212.822 180.488 199.22 178.357 184.132 178.688C169.043 179.02 158.182 181.69 159.873 184.651C161.564 187.612 175.167 191.082 190.254 190.75C205.343 190.418 216.205 186.41 214.513 183.449Z" fill="#FCF8F5"/>
<path d="M228.584 171.043C228.571 170.777 228.501 170.507 228.369 170.235C226.252 165.897 209.222 162.774 190.329 163.26C172.978 163.706 160.091 167.043 159.747 170.945C159.717 171.291 159.915 176.798 159.747 178.701C159.717 179.047 159.785 179.398 159.957 179.752C162.074 184.09 179.104 188.552 197.996 188.066C215.707 187.61 228.766 182.806 228.585 178.799C228.572 178.533 228.675 173.038 228.585 171.043H228.584Z" fill="white"/>
<path d="M195.141 188.417C187.234 188.417 179.334 187.583 172.615 186.024C165.487 184.37 160.77 182.134 159.674 179.889C159.478 179.488 159.398 179.078 159.433 178.674C159.549 177.357 159.487 174.261 159.45 172.412C159.431 171.46 159.422 171.033 159.433 170.918C159.56 169.473 161.251 167.361 168.582 165.502C174.233 164.069 181.954 163.162 190.321 162.946C199.478 162.711 208.49 163.308 215.695 164.629C222.98 165.965 227.58 167.906 228.649 170.096C228.798 170.403 228.881 170.715 228.896 171.027C228.963 172.496 228.925 175.833 228.905 177.626C228.899 178.212 228.893 178.719 228.896 178.783C228.929 179.504 228.599 180.243 227.914 180.979C224.773 184.355 213.491 187.979 198.003 188.378C197.05 188.403 196.094 188.414 195.14 188.414L195.141 188.417ZM194.231 163.524C192.939 163.524 191.64 163.54 190.338 163.574C182.017 163.788 174.346 164.689 168.737 166.112C163.375 167.472 160.212 169.244 160.06 170.973C160.052 171.066 160.065 171.713 160.079 172.4C160.116 174.262 160.179 177.378 160.06 178.729C160.035 179.019 160.095 179.317 160.239 179.614C162.27 183.774 179.202 188.234 197.988 187.752C204.96 187.572 211.579 186.714 217.128 185.269C222.11 183.972 225.874 182.253 227.456 180.553C228.021 179.946 228.295 179.36 228.271 178.814C228.267 178.738 228.271 178.393 228.28 177.622C228.3 175.835 228.336 172.509 228.271 171.059C228.261 170.834 228.199 170.604 228.088 170.375C227.123 168.398 222.565 166.529 215.584 165.25C209.444 164.123 201.979 163.526 194.232 163.526L194.231 163.524Z" fill="#212121"/>
<path d="M228.369 170.237C226.252 165.897 209.222 162.774 190.329 163.26C171.438 163.746 157.84 167.659 159.957 171.997C162.074 176.337 179.104 180.799 197.996 180.312C216.887 179.826 230.486 174.575 228.369 170.235V170.237Z" fill="#F0D6BC"/>
<path d="M195.141 180.661C187.234 180.661 179.333 179.827 172.615 178.268C165.487 176.614 160.77 174.378 159.674 172.133C159.478 171.732 159.398 171.324 159.433 170.918C159.56 169.473 161.251 167.361 168.582 165.502C174.233 164.069 181.954 163.162 190.321 162.946C199.478 162.711 208.49 163.308 215.695 164.629C222.98 165.965 227.58 167.907 228.649 170.096C228.798 170.403 228.881 170.716 228.896 171.027C228.929 171.749 228.599 172.488 227.914 173.223C224.773 176.599 213.491 180.223 198.003 180.622C197.05 180.647 196.094 180.658 195.14 180.658L195.141 180.661ZM194.231 163.525C192.939 163.525 191.64 163.542 190.338 163.575C182.017 163.789 174.346 164.69 168.737 166.113C163.375 167.473 160.212 169.245 160.06 170.974C160.035 171.265 160.095 171.563 160.239 171.859C162.27 176.019 179.202 180.481 197.988 179.997C204.96 179.817 211.579 178.959 217.128 177.515C222.11 176.218 225.873 174.499 227.456 172.798C228.021 172.191 228.295 171.605 228.271 171.06C228.261 170.835 228.199 170.605 228.088 170.376C227.123 168.399 222.565 166.53 215.584 165.251C209.444 164.125 201.979 163.528 194.232 163.528L194.231 163.525Z" fill="#212121"/>
<path d="M221.483 170.146C219.792 167.185 206.189 165.054 191.102 165.386C176.013 165.717 165.151 168.387 166.843 171.348C168.534 174.309 182.136 177.779 197.224 177.447C212.313 177.115 223.174 173.107 221.483 170.146Z" fill="#FCF8F5"/>
<path d="M222.102 157.246C222.09 156.978 222.019 156.709 221.887 156.438C219.77 152.099 202.74 148.976 183.848 149.462C166.496 149.908 153.61 153.245 153.266 157.148C153.235 157.493 153.434 163.001 153.266 164.904C153.235 165.249 153.303 165.6 153.475 165.954C155.592 170.293 172.622 174.755 191.515 174.268C209.226 173.812 222.284 169.008 222.103 165.002C222.091 164.735 222.194 159.24 222.103 157.246H222.102Z" fill="white"/>
<path d="M188.659 174.62C180.753 174.62 172.852 173.787 166.133 172.227C159.005 170.573 154.289 168.337 153.193 166.093C152.997 165.692 152.916 165.283 152.952 164.877C153.068 163.56 153.006 160.465 152.968 158.615C152.949 157.662 152.94 157.237 152.952 157.121C153.078 155.677 154.77 153.565 162.1 151.706C167.752 150.273 175.473 149.366 183.839 149.149C192.996 148.913 202.008 149.511 209.213 150.832C216.498 152.168 221.099 154.11 222.167 156.3C222.317 156.606 222.4 156.919 222.415 157.231C222.481 158.7 222.444 162.037 222.424 163.83C222.417 164.417 222.411 164.924 222.415 164.988C222.447 165.709 222.117 166.448 221.433 167.184C218.291 170.559 207.009 174.184 191.521 174.583C190.568 174.608 189.612 174.619 188.658 174.619L188.659 174.62ZM187.749 149.728C186.457 149.728 185.159 149.744 183.857 149.778C175.536 149.992 167.865 150.893 162.256 152.315C156.893 153.675 153.73 155.447 153.578 157.177C153.571 157.27 153.583 157.917 153.597 158.602C153.635 160.465 153.697 163.582 153.578 164.933C153.553 165.223 153.613 165.521 153.758 165.817C155.788 169.978 172.72 174.439 191.506 173.955C198.479 173.776 205.097 172.917 210.647 171.473C215.628 170.176 219.391 168.457 220.975 166.756C221.54 166.149 221.813 165.564 221.789 165.018C221.786 164.941 221.789 164.597 221.798 163.825C221.818 162.038 221.855 158.713 221.789 157.262C221.779 157.037 221.718 156.807 221.606 156.579C220.642 154.602 216.084 152.733 209.102 151.453C202.962 150.327 195.498 149.73 187.75 149.73L187.749 149.728Z" fill="#212121"/>
<path d="M221.888 156.439C219.771 152.099 202.74 148.976 183.848 149.462C164.957 149.949 151.358 153.861 153.475 158.2C155.592 162.54 172.623 167.001 191.515 166.515C210.406 166.028 224.005 160.777 221.888 156.438V156.439Z" fill="#F0D6BC"/>
<path d="M188.659 166.864C180.753 166.864 172.851 166.031 166.133 164.471C159.005 162.817 154.289 160.582 153.193 158.337C152.997 157.936 152.916 157.527 152.952 157.121C153.078 155.677 154.77 153.565 162.1 151.706C167.752 150.273 175.473 149.366 183.839 149.149C192.996 148.913 202.008 149.511 209.213 150.832C216.498 152.168 221.099 154.11 222.167 156.3C222.317 156.606 222.4 156.919 222.415 157.231C222.447 157.952 222.117 158.691 221.433 159.427C218.291 162.802 207.009 166.427 191.521 166.825C190.568 166.851 189.612 166.862 188.658 166.862L188.659 166.864ZM187.749 149.729C186.457 149.729 185.159 149.745 183.857 149.779C175.536 149.993 167.865 150.894 162.256 152.317C156.893 153.677 153.73 155.449 153.578 157.178C153.553 157.468 153.613 157.766 153.758 158.063C155.788 162.223 172.718 166.683 191.506 166.201C198.479 166.021 205.097 165.163 210.647 163.719C215.628 162.422 219.391 160.702 220.975 159.002C221.54 158.395 221.813 157.809 221.789 157.264C221.779 157.039 221.718 156.809 221.606 156.58C220.642 154.603 216.084 152.734 209.102 151.454C202.962 150.328 195.498 149.731 187.75 149.731L187.749 149.729Z" fill="#212121"/>
<path d="M215.002 156.348C213.31 153.387 199.708 151.256 184.62 151.587C169.531 151.919 158.67 154.589 160.361 157.55C162.053 160.511 175.655 163.981 190.743 163.649C205.832 163.317 216.693 159.309 215.002 156.348Z" fill="#FCF8F5"/>
<path d="M219.06 144.799C219.047 144.533 218.977 144.263 218.845 143.991C216.728 139.653 199.698 136.529 180.806 137.016C163.454 137.462 150.567 140.799 150.223 144.701C150.193 145.047 150.392 150.554 150.223 152.457C150.193 152.803 150.261 153.153 150.433 153.508C152.55 157.846 169.58 162.308 188.473 161.822C206.183 161.366 219.242 156.562 219.061 152.555C219.049 152.287 219.152 146.794 219.061 144.799H219.06Z" fill="white"/>
<path d="M185.617 162.173C177.71 162.173 169.809 161.339 163.091 159.78C155.963 158.126 151.247 155.89 150.15 153.645C149.954 153.244 149.874 152.836 149.909 152.43C150.026 151.113 149.963 148.017 149.926 146.167C149.907 145.214 149.898 144.79 149.909 144.674C150.036 143.229 151.727 141.117 159.058 139.258C164.709 137.825 172.43 136.918 180.797 136.702C189.955 136.466 198.966 137.064 206.171 138.385C213.456 139.721 218.056 141.663 219.125 143.852C219.274 144.159 219.357 144.472 219.372 144.783C219.439 146.252 219.401 149.589 219.381 151.383C219.375 151.97 219.369 152.476 219.372 152.54C219.405 153.262 219.075 154.001 218.39 154.736C215.249 158.112 203.967 161.737 188.479 162.135C187.526 162.16 186.57 162.171 185.616 162.171L185.617 162.173ZM184.705 137.28C183.413 137.28 182.116 137.296 180.813 137.33C172.492 137.544 164.821 138.445 159.212 139.868C153.851 141.228 150.687 143 150.535 144.729C150.527 144.822 150.54 145.469 150.553 146.154C150.591 148.017 150.654 151.134 150.535 152.485C150.509 152.775 150.57 153.073 150.714 153.37C152.744 157.53 169.674 161.992 188.462 161.508C195.435 161.328 202.053 160.47 207.603 159.026C212.584 157.729 216.349 156.009 217.931 154.309C218.496 153.702 218.77 153.116 218.746 152.571C218.742 152.494 218.746 152.149 218.755 151.378C218.775 149.591 218.811 146.265 218.746 144.815C218.736 144.59 218.674 144.36 218.562 144.131C217.598 142.154 213.04 140.285 206.059 139.006C199.919 137.88 192.453 137.283 184.705 137.283V137.28Z" fill="#212121"/>
<path d="M218.845 143.992C216.728 139.653 199.698 136.529 180.805 137.016C161.914 137.502 148.316 141.415 150.433 145.753C152.55 150.093 169.58 154.555 188.472 154.068C207.363 153.582 220.962 148.331 218.845 143.991V143.992Z" fill="#F0D6BC"/>
<path d="M185.617 154.417C177.71 154.417 169.81 153.584 163.091 152.024C155.963 150.37 151.247 148.134 150.15 145.889C149.954 145.488 149.874 145.08 149.909 144.674C150.036 143.229 151.727 141.117 159.058 139.258C164.709 137.825 172.43 136.918 180.797 136.702C189.955 136.466 198.966 137.064 206.171 138.385C213.456 139.721 218.056 141.663 219.125 143.853C219.274 144.16 219.357 144.473 219.372 144.785C219.405 145.506 219.075 146.245 218.39 146.98C215.249 150.356 203.967 153.981 188.479 154.379C187.526 154.404 186.57 154.416 185.616 154.416L185.617 154.417ZM184.707 137.281C183.415 137.281 182.116 137.298 180.814 137.332C172.493 137.545 164.822 138.446 159.214 139.869C153.852 141.229 150.688 143.001 150.536 144.73C150.511 145.021 150.571 145.319 150.715 145.615C152.746 149.775 169.678 154.237 188.464 153.753C195.436 153.573 202.055 152.715 207.605 151.271C212.586 149.974 216.35 148.255 217.932 146.554C218.497 145.947 218.771 145.361 218.747 144.816C218.737 144.591 218.675 144.361 218.564 144.132C217.599 142.155 213.041 140.286 206.06 139.007C199.92 137.881 192.455 137.284 184.708 137.284L184.707 137.281Z" fill="#212121"/>
<path d="M211.959 143.902C210.268 140.941 196.665 138.809 181.578 139.141C166.489 139.473 155.627 142.142 157.319 145.103C159.01 148.065 172.612 151.535 187.7 151.203C202.789 150.871 213.651 146.863 211.959 143.902Z" fill="#FCF8F5"/>
<path d="M225.045 132.123C225.033 131.857 224.962 131.586 224.831 131.315C222.714 126.976 205.683 123.853 186.791 124.34C169.439 124.786 156.553 128.123 156.209 132.025C156.179 132.371 156.377 137.878 156.209 139.781C156.179 140.127 156.246 140.477 156.418 140.832C158.535 145.17 175.566 149.632 194.458 149.146C212.169 148.689 225.227 143.886 225.046 139.879C225.034 139.611 225.137 134.118 225.046 132.123H225.045Z" fill="white"/>
<path d="M191.603 149.496C183.696 149.496 175.795 148.663 169.076 147.103C161.948 145.449 157.232 143.213 156.136 140.969C155.94 140.568 155.86 140.159 155.895 139.753C156.012 138.436 155.949 135.34 155.911 133.49C155.892 132.538 155.883 132.113 155.895 131.997C156.022 130.553 157.713 128.441 165.043 126.582C170.695 125.149 178.416 124.241 186.782 124.025C195.94 123.79 204.951 124.387 212.156 125.708C219.441 127.044 224.042 128.986 225.111 131.177C225.26 131.483 225.343 131.796 225.358 132.108C225.424 133.577 225.387 136.914 225.367 138.708C225.36 139.294 225.354 139.801 225.358 139.865C225.391 140.586 225.06 141.325 224.376 142.061C221.234 145.437 209.952 149.061 194.464 149.46C193.511 149.485 192.556 149.496 191.601 149.496H191.603ZM190.692 124.603C189.4 124.603 188.102 124.62 186.8 124.654C178.479 124.867 170.808 125.769 165.199 127.191C159.836 128.551 156.673 130.323 156.521 132.053C156.514 132.146 156.526 132.793 156.54 133.478C156.578 135.34 156.641 138.457 156.521 139.808C156.496 140.099 156.556 140.397 156.701 140.693C158.731 144.853 175.661 149.314 194.449 148.831C201.422 148.651 208.04 147.793 213.59 146.349C218.571 145.052 222.336 143.333 223.918 141.632C224.483 141.025 224.756 140.439 224.733 139.894C224.729 139.817 224.733 139.473 224.741 138.701C224.761 136.914 224.798 133.588 224.733 132.138C224.723 131.913 224.661 131.683 224.549 131.454C223.585 129.477 219.027 127.609 212.046 126.329C205.906 125.203 198.441 124.606 190.693 124.606L190.692 124.603Z" fill="#212121"/>
<path d="M224.831 131.316C222.714 126.976 205.683 123.853 186.791 124.34C167.9 124.826 154.301 128.738 156.418 133.077C158.535 137.417 175.566 141.879 194.458 141.392C213.349 140.906 226.948 135.655 224.831 131.315V131.316Z" fill="#F0D6BC"/>
<path d="M191.603 141.74C183.696 141.74 175.794 140.907 169.076 139.347C161.948 137.693 157.232 135.457 156.136 133.213C155.94 132.812 155.86 132.403 155.895 131.997C156.022 130.553 157.713 128.441 165.043 126.582C170.695 125.149 178.416 124.241 186.782 124.025C195.941 123.79 204.951 124.387 212.156 125.708C219.441 127.044 224.042 128.986 225.11 131.177C225.26 131.483 225.343 131.796 225.358 132.108C225.391 132.829 225.06 133.568 224.376 134.304C221.234 137.679 209.952 141.304 194.464 141.703C193.511 141.728 192.556 141.739 191.601 141.739L191.603 141.74ZM190.692 124.605C189.4 124.605 188.102 124.621 186.8 124.655C178.479 124.869 170.808 125.77 165.199 127.193C159.836 128.552 156.673 130.325 156.521 132.054C156.496 132.344 156.556 132.642 156.701 132.939C158.731 137.099 175.662 141.561 194.449 141.077C201.422 140.897 208.04 140.038 213.59 138.594C218.571 137.297 222.334 135.578 223.918 133.878C224.483 133.271 224.756 132.685 224.733 132.139C224.723 131.914 224.661 131.684 224.549 131.456C223.585 129.479 219.027 127.61 212.046 126.33C205.906 125.204 198.441 124.607 190.693 124.607L190.692 124.605Z" fill="#212121"/>
<path d="M217.945 131.226C216.253 128.265 202.651 126.133 187.563 126.465C172.474 126.797 161.613 129.466 163.304 132.427C164.996 135.388 178.598 138.858 193.686 138.527C208.775 138.195 219.636 134.187 217.945 131.226Z" fill="#FCF8F5"/>
<path d="M218.618 117.664C218.605 117.396 218.535 117.127 218.403 116.855C216.286 112.517 199.256 109.394 180.364 109.88C163.012 110.326 150.125 113.663 149.781 117.566C149.751 117.911 149.95 123.419 149.781 125.321C149.751 125.667 149.819 126.018 149.991 126.372C152.108 130.711 169.138 135.172 188.031 134.686C205.741 134.23 218.8 129.426 218.619 125.419C218.607 125.153 218.71 119.658 218.619 117.664H218.618Z" fill="white"/>
<path d="M185.175 135.037C177.268 135.037 169.367 134.203 162.649 132.644C155.521 130.99 150.805 128.754 149.708 126.509C149.512 126.108 149.432 125.7 149.467 125.294C149.584 123.977 149.521 120.881 149.484 119.031C149.465 118.078 149.456 117.653 149.467 117.538C149.594 116.094 151.285 113.981 158.616 112.122C164.267 110.689 171.988 109.782 180.355 109.566C189.512 109.33 198.524 109.928 205.729 111.249C213.014 112.585 217.614 114.526 218.683 116.716C218.832 117.023 218.915 117.335 218.93 117.647C218.997 119.116 218.959 122.453 218.939 124.247C218.933 124.834 218.927 125.34 218.93 125.404C218.963 126.126 218.633 126.865 217.948 127.6C214.807 130.976 203.525 134.6 188.037 134.999C187.084 135.024 186.128 135.035 185.174 135.035L185.175 135.037ZM184.265 110.144C182.973 110.144 181.674 110.16 180.372 110.194C172.051 110.408 164.38 111.309 158.772 112.732C153.409 114.092 150.246 115.864 150.094 117.593C150.086 117.686 150.099 118.333 150.113 119.018C150.15 120.881 150.213 123.998 150.094 125.349C150.069 125.639 150.129 125.937 150.273 126.234C152.304 130.394 169.235 134.854 188.022 134.372C194.994 134.192 201.613 133.334 207.163 131.889C212.144 130.592 215.908 128.873 217.49 127.173C218.055 126.566 218.329 125.98 218.305 125.434C218.301 125.358 218.305 125.013 218.314 124.242C218.334 122.454 218.37 119.129 218.305 117.679C218.295 117.454 218.233 117.224 218.122 116.995C217.157 115.018 212.599 113.15 205.618 111.87C199.478 110.743 192.013 110.146 184.266 110.146L184.265 110.144Z" fill="#212121"/>
<path d="M218.402 116.856C216.285 112.516 199.255 109.393 180.362 109.879C161.471 110.365 147.873 114.278 149.99 118.616C152.107 122.956 169.137 127.418 188.029 126.931C206.92 126.445 220.519 121.194 218.402 116.854V116.856Z" fill="#F0D6BC"/>
<path d="M185.175 127.281C177.268 127.281 169.367 126.447 162.649 124.888C155.521 123.234 150.805 120.998 149.708 118.753C149.512 118.352 149.432 117.944 149.467 117.538C149.594 116.094 151.285 113.981 158.616 112.122C164.267 110.689 171.988 109.782 180.355 109.566C189.512 109.33 198.524 109.928 205.729 111.249C213.014 112.585 217.614 114.526 218.683 116.717C218.832 117.024 218.915 117.337 218.93 117.648C218.963 118.37 218.633 119.109 217.948 119.844C214.807 123.22 203.525 126.845 188.037 127.243C187.084 127.268 186.128 127.279 185.174 127.279L185.175 127.281ZM184.265 110.145C182.973 110.145 181.674 110.162 180.372 110.195C172.051 110.409 164.38 111.31 158.772 112.733C153.409 114.093 150.246 115.865 150.094 117.594C150.069 117.885 150.129 118.183 150.273 118.479C152.304 122.639 169.235 127.101 188.022 126.617C194.994 126.437 201.613 125.579 207.163 124.135C212.144 122.838 215.908 121.118 217.49 119.418C218.055 118.811 218.329 118.225 218.305 117.68C218.295 117.455 218.233 117.225 218.122 116.996C217.157 115.019 212.599 113.151 205.618 111.871C199.478 110.745 192.013 110.148 184.266 110.148L184.265 110.145Z" fill="#212121"/>
<path d="M211.517 116.765C209.826 113.804 196.224 111.672 181.136 112.004C166.047 112.336 155.186 115.005 156.877 117.966C158.568 120.928 172.171 124.398 187.258 124.066C202.347 123.734 213.209 119.726 211.517 116.765Z" fill="#FCF8F5"/>
<path d="M225.736 103.401C225.723 103.134 225.653 102.864 225.521 102.593C223.404 98.2541 206.374 95.1309 187.482 95.6173C170.13 96.0635 157.244 99.4003 156.9 103.303C156.869 103.648 157.068 109.156 156.9 111.059C156.869 111.404 156.937 111.755 157.109 112.109C159.226 116.448 176.256 120.91 195.149 120.423C212.859 119.967 225.918 115.163 225.737 111.157C225.725 110.889 225.828 105.395 225.737 103.401H225.736Z" fill="white"/>
<path d="M192.293 120.775C184.387 120.775 176.486 119.942 169.767 118.382C162.639 116.728 157.923 114.492 156.827 112.248C156.631 111.847 156.55 111.438 156.586 111.032C156.702 109.715 156.64 106.62 156.602 104.77C156.583 103.817 156.574 103.392 156.586 103.277C156.712 101.832 158.404 99.7198 165.734 97.8609C171.386 96.4282 179.107 95.5207 187.473 95.3046C196.63 95.0695 205.642 95.6665 212.847 96.9874C220.132 98.3234 224.733 100.265 225.801 102.456C225.951 102.763 226.034 103.075 226.049 103.387C226.115 104.856 226.078 108.193 226.057 109.987C226.051 110.574 226.045 111.08 226.049 111.144C226.081 111.866 225.751 112.605 225.067 113.34C221.925 116.716 210.643 120.34 195.155 120.739C194.202 120.764 193.246 120.775 192.292 120.775H192.293ZM191.383 95.8827C190.091 95.8827 188.793 95.899 187.491 95.933C179.169 96.1466 171.499 97.0478 165.89 98.4705C160.527 99.8304 157.364 101.602 157.212 103.332C157.205 103.425 157.217 104.072 157.231 104.757C157.269 106.62 157.331 109.737 157.212 111.088C157.187 111.378 157.247 111.676 157.392 111.973C159.422 116.133 176.356 120.594 195.14 120.11C202.112 119.931 208.731 119.072 214.281 117.628C219.262 116.331 223.026 114.612 224.608 112.911C225.174 112.304 225.447 111.719 225.423 111.173C225.42 111.097 225.423 110.752 225.432 109.98C225.452 108.193 225.489 104.868 225.423 103.417C225.413 103.192 225.352 102.962 225.24 102.734C224.276 100.757 219.718 98.8878 212.736 97.6083C206.596 96.4822 199.132 95.8852 191.384 95.8852L191.383 95.8827Z" fill="#212121"/>
<path d="M225.521 102.594C223.404 98.2541 206.374 95.1309 187.482 95.6173C168.591 96.1037 154.992 100.016 157.109 104.355C159.226 108.695 176.256 113.156 195.149 112.67C214.04 112.183 227.638 106.932 225.521 102.593V102.594Z" fill="#F0D6BC"/>
<path d="M192.293 113.019C184.387 113.019 176.485 112.186 169.767 110.626C162.639 108.973 157.923 106.737 156.827 104.492C156.631 104.091 156.55 103.683 156.586 103.277C156.712 101.832 158.404 99.7198 165.734 97.8609C171.386 96.4282 179.107 95.5207 187.473 95.3046C196.63 95.0695 205.642 95.6665 212.847 96.9874C220.132 98.3234 224.733 100.265 225.801 102.456C225.951 102.763 226.034 103.075 226.049 103.387C226.081 104.109 225.751 104.848 225.067 105.583C221.925 108.959 210.643 112.583 195.155 112.982C194.202 113.007 193.246 113.018 192.292 113.018L192.293 113.019ZM191.383 95.8839C190.091 95.8839 188.793 95.9003 187.491 95.9342C179.169 96.1479 171.499 97.049 165.89 98.4718C160.527 99.8316 157.364 101.604 157.212 103.333C157.187 103.623 157.247 103.921 157.392 104.218C159.422 108.378 176.356 112.838 195.14 112.356C202.112 112.176 208.731 111.318 214.281 109.874C219.262 108.577 223.026 106.857 224.608 105.157C225.173 104.55 225.447 103.964 225.423 103.419C225.413 103.194 225.352 102.964 225.24 102.735C224.276 100.758 219.718 98.889 212.736 97.6096C206.596 96.4835 199.132 95.8865 191.384 95.8865L191.383 95.8839Z" fill="#212121"/>
<path d="M218.635 102.503C216.944 99.5423 203.342 97.4107 188.254 97.7425C173.165 98.0743 162.304 100.744 163.995 103.705C165.686 106.666 179.289 110.136 194.377 109.804C209.466 109.472 220.327 105.464 218.635 102.503Z" fill="#FCF8F5"/>
<path d="M217.947 91.7829C217.935 91.5164 217.864 91.2462 217.733 90.9747C215.616 86.6362 198.585 83.513 179.693 83.9994C162.341 84.4455 149.455 87.7824 149.111 91.6848C149.081 92.0305 149.279 97.5379 149.111 99.4407C149.081 99.7863 149.148 100.137 149.321 100.491C151.438 104.83 168.468 109.292 187.36 108.805C205.071 108.349 218.129 103.545 217.949 99.5387C217.936 99.271 218.039 93.7775 217.949 91.7829H217.947Z" fill="white"/>
<path d="M184.505 109.156C176.598 109.156 168.697 108.323 161.979 106.763C154.85 105.109 150.134 102.873 149.038 100.629C148.842 100.228 148.762 99.8191 148.797 99.4132C148.912 98.096 148.851 95.0005 148.813 93.1517C148.794 92.199 148.786 91.7729 148.797 91.6573C148.924 90.212 150.615 88.1005 157.945 86.2417C163.597 84.8089 171.318 83.9015 179.683 83.6853C188.84 83.4503 197.852 84.0473 205.057 85.3682C212.342 86.7042 216.943 88.646 218.011 90.8354C218.161 91.142 218.244 91.4562 218.259 91.7667C218.325 93.2371 218.288 96.5778 218.268 98.3713C218.261 98.9557 218.255 99.4597 218.259 99.5225C218.291 100.244 217.961 100.983 217.277 101.718C214.135 105.094 202.853 108.719 187.365 109.117C186.412 109.142 185.456 109.154 184.502 109.154L184.505 109.156ZM183.594 84.2634C182.302 84.2634 181.004 84.2798 179.702 84.3137C171.381 84.5274 163.71 85.4285 158.101 86.8512C152.738 88.2111 149.575 89.9832 149.423 91.7126C149.416 91.8056 149.428 92.4529 149.442 93.1391C149.48 95.0017 149.543 98.1174 149.423 99.4685C149.398 99.7588 149.459 100.057 149.603 100.353C151.633 104.513 168.567 108.974 187.351 108.491C194.324 108.311 200.942 107.453 206.492 106.009C211.473 104.712 215.238 102.993 216.82 101.292C217.385 100.685 217.659 100.099 217.635 99.5539C217.631 99.4773 217.635 99.1341 217.643 98.3675C217.664 96.579 217.7 93.251 217.635 91.7981C217.625 91.5731 217.563 91.3431 217.451 91.1144C216.487 89.1374 211.929 87.2698 204.948 85.989C198.808 84.8629 191.343 84.2659 183.596 84.2659L183.594 84.2634Z" fill="#212121"/>
<path d="M217.731 90.9748C215.614 86.635 198.584 83.5118 179.692 83.9982C160.801 84.4846 147.202 88.3971 149.319 92.7356C151.436 97.0754 168.466 101.537 187.359 101.051C206.25 100.564 219.848 95.3134 217.731 90.9736V90.9748Z" fill="#F0D6BC"/>
<path d="M184.505 101.4C176.598 101.4 168.696 100.567 161.979 99.0072C154.85 97.3532 150.134 95.1174 149.038 92.8727C148.842 92.4717 148.762 92.0633 148.797 91.6573C148.924 90.2132 150.615 88.1005 157.945 86.2417C163.597 84.8089 171.318 83.9015 179.683 83.6853C188.842 83.4503 197.852 84.0473 205.057 85.3682C212.342 86.7042 216.943 88.646 218.011 90.8366C218.161 91.1433 218.244 91.4575 218.259 91.7679C218.291 92.4893 217.961 93.2284 217.277 93.9636C214.135 97.3394 202.853 100.964 187.365 101.363C186.412 101.388 185.456 101.399 184.502 101.399L184.505 101.4ZM183.594 84.2647C182.302 84.2647 181.004 84.281 179.702 84.315C171.381 84.5286 163.71 85.4298 158.101 86.8525C152.738 88.2124 149.575 89.9845 149.423 91.7139C149.398 92.0042 149.459 92.3021 149.603 92.5987C151.633 96.7588 168.566 101.22 187.351 100.737C194.324 100.557 200.942 99.6985 206.492 98.2544C211.473 96.9573 215.238 95.238 216.82 93.5375C217.385 92.9305 217.659 92.3448 217.635 91.7993C217.625 91.5744 217.563 91.3444 217.451 91.1156C216.487 89.1386 211.929 87.2698 204.948 85.9903C198.808 84.8642 191.343 84.2672 183.596 84.2672L183.594 84.2647Z" fill="#212121"/>
<path d="M210.847 90.8842C209.156 87.9232 195.553 85.7916 180.465 86.1234C165.376 86.4552 154.515 89.1247 156.207 92.0858C157.898 95.0468 171.5 98.5169 186.588 98.1851C201.677 97.8533 212.538 93.8453 210.847 90.8842Z" fill="#FCF8F5"/>
<path d="M225.97 77.1938C225.957 76.9273 225.887 76.6571 225.755 76.3856C223.638 72.0471 206.608 68.9239 187.715 69.4103C170.364 69.8564 157.477 73.1933 157.133 77.0957C157.103 77.4414 157.301 82.9488 157.133 84.8516C157.103 85.1972 157.171 85.5479 157.343 85.9023C159.46 90.2408 176.49 94.7026 195.382 94.2162C213.093 93.7599 226.152 88.9564 225.971 84.9496C225.958 84.6819 226.061 79.1883 225.971 77.1938H225.97Z" fill="white"/>
<path d="M192.526 94.5669C184.619 94.5669 176.718 93.7337 170 92.1739C162.871 90.52 158.155 88.2841 157.059 86.0394C156.863 85.6385 156.783 85.23 156.818 84.824C156.933 83.5069 156.872 80.4114 156.834 78.5626C156.815 77.6099 156.807 77.1838 156.818 77.0682C156.945 75.6229 158.636 73.5114 165.966 71.6526C171.618 70.2198 179.339 69.3124 187.705 69.0962C196.863 68.8612 205.874 69.4581 213.079 70.7791C220.364 72.1151 224.965 74.0569 226.034 76.2475C226.183 76.5542 226.266 76.8671 226.281 77.1788C226.347 78.6493 226.31 81.9899 226.29 83.7834C226.283 84.3678 226.277 84.8718 226.281 84.9346C226.314 85.6561 225.983 86.3951 225.299 87.1303C222.157 90.5061 210.876 94.1308 195.387 94.5292C194.434 94.5544 193.479 94.5657 192.524 94.5657L192.526 94.5669ZM191.615 69.6756C190.323 69.6756 189.025 69.6919 187.723 69.7259C179.402 69.9395 171.731 70.8406 166.122 72.2634C160.759 73.6232 157.596 75.3954 157.444 77.1248C157.437 77.2178 157.449 77.865 157.463 78.5513C157.501 80.4139 157.564 83.5295 157.444 84.8806C157.419 85.1709 157.48 85.4688 157.624 85.7654C159.654 89.9255 176.588 94.3872 195.372 93.9033C202.345 93.7236 208.963 92.8652 214.513 91.4211C219.494 90.1241 223.259 88.4047 224.841 86.7043C225.406 86.0972 225.68 85.5115 225.656 84.9661C225.652 84.8894 225.656 84.5463 225.664 83.7796C225.685 81.9912 225.721 78.6631 225.656 77.2102C225.646 76.9853 225.584 76.7553 225.472 76.5265C224.508 74.5495 219.95 72.6806 212.969 71.4012C206.829 70.2751 199.364 69.6781 191.617 69.6781L191.615 69.6756Z" fill="#212121"/>
<path d="M225.754 76.3869C223.637 72.0471 206.606 68.9239 187.714 69.4103C168.823 69.8967 155.224 73.8091 157.341 78.1477C159.458 82.4875 176.489 86.9492 195.381 86.4628C214.272 85.9764 227.871 80.7254 225.754 76.3856V76.3869Z" fill="#F0D6BC"/>
<path d="M192.53 86.8112C184.623 86.8112 176.723 85.9779 170.004 84.4182C162.876 82.7642 158.16 80.5283 157.063 78.2836C156.868 77.8827 156.787 77.4742 156.822 77.0683C156.949 75.6229 158.641 73.5115 165.971 71.6526C171.623 70.2198 179.343 69.3124 187.71 69.0962C196.867 68.8612 205.879 69.4582 213.084 70.7791C220.369 72.1151 224.97 74.0569 226.038 76.2476C226.188 76.5542 226.27 76.8684 226.285 77.1789C226.318 77.9003 225.988 78.6393 225.304 79.3745C222.163 82.7504 210.88 86.375 195.392 86.7735C194.439 86.7986 193.483 86.8099 192.529 86.8099L192.53 86.8112ZM191.62 69.6756C190.328 69.6756 189.029 69.692 187.727 69.7259C179.406 69.9396 171.736 70.8407 166.127 72.2634C160.764 73.6233 157.601 75.3954 157.449 77.1248C157.424 77.4152 157.484 77.713 157.628 78.0096C159.659 82.1697 176.589 86.6314 195.377 86.1476C202.349 85.9678 208.968 85.1094 214.518 83.6653C219.499 82.3683 223.263 80.649 224.845 78.9485C225.41 78.3414 225.684 77.7558 225.66 77.2103C225.65 76.9853 225.589 76.7553 225.477 76.5266C224.513 74.5496 219.955 72.6807 212.973 71.4013C206.833 70.2751 199.368 69.6782 191.621 69.6782L191.62 69.6756Z" fill="#212121"/>
<path d="M218.869 76.2963C217.178 73.3353 203.575 71.2037 188.488 71.5355C173.399 71.8673 162.537 74.5368 164.229 77.4979C165.92 80.4589 179.522 83.929 194.61 83.5972C209.699 83.2654 220.56 79.2574 218.869 76.2963Z" fill="#FCF8F5"/>
<path d="M186.405 79.9412C204.689 79.9412 219.511 65.1073 219.511 46.8089C219.511 28.5104 204.689 13.6765 186.405 13.6765C168.121 13.6765 153.299 28.5104 153.299 46.8089C153.299 65.1073 168.121 79.9412 186.405 79.9412Z" fill="#F0D6BC"/>
<path d="M186.378 80.273C181.398 80.273 176.444 79.1456 171.83 76.9072C163.797 73.0111 157.761 66.2167 154.834 57.7771C151.907 49.3376 152.438 40.2608 156.331 32.2222C160.223 24.1823 167.013 18.1407 175.445 15.2111C183.878 12.2814 192.947 12.8131 200.98 16.7092C209.014 20.6054 215.049 27.3998 217.978 35.8393C220.905 44.2789 220.373 53.3556 216.481 61.3943C212.588 69.4342 205.799 75.4757 197.366 78.4054C193.776 79.6521 190.071 80.2718 186.38 80.273H186.378ZM186.431 13.9731C182.808 13.9731 179.173 14.5814 175.651 15.8056C167.377 18.6799 160.716 24.6084 156.896 32.4974C153.076 40.3865 152.554 49.2911 155.427 57.5723C158.3 65.8535 164.223 72.5197 172.104 76.3429C179.987 80.1662 188.885 80.6878 197.159 77.8134C205.434 74.9391 212.095 69.0106 215.915 61.1216C219.734 53.2325 220.257 44.3279 217.384 36.0467C214.511 27.7655 208.588 21.0993 200.706 17.276C196.18 15.0804 191.318 13.9731 186.432 13.9731H186.431Z" fill="#212121"/>
<path d="M190.654 80.2792C208.938 80.2792 223.76 65.4454 223.76 47.1469C223.76 28.8484 208.938 14.0145 190.654 14.0145C172.37 14.0145 157.548 28.8484 157.548 47.1469C157.548 65.4454 172.37 80.2792 190.654 80.2792Z" fill="white"/>
<path d="M190.627 80.6109C185.648 80.6109 180.693 79.4835 176.08 77.2451C168.046 73.349 162.01 66.5546 159.082 58.115C156.155 49.6755 156.686 40.5987 160.579 32.5601C164.471 24.5202 171.26 18.4786 179.693 15.549C188.126 12.6193 197.194 13.151 205.228 17.0471C213.262 20.9433 219.297 27.7376 222.224 36.1772C225.151 44.6168 224.62 53.6935 220.728 61.7322C216.835 69.7721 210.046 75.8136 201.613 78.7433C198.023 79.99 194.318 80.6109 190.626 80.6109H190.627ZM190.68 14.311C187.058 14.311 183.423 14.9193 179.901 16.1435C171.626 19.0178 164.965 24.9462 161.145 32.8341C157.325 40.7231 156.803 49.6277 159.676 57.9089C162.549 66.1901 168.472 72.8563 176.353 76.6796C184.236 80.5028 193.134 81.0244 201.408 78.15C209.683 75.2757 216.344 69.3473 220.164 61.4582C223.983 53.5691 224.506 44.6645 221.633 36.3833C218.76 28.1021 212.837 21.4359 204.956 17.6127C200.429 15.417 195.567 14.3098 190.681 14.3098L190.68 14.311Z" fill="#212121"/>
<path d="M190.627 80.6109C185.648 80.6109 180.693 79.4835 176.08 77.2451C168.046 73.349 162.01 66.5546 159.082 58.115C156.155 49.6755 156.686 40.5987 160.579 32.5601C164.471 24.5202 171.26 18.4786 179.693 15.549C188.126 12.6193 197.194 13.151 205.228 17.0471C213.262 20.9433 219.297 27.7376 222.224 36.1772C225.151 44.6168 224.62 53.6935 220.728 61.7322C216.835 69.7721 210.046 75.8136 201.613 78.7433C198.023 79.99 194.318 80.6109 190.626 80.6109H190.627ZM190.68 14.311C187.058 14.311 183.423 14.9193 179.901 16.1435C171.626 19.0178 164.965 24.9462 161.145 32.8341C157.325 40.7231 156.803 49.6277 159.676 57.9089C162.549 66.1901 168.472 72.8563 176.353 76.6796C184.236 80.5028 193.134 81.0244 201.408 78.15C209.683 75.2757 216.344 69.3473 220.164 61.4582C223.983 53.5691 224.506 44.6645 221.633 36.3833C218.76 28.1021 212.837 21.4359 204.956 17.6127C200.429 15.417 195.567 14.3098 190.681 14.3098L190.68 14.311Z" fill="#212121"/>
<path d="M190.654 73.6106C205.257 73.6106 217.095 61.7625 217.095 47.147C217.095 32.5315 205.257 20.6833 190.654 20.6833C176.051 20.6833 164.213 32.5315 164.213 47.147C164.213 61.7625 176.051 73.6106 190.654 73.6106Z" fill="#F0D6BC"/>
<path d="M206.486 13.4026C206.464 13.4026 206.443 13.4001 206.42 13.3963C206.251 13.3611 206.142 13.194 206.178 13.0243C207.118 8.55003 207.706 5.35016 208.31 0.277632C208.33 0.105448 208.486 -0.0189775 208.659 0.00238848C208.831 0.0224976 208.954 0.1796 208.934 0.351785C208.326 5.44819 207.736 8.66189 206.792 13.1538C206.761 13.3021 206.63 13.4039 206.486 13.4039V13.4026Z" fill="#212121"/>
<path d="M211.336 14.7387C211.258 14.7387 211.179 14.7098 211.118 14.6507C210.993 14.5301 210.99 14.3315 211.11 14.2058C212.926 12.3206 214.175 10.9129 215.383 9.5518C216.595 8.18563 217.848 6.77422 219.674 4.87893C219.794 4.7545 219.992 4.75073 220.118 4.87139C220.242 4.99204 220.246 5.19062 220.126 5.3163C218.31 7.20154 217.061 8.60918 215.853 9.97032C214.641 11.3365 213.388 12.7479 211.562 14.6432C211.501 14.7073 211.419 14.7387 211.336 14.7387Z" fill="#212121"/>
<path d="M215.187 18.1858C215.069 18.1858 214.957 18.1192 214.903 18.0061C214.829 17.849 214.896 17.6617 215.053 17.5876L223.172 13.7316C223.329 13.6575 223.516 13.7241 223.59 13.8812C223.664 14.0383 223.597 14.2256 223.44 14.2997L215.321 18.1557C215.277 18.1758 215.232 18.1858 215.187 18.1858Z" fill="#212121"/>
<defs>
<clipPath id="clip0_958_3379">
<rect width="186.4" height="168" fill="white" transform="translate(0 10.4)"/>
</clipPath>
</defs>
</svg>
