<svg width="171" height="175" viewBox="0 0 171 175" fill="none" xmlns="http://www.w3.org/2000/svg">
<g clip-path="url(#clip0_958_3592)">
<path d="M56.4845 75.0519C54.5862 78.3522 51.074 81.0529 50.6341 85.0215C50.2665 88.3398 52.6531 92.5294 56.0784 93.4154C59.8298 94.3847 60.687 90.5502 62.0968 87.8608C64.3932 83.483 66.446 79.458 69.604 75.7463C72.5174 72.3231 72.5061 67.8867 72.5659 63.5517C72.7226 54.5605 70.3552 45.7023 68.3972 37.0131C68.2427 36.3244 68.0227 35.5501 67.3923 35.2334C66.8103 34.9403 66.0738 35.1759 65.6023 35.6256C65.1308 36.0753 66.7787 36.826 66.5407 37.4313C64.1699 43.4514 62.2874 50.0993 61.1517 56.4507C59.9663 63.0839 59.9956 68.9485 56.4834 75.0531L56.4845 75.0519Z" fill="#9DE9DB"/>
<path d="M57.204 94.1322C56.816 94.1322 56.3965 94.0781 55.9385 93.9598C52.1206 92.9724 49.6934 88.3939 50.0747 84.9584C50.3837 82.1744 52.0902 80.0125 53.7403 77.9228C54.5806 76.8588 55.3746 75.8533 55.9972 74.7702C58.6105 70.2266 59.2297 65.7609 59.885 61.0325C60.0948 59.5188 60.3113 57.9532 60.599 56.3493C61.7438 49.9493 63.6059 43.3646 65.9869 37.3028C65.9192 37.1935 65.7297 37.0064 65.6101 36.888C65.2864 36.5679 64.9515 36.2365 64.9548 35.7992C64.9571 35.5805 65.0485 35.3731 65.2143 35.2153C65.9068 34.5548 66.9072 34.3542 67.6471 34.7273C68.5663 35.1905 68.8145 36.294 68.9487 36.8869C69.1968 37.987 69.4562 39.1107 69.7066 40.1973C71.4582 47.7886 73.2696 55.6392 73.1309 63.5585L73.1264 63.8696C73.0688 68.1685 73.0091 72.6128 70.0348 76.1092C67.0561 79.6101 65.0361 83.4649 62.8987 87.5452L62.5976 88.12C62.3585 88.5754 62.1385 89.0601 61.905 89.5729C60.9689 91.6322 59.8331 94.1311 57.2029 94.1311L57.204 94.1322ZM66.1921 35.8736C66.2587 35.9457 66.3388 36.0246 66.403 36.0877C66.7899 36.4698 67.32 36.994 67.0674 37.6364C64.6977 43.652 62.8446 50.1917 61.7088 56.5488C61.4257 58.1313 61.2103 59.6856 61.0016 61.1892C60.3305 66.0292 59.6978 70.6009 56.9739 75.3337C56.3096 76.4879 55.4535 77.5722 54.6246 78.6216C53.0015 80.6775 51.4687 82.6196 51.1947 85.0835C50.801 88.6351 53.5722 92.1856 56.2205 92.8698C58.6804 93.5055 59.6211 91.8734 60.8775 89.1097C61.1065 88.6047 61.3445 88.0828 61.5983 87.5993L61.8994 87.0245C64.0672 82.8867 66.1143 78.9778 69.1754 75.3799C71.8868 72.1935 71.9432 67.9543 71.9985 63.856L72.003 63.5427C72.1395 55.7586 70.3439 47.9768 68.6069 40.452C68.3554 39.3643 68.096 38.2395 67.8479 37.136C67.7193 36.5668 67.5479 35.9412 67.1396 35.7349C66.8519 35.5907 66.482 35.6853 66.1921 35.8736Z" fill="#9DE9DB"/>
<path d="M104.362 21.3402C104.9 24.4568 104.994 27.7615 105.221 30.6718C105.712 36.9478 104.978 43.4345 104.657 49.7048C104.491 52.9712 103.601 56.1126 103.764 59.4106C103.939 62.9284 105.982 66.5691 108.114 69.3137C109.118 70.6054 110.269 71.8148 110.957 73.2992C113.799 79.4241 104.189 84.6135 100.162 87.3096L100.157 87.313C96.1961 89.9607 91.4443 91.1498 86.732 91.453C78.3575 91.9918 60.9678 88.4345 60.979 87.8732C60.9903 87.3694 59.6583 73.4176 59.9572 73.0107C69.6716 59.7521 64.1946 48.8008 64.2646 33.8335C64.3243 21.3278 66.2011 5.74844 80.6843 2.73784C90.1867 0.763088 98.4135 7.67022 102.57 15.6278C103.465 17.3434 104.008 19.3023 104.361 21.3413L104.362 21.3402Z" fill="#E3F6F2"/>
<path d="M84.836 92.0707C80.2151 92.0707 74.3264 91.2343 70.9665 90.6865C68.4727 90.2808 66.0139 89.813 64.0424 89.3712C61.0005 88.6893 60.7478 88.448 60.6125 88.3184C60.4828 88.1933 60.4128 88.031 60.4162 87.8597C60.4151 87.6985 60.2933 86.2873 60.1658 84.7938C59.1654 73.1369 59.285 72.9724 59.5026 72.6759C66.3771 63.2936 65.503 55.1049 64.4913 45.6222C64.0931 41.8937 63.6814 38.0377 63.7017 33.8289C63.7536 22.8799 65.3473 17.5643 66.5418 14.5176C67.7937 11.3244 69.5058 8.69253 71.6319 6.69523C74.0388 4.43418 77.0457 2.91705 80.5704 2.1844C85.1 1.24324 89.7243 2.21146 93.9426 4.98535C97.5834 7.37828 100.825 11.0652 103.071 15.3652C103.906 16.9658 104.51 18.8887 104.917 21.2433C105.321 23.5843 105.475 25.9863 105.624 28.3093C105.676 29.1164 105.724 29.8783 105.783 30.6256C106.155 35.3855 105.827 40.2931 105.51 45.0406C105.406 46.5837 105.3 48.1797 105.221 49.7307C105.153 51.0878 104.959 52.4336 104.773 53.7343C104.496 55.6606 104.235 57.4809 104.329 59.379C104.521 63.2271 107.063 67.0368 108.561 68.9642C108.796 69.2652 109.044 69.5695 109.284 69.8637C110.086 70.8455 110.915 71.8621 111.47 73.058C114.212 78.9665 106.535 83.882 101.948 86.8193C101.414 87.162 100.908 87.4855 100.478 87.774L100.472 87.7774C96.7905 90.2379 92.1808 91.6627 86.7692 92.0109C86.1602 92.0504 85.5116 92.0684 84.836 92.0684V92.0707ZM61.5272 87.5486C62.4938 87.9149 66.4312 88.8155 71.4345 89.6214C75.1656 90.2222 82.1088 91.1847 86.6971 90.8894C91.9067 90.5535 96.3303 89.192 99.8448 86.843C99.8448 86.843 99.8493 86.8396 99.8516 86.8385C100.291 86.5443 100.8 86.2186 101.339 85.8725C103.51 84.4827 106.482 82.579 108.52 80.4093C110.825 77.9555 111.454 75.7068 110.447 73.5348C109.952 72.4674 109.203 71.5499 108.41 70.5794C108.165 70.2796 107.913 69.9708 107.67 69.6586C106.09 67.6252 103.409 63.5945 103.203 59.4376C103.102 57.4302 103.384 55.4712 103.656 53.5765C103.839 52.3006 104.028 50.9818 104.096 49.6754C104.176 48.1155 104.282 46.5149 104.386 44.9674C104.7 40.2604 105.025 35.3934 104.66 30.7158C104.601 29.9595 104.551 29.1941 104.5 28.3837C104.353 26.09 104.201 23.7185 103.807 21.4371C103.42 19.1986 102.853 17.3839 102.072 15.8882C99.9136 11.755 96.8074 8.218 93.3245 5.92765C89.3611 3.32169 85.03 2.40983 80.8016 3.289C77.4834 3.97882 74.6591 5.40127 72.4056 7.51804C70.4025 9.39925 68.7829 11.8936 67.5929 14.9301C65.168 21.1148 64.8556 28.6824 64.8308 33.8357C64.8116 37.9825 65.2188 41.8057 65.6135 45.505C66.1233 50.2875 66.6061 54.8039 66.0737 59.3429C65.4793 64.4061 63.7029 68.8267 60.4839 73.2485C60.397 74.2832 60.9982 81.2873 61.2903 84.7003C61.4268 86.2851 61.4979 87.1293 61.5283 87.5508L61.5272 87.5486ZM61.5441 87.8743C61.5441 87.8743 61.5441 87.88 61.5441 87.8822C61.5441 87.88 61.5441 87.8777 61.5441 87.8743Z" fill="#9DE9DB"/>
<path d="M75.3833 39.1558C76.0364 38.5629 75.5739 37.4256 74.5803 37.5744C73.2855 37.7672 73.6419 40.0654 75.1239 39.3316C75.2243 39.2821 75.3111 39.2223 75.3833 39.1569V39.1558Z" fill="#9DE9DB"/>
<path d="M74.5758 40.0372C74.2679 40.0372 73.9825 39.9392 73.7468 39.7431C73.2979 39.3711 73.1107 38.7083 73.2821 38.094C73.4456 37.5079 73.9002 37.1044 74.498 37.0154C75.1893 36.9117 75.821 37.2352 76.1063 37.8382C76.3883 38.4322 76.2507 39.1288 75.7634 39.5717C75.6506 39.6743 75.5198 39.7633 75.3743 39.8344C75.1025 39.9696 74.8318 40.0361 74.5769 40.0361L74.5758 40.0372ZM74.7529 38.1234C74.7247 38.1234 74.6953 38.1256 74.6626 38.1301C74.5634 38.1448 74.4258 38.1887 74.3671 38.3961C74.3118 38.5956 74.3739 38.7996 74.4641 38.874C74.5679 38.9597 74.7833 38.8684 74.8713 38.8244C74.922 38.7996 74.966 38.7703 75.0021 38.7376C75.1465 38.6058 75.1397 38.4356 75.0845 38.3206C75.0472 38.2428 74.957 38.1234 74.7517 38.1234H74.7529Z" fill="#9DE9DB"/>
<path d="M94.1751 39.6213C94.8281 39.0284 94.3657 37.8912 93.372 38.0399C92.0772 38.2327 92.4336 40.5309 93.9157 39.7972C94.016 39.7476 94.1029 39.6878 94.1751 39.6225V39.6213Z" fill="#9DE9DB"/>
<path d="M93.3675 40.5028C93.0596 40.5028 92.7743 40.4047 92.5385 40.2086C92.0896 39.8366 91.9024 39.1739 92.0738 38.5596C92.2374 37.9734 92.6919 37.5699 93.2897 37.4809C93.98 37.3772 94.6127 37.7007 94.8981 38.3037C95.18 38.8977 95.0424 39.5954 94.5552 40.0372C94.4424 40.1398 94.3116 40.2289 94.1672 40.2999C93.8942 40.4351 93.6247 40.5016 93.3698 40.5016L93.3675 40.5028ZM93.5446 38.5889C93.5164 38.5889 93.4871 38.5911 93.4544 38.5956C93.3551 38.6103 93.2175 38.6542 93.1589 38.8616C93.1036 39.0611 93.1656 39.2651 93.2559 39.3395C93.3596 39.4252 93.575 39.3339 93.663 39.2899C93.7138 39.2651 93.7578 39.2358 93.7939 39.2032C93.9382 39.0713 93.9315 38.9022 93.8762 38.7861C93.839 38.7083 93.7487 38.5889 93.5435 38.5889H93.5446Z" fill="#9DE9DB"/>
<path d="M17.4834 132.137C13.7952 121.258 27.2384 83.0964 59.9584 73.0096C68.4886 78.7591 79.4584 80.6899 86.6904 80.5028C102.617 80.0914 111.418 74.6439 111.419 74.6439C135.916 75.5513 157.531 113.158 156.581 131.739C147.339 147.809 69.921 149.02 36.7905 142.905C29.2641 141.516 19.9388 139.38 17.4834 132.136V132.137Z" fill="#E3F6F2"/>
<path d="M83.4251 146.877C65.8865 146.877 48.6795 145.673 36.6878 143.46C32.7132 142.727 28.5456 141.828 25.0029 140.231C20.7362 138.308 18.1014 135.72 16.9487 132.319C15.0764 126.795 17.5025 115.637 22.8476 105.185C26.5572 97.9307 31.4951 91.2727 37.1255 85.9311C43.8296 79.5707 51.4552 75.0418 59.7914 72.4719C59.9538 72.4212 60.1309 72.4482 60.273 72.5429C64.092 75.1162 68.8201 77.1541 73.9475 78.4356C78.2335 79.5064 82.7529 80.0418 86.6757 79.9392C94.8156 79.7285 101.031 78.1685 104.813 76.8959C108.896 75.5231 111.033 74.219 111.123 74.1637C111.217 74.1051 111.329 74.0747 111.439 74.0803C116.077 74.2517 120.818 75.7203 125.53 78.4446C129.8 80.9131 133.985 84.3689 137.967 88.7163C143.616 94.8806 148.674 102.706 152.213 110.753C155.681 118.64 157.431 126.102 157.143 131.768C157.138 131.857 157.112 131.942 157.068 132.02C151.379 141.912 122.428 145.152 105.678 146.203C98.4542 146.656 90.9086 146.876 83.4251 146.876V146.877ZM59.8681 73.6284C51.7992 76.1599 44.4105 80.5727 37.9026 86.7483C32.3635 92.0042 27.5046 98.5562 23.8525 105.698C21.1862 110.912 19.2361 116.27 18.2142 121.194C17.2724 125.731 17.2025 129.553 18.018 131.957C20.3245 138.76 28.9697 140.889 36.8931 142.351C53.9196 145.494 81.5348 146.589 105.608 145.079C118.641 144.261 130.009 142.704 138.486 140.577C147.972 138.197 153.871 135.168 156.024 131.575C156.27 126.098 154.552 118.873 151.182 111.207C147.692 103.271 142.703 95.5547 137.136 89.4782C126.793 78.1899 117.549 75.4791 111.564 75.2142C110.294 75.9548 101.63 80.6809 86.705 81.0664C82.6852 81.1701 78.0564 80.6245 73.6745 79.529C68.5212 78.2406 63.7548 76.2027 59.8692 73.6272L59.8681 73.6284Z" fill="#9DE9DB"/>
<path d="M97.65 2.46507C102.915 3.76466 106.956 7.93058 108.479 13.0816C110.458 19.7769 108.283 26.8373 103.351 31.6321C102 28.0298 99.3305 25.2672 96.3112 22.8799C92.2316 19.6551 87.0715 17.2025 87.04 11.5239C87.0242 8.75678 88.1487 5.82395 90.1811 3.91232C92.1797 2.03337 94.9261 1.79103 97.65 2.46394V2.46507Z" fill="#9DE9DB"/>
<path d="M103.351 32.1957C103.311 32.1957 103.269 32.1912 103.228 32.1822C103.042 32.1405 102.89 32.0086 102.824 31.8305C101.702 28.8402 99.5222 26.1373 95.9615 23.3228C95.2239 22.7401 94.4343 22.1709 93.6708 21.6197C90.1473 19.0792 86.5042 16.4529 86.476 11.5284C86.4591 8.51895 87.7302 5.4441 89.7954 3.50316C91.7556 1.66029 94.5189 1.11137 97.7853 1.9184C103.096 3.22927 107.401 7.44591 109.02 12.9227C111.001 19.6236 108.98 26.9477 103.745 32.0368C103.639 32.1405 103.497 32.1968 103.351 32.1968V32.1957ZM95.0028 2.68711C93.4937 2.68711 91.8887 3.08161 90.568 4.32372C88.7239 6.05727 87.5892 8.81539 87.6039 11.5217C87.6287 15.8736 90.8838 18.2214 94.3306 20.7056C95.1043 21.2636 95.9051 21.8407 96.6619 22.4392C100.073 25.1353 102.283 27.7582 103.551 30.6279C108.042 25.8668 109.724 19.2809 107.939 13.2417C106.433 8.14812 102.439 4.22792 97.5157 3.01286C96.7668 2.82801 95.9029 2.68824 95.0039 2.68824L95.0028 2.68711Z" fill="#9DE9DB"/>
<path d="M71.218 4.63256C69.9559 5.523 68.7942 6.50925 67.7746 7.53721C61.6829 13.6835 60.4501 23.6723 64.5973 31.232C64.2421 30.5839 66.1685 27.5485 66.5508 26.9139C67.4137 25.4858 68.4637 24.1648 69.6965 23.0366C72.4564 20.5072 75.5288 19.9335 78.9553 18.8413C82.0514 17.8551 84.9974 15.6177 86.9407 13.0377C87.8679 11.8068 88.6179 10.443 89.4762 9.19073C90.2703 8.03202 90.7992 7.00745 90.5906 5.62445C90.3481 4.0194 89.307 2.67922 87.975 1.85528C86.6418 1.03134 85.0391 0.683052 83.4274 0.586117C79.2125 0.334764 74.8115 2.09536 71.218 4.63143V4.63256Z" fill="#9DE9DB"/>
<path d="M64.5985 31.7967C64.3989 31.7967 64.206 31.6908 64.1034 31.5036C59.7937 23.6475 61.1698 13.4017 67.3742 7.14045C68.4367 6.06853 69.621 5.06876 70.8921 4.17155C75.0179 1.26014 79.481 -0.213033 83.4613 0.024794C85.3877 0.139763 87.0062 0.595128 88.2717 1.37737C89.8473 2.35122 90.8963 3.86948 91.1489 5.54216C91.4004 7.21146 90.691 8.4175 89.9421 9.51083C89.5992 10.0113 89.2654 10.5433 88.9417 11.0595C88.4578 11.8316 87.957 12.6296 87.3919 13.3792C85.3031 16.1531 82.2138 18.3972 79.1279 19.3812C78.5482 19.5661 77.9752 19.7374 77.4226 19.902C74.6638 20.7259 72.2806 21.4371 70.0789 23.4547C68.9251 24.512 67.901 25.7744 67.0348 27.2081C67.0043 27.2588 66.9637 27.3253 66.9141 27.4054C65.2922 30.0496 65.1106 30.8059 65.1174 31.0156C65.229 31.2793 65.1253 31.5893 64.8692 31.7291C64.7835 31.7764 64.6899 31.799 64.5985 31.799V31.7967ZM71.544 5.09356C70.3259 5.95357 69.1935 6.90938 68.1762 7.93508C62.6687 13.4919 61.1912 22.3749 64.4113 29.5898C64.7158 28.9236 65.2065 28.0332 65.9531 26.8159C66.0005 26.7392 66.04 26.675 66.0693 26.6254C66.9908 25.1003 68.0837 23.7534 69.3165 22.624C71.7087 20.4317 74.3277 19.6495 77.0989 18.8222C77.647 18.6587 78.2144 18.4897 78.7851 18.3071C81.6567 17.3918 84.5373 15.2965 86.4908 12.7018C87.0265 11.9905 87.5138 11.2128 87.9863 10.461C88.3157 9.93576 88.6563 9.39361 89.0116 8.87512C89.809 7.71191 90.2083 6.86317 90.0335 5.71123C89.8304 4.36655 88.9721 3.13684 87.6784 2.33769C86.5731 1.65464 85.1317 1.25563 83.3936 1.15194C79.6693 0.928763 75.4601 2.3298 71.5429 5.09468L71.544 5.09356Z" fill="#9DE9DB"/>
<path d="M104.981 42.3817C102.789 55.6673 96.9022 91.0123 103.904 99.361C109.954 106.575 121.242 108.754 129.547 104.31C123.867 99.352 121.699 91.5589 120.273 84.1581C118.692 75.948 117.006 69.4985 112.642 62.4764C109.35 57.1788 106.092 48.5799 104.981 42.3817Z" fill="#9DE9DB"/>
<path d="M120.074 107.176C113.814 107.176 107.516 104.544 103.472 99.7228C101.783 97.7086 100.701 94.0804 100.255 88.9395C99.8878 84.6856 99.9408 79.2877 100.416 72.8946C101.268 61.4079 103.294 49.1333 104.384 42.5384L104.425 42.2893C104.47 42.0188 104.703 41.8193 104.978 41.817H104.982C105.255 41.817 105.489 42.012 105.537 42.2814C106.643 48.4457 109.903 56.9996 113.122 62.1788C117.355 68.9902 119.153 75.3563 120.828 84.0511C121.427 87.1586 122.31 91.2039 123.837 94.9359C125.398 98.7479 127.387 101.675 129.919 103.885C130.059 104.007 130.129 104.19 130.108 104.373C130.087 104.557 129.977 104.719 129.814 104.806C126.819 106.408 123.452 107.174 120.075 107.174L120.074 107.176ZM105.058 45.3889C103.932 52.2938 102.286 62.9464 101.541 72.978C100.515 86.808 101.456 95.5626 104.337 98.9981C107.181 102.389 111.318 104.751 115.987 105.653C120.375 106.499 124.807 105.974 128.564 104.176C123.18 99.0567 121.069 91.2659 119.72 84.2641C118.031 75.4927 116.326 69.4703 112.164 62.7728C109.363 58.2654 106.53 51.2534 105.058 45.3889Z" fill="#9DE9DB"/>
<path d="M65.2503 33.6768C65.1725 33.1921 65.0484 32.7288 64.7823 32.3253C64.1709 31.3988 62.8716 30.913 61.8069 31.241C60.2865 31.7088 59.2263 33.3003 58.6567 34.9234C58.0409 36.6795 57.8537 38.6441 58.3826 40.3788C58.9116 42.1134 60.2222 43.5663 61.8678 43.9112C63.1209 44.1727 63.8957 43.6227 64.965 43.1482C65.9293 42.721 66.7166 42.5237 67.0527 41.3481C67.3053 40.4633 67.1373 39.5086 66.8204 38.6441C66.5034 37.7807 66.0444 36.9759 65.6925 36.1261C65.3789 35.3686 65.38 34.4928 65.2492 33.6768H65.2503Z" fill="#E3F6F2"/>
<path d="M62.5739 44.5458C62.2976 44.5458 62.0224 44.5188 61.7528 44.4613C59.9922 44.0927 58.4571 42.5542 57.8436 40.5422C57.3168 38.8154 57.4161 36.7539 58.1244 34.7363C58.862 32.633 60.1433 31.1633 61.64 30.7022C62.6247 30.399 63.8101 30.6594 64.6605 31.365C65.4139 31.9894 65.7873 32.8619 65.6846 33.7602C65.6497 34.069 65.3711 34.2911 65.0609 34.2573C64.7519 34.2223 64.5285 33.9428 64.5635 33.6339C64.6436 32.9306 64.2071 32.4538 63.9398 32.2329C63.3826 31.7708 62.592 31.5893 61.9716 31.7798C61.4269 31.9477 60.0655 32.6082 59.188 35.1094C58.5586 36.9027 58.4639 38.7151 58.9218 40.2142C59.4181 41.8395 60.6193 43.0738 61.9829 43.3589C62.9021 43.5517 63.9601 43.262 64.7428 42.6038C64.9808 42.4031 65.3372 42.4336 65.5369 42.6725C65.7376 42.9103 65.7072 43.2665 65.4681 43.466C64.6346 44.1671 63.5958 44.5469 62.5717 44.5469L62.5739 44.5458Z" fill="#9DE9DB"/>
<path d="M104.397 33.0985C104.214 31.3864 106.435 30.1037 108.104 30.5287C109.774 30.9536 110.916 32.5214 111.515 34.1355C112.164 35.8837 112.334 37.8528 111.718 39.6123C111.102 41.3718 109.629 42.8731 107.807 43.2699C106.583 43.5359 105.237 43.2282 104.248 42.4865L104.397 33.0974V33.0985Z" fill="#E3F6F2"/>
<path d="M106.909 43.9293C105.842 43.9293 104.771 43.5832 103.911 42.9385C103.662 42.7514 103.611 42.3986 103.798 42.1495C103.985 41.9004 104.338 41.8497 104.588 42.0368C105.454 42.6849 106.641 42.9475 107.689 42.7198C109.232 42.3851 110.606 41.0922 111.188 39.4275C111.717 37.9148 111.646 36.1058 110.988 34.3328C110.682 33.5066 109.774 31.5352 107.968 31.0764C107.05 30.8431 105.415 31.5746 104.942 33.253C104.857 33.5528 104.546 33.7275 104.246 33.643C103.946 33.5584 103.771 33.2473 103.856 32.9475C104.303 31.3582 106.19 29.4624 108.245 29.9842C109.882 30.4002 111.267 31.8429 112.045 33.9416C112.794 35.9604 112.867 38.0411 112.252 39.8005C111.542 41.8271 109.846 43.4063 107.927 43.8222C107.592 43.8943 107.251 43.9304 106.909 43.9304V43.9293Z" fill="#9DE9DB"/>
<path d="M93.6482 42.934C91.953 42.934 90.3435 42.4223 89.0014 41.436C86.855 39.8592 85.6843 37.1867 86.0204 34.6258C86.3249 32.2972 87.8543 30.1826 90.0108 29.1073C92.0985 28.067 94.6453 28.0433 96.8232 29.0442C98.9752 30.0327 100.951 32.3163 101.628 34.5954C102.092 36.1565 101.93 37.6229 101.163 38.8357C99.8719 40.8792 97.7244 42.3163 95.2747 42.7785C94.7276 42.8822 94.184 42.9329 93.6494 42.9329L93.6482 42.934ZM89.6691 40.5276C91.1804 41.6367 93.0956 42.0436 95.0637 41.6716C97.2078 41.267 99.0835 40.0136 100.209 38.2338C100.806 37.2893 100.92 36.1734 100.546 34.9155C99.9655 32.9554 98.2015 30.9164 96.3518 30.0677C94.5088 29.2212 92.2711 29.2392 90.5139 30.115C88.716 31.0111 87.3907 32.8382 87.1381 34.7712C86.8595 36.8982 87.8769 39.2111 89.6691 40.5276Z" fill="#9DE9DB"/>
<path d="M74.4607 43.9969C73.908 43.9969 73.352 43.9248 72.8004 43.7782C70.6123 43.1966 68.6712 41.3898 67.6065 38.9417C66.7403 36.95 66.5756 34.8873 67.1441 33.1335C68.0678 30.2841 71.1188 28.2327 74.2453 28.3634C77.1845 28.4863 80.0347 30.4588 81.3374 33.2721C82.4856 35.7518 81.9431 38.8842 79.9546 41.2512C78.4579 43.0321 76.4864 43.9969 74.4618 43.9969H74.4607ZM73.0903 42.6894C75.231 43.2575 77.4733 42.4493 79.0895 40.5264C80.7983 38.4931 81.2787 35.8319 80.3133 33.7455C79.1831 31.3064 76.7255 29.5954 74.1979 29.4906C71.5631 29.3801 68.9893 31.0956 68.2167 33.4818C67.7328 34.9741 67.884 36.7539 68.6408 38.4931C69.569 40.6267 71.2327 42.1957 73.0903 42.6894Z" fill="#9DE9DB"/>
<path d="M86.5246 37.056C86.3205 37.056 86.1231 36.9444 86.0227 36.7505C85.6764 36.081 84.9704 35.5828 84.2237 35.4813C83.4759 35.3788 82.6627 35.6707 82.1495 36.2219C81.9375 36.4496 81.5811 36.4631 81.3521 36.2512C81.1243 36.0393 81.1108 35.6831 81.3228 35.4543C82.0898 34.6292 83.2594 34.2111 84.376 34.3632C85.4926 34.5154 86.5077 35.2322 87.0243 36.232C87.1675 36.5082 87.0592 36.8486 86.7818 36.9917C86.6994 37.0345 86.6103 37.0548 86.5235 37.0548L86.5246 37.056Z" fill="#9DE9DB"/>
<path d="M67.2366 36.3357C67.0065 36.3357 66.79 36.1937 66.7065 35.9649C66.1031 34.3091 65.6948 33.4705 64.3098 32.3907C64.0639 32.1991 64.0199 31.8452 64.2116 31.5995C64.4034 31.3537 64.7575 31.3098 65.0034 31.5014C66.667 32.7987 67.1577 33.9067 67.7656 35.5783C67.8716 35.8713 67.7216 36.1937 67.4284 36.3008C67.3652 36.3244 67.2998 36.3346 67.2355 36.3346L67.2366 36.3357Z" fill="#9DE9DB"/>
<path d="M101.322 36.7415C101.294 36.7415 101.265 36.7392 101.237 36.7347C100.929 36.6874 100.718 36.4 100.765 36.0922C101.072 34.0961 102.732 31.7325 104.898 30.2097C105.153 30.0305 105.505 30.0913 105.684 30.3461C105.863 30.6008 105.802 30.9525 105.548 31.1317C103.648 32.4674 102.14 34.5774 101.881 36.2624C101.838 36.5409 101.598 36.7404 101.324 36.7404L101.322 36.7415Z" fill="#9DE9DB"/>
<path d="M85.8366 111.177C85.5783 111.177 85.3448 110.998 85.2862 110.735C83.5628 102.924 83.0394 88.6002 84.1876 80.6843C84.2327 80.3766 84.5158 80.1624 84.8271 80.2075C85.135 80.2526 85.3493 80.5377 85.3042 80.8466C84.1718 88.6566 84.6884 102.788 86.3881 110.493C86.4547 110.797 86.2629 111.097 85.9584 111.164C85.9178 111.173 85.8772 111.178 85.8366 111.178V111.177Z" fill="#9DE9DB"/>
<path d="M78.3327 104.006C77.9954 104.006 77.6582 103.872 77.3841 103.622C77.0142 103.282 76.8473 102.809 76.9386 102.356C77.03 101.903 77.3661 101.53 77.8387 101.361C78.3112 101.19 78.8086 101.263 79.1684 101.554C79.4109 101.751 79.447 102.106 79.2519 102.347C79.0556 102.588 78.7004 102.625 78.459 102.43C78.4116 102.392 78.3146 102.389 78.2221 102.421C78.1297 102.454 78.0575 102.519 78.0451 102.579C78.0327 102.639 78.0755 102.726 78.1466 102.792C78.2188 102.859 78.3101 102.892 78.3688 102.875C78.6677 102.789 78.9812 102.959 79.0681 103.259C79.156 103.557 78.9835 103.871 78.6846 103.958C78.5695 103.991 78.45 104.008 78.3315 104.008L78.3327 104.006Z" fill="#9DE9DB"/>
<path d="M77.0278 92.4156C76.7673 92.4156 76.5011 92.3356 76.271 92.1834C75.9236 91.9523 75.6992 91.5815 75.6721 91.1915C75.6439 90.8026 75.8142 90.4036 76.1255 90.1264C76.4368 89.848 76.853 89.7251 77.2376 89.7972C77.5433 89.8547 77.7451 90.1489 77.6888 90.4544C77.6312 90.7598 77.3357 90.9616 77.0312 90.9052C76.9906 90.8973 76.9274 90.9233 76.8778 90.9672C76.8282 91.0112 76.7955 91.0709 76.7988 91.1115C76.8022 91.1532 76.8428 91.2073 76.8981 91.2445C76.9534 91.2817 77.0199 91.2975 77.0594 91.2839C77.3549 91.1847 77.6741 91.3425 77.7745 91.6367C77.8749 91.9309 77.7158 92.251 77.4214 92.3513C77.2962 92.3942 77.1643 92.4145 77.0312 92.4145L77.0278 92.4156Z" fill="#9DE9DB"/>
<path d="M84.7278 51.2005C84.6093 51.2005 84.4909 51.1971 84.3736 51.1903C84.0623 51.1723 83.8254 50.9052 83.8435 50.5952C83.8615 50.2841 84.1289 50.0474 84.439 50.0654C85.9278 50.1511 87.4347 49.5661 88.4723 48.4976C88.6889 48.2744 89.0464 48.2688 89.2697 48.4852C89.4931 48.7016 89.4987 49.0589 89.2822 49.2821C88.1013 50.4983 86.4207 51.2005 84.7278 51.2005Z" fill="#9DE9DB"/>
<path d="M166.803 46.79C160.567 88.7614 162.829 126.583 163.692 164.344C147.565 171.594 86.5821 173.722 86.5821 173.722C50.597 166.846 28.4792 167.186 4.57703 166.601C8.81336 131.325 12.7553 87.597 4.57703 53.0208C32.5294 45.4013 63.712 50.4329 89.4075 63.8098C89.4075 63.8098 167.789 46.7077 166.802 46.7911L166.803 46.79Z" fill="#E3F6F2"/>
<path d="M86.5821 174.286C86.5471 174.286 86.511 174.282 86.4761 174.275C54.6223 168.189 33.2884 167.757 12.6583 167.339C10.0123 167.285 7.27715 167.23 4.56234 167.163C4.4033 167.16 4.2533 167.089 4.14953 166.968C4.04576 166.848 3.99727 166.69 4.01644 166.532C5.91241 150.742 8.15577 129.992 8.66783 109.532C9.22839 87.1642 7.71026 68.7208 4.02772 53.1482C3.95779 52.8529 4.13487 52.5553 4.42812 52.4753C11.3093 50.5997 18.5605 49.4466 25.9797 49.0465C33.1519 48.6599 40.5317 48.9744 47.9148 49.9809C62.1679 51.9241 76.5383 56.4992 89.4864 63.2136C115.527 57.5316 164.497 46.8204 166.577 46.2715C166.633 46.2478 166.692 46.232 166.754 46.2264C167.052 46.2016 167.324 46.4101 167.369 46.7043C167.387 46.8271 167.374 46.9275 167.34 47.0097C162.005 83.0231 162.938 116.313 163.84 148.508C163.985 153.695 164.135 159.059 164.256 164.328C164.262 164.555 164.13 164.762 163.923 164.855C157.176 167.888 142.108 170.396 119.136 172.31C102.059 173.732 86.7546 174.277 86.6024 174.282C86.5956 174.282 86.5888 174.282 86.5832 174.282L86.5821 174.286ZM5.21087 166.053C7.71928 166.113 10.239 166.163 12.682 166.213C33.3459 166.631 54.7148 167.064 86.6261 173.157C87.7167 173.118 102.554 172.564 119.047 171.19C134.539 169.9 154.652 167.606 163.12 163.98C163.002 158.835 162.855 153.605 162.713 148.543C161.815 116.506 160.887 83.386 166.123 47.5406C166.107 47.544 166.09 47.5485 166.073 47.5519C165.522 47.6793 164.694 47.8664 163.615 48.1087C161.61 48.5584 158.66 49.2122 154.848 50.0542C148.428 51.471 139.476 53.4378 128.239 55.8984C109.107 60.0891 89.7232 64.3182 89.5304 64.361C89.4018 64.3892 89.2664 64.3711 89.1491 64.3103C76.2676 57.6038 61.957 53.0354 47.7648 51.1001C40.4527 50.1038 33.1452 49.7915 26.044 50.1736C18.8921 50.5591 11.9004 51.6513 5.25373 53.4232C8.8686 68.9778 10.3563 87.3502 9.7991 109.563C9.29155 129.804 7.09669 150.316 5.21312 166.053H5.21087Z" fill="#9DE9DB"/>
<path d="M86.5832 173.689C86.5832 173.689 86.5753 173.689 86.5708 173.689C86.2595 173.683 86.0125 173.426 86.0193 173.115C86.3802 156.012 86.8415 137.23 87.2882 119.065C87.7337 100.902 88.195 82.1191 88.557 65.0192C88.5638 64.7126 88.8142 64.4681 89.121 64.4681C89.1255 64.4681 89.1289 64.4681 89.1334 64.4681C89.4447 64.4748 89.6917 64.7318 89.6849 65.0429C89.324 82.145 88.8627 100.928 88.4161 119.093C87.9705 137.256 87.5092 156.038 87.1472 173.138C87.1404 173.445 86.89 173.689 86.5832 173.689Z" fill="#9DE9DB"/>
<path d="M105.035 103.473C104.772 103.473 104.537 103.287 104.483 103.02C104.422 102.714 104.62 102.418 104.926 102.357C107.945 101.756 118.058 99.3813 127.47 97.0628C139.27 94.1559 147.403 91.9839 149.785 91.1025C150.078 90.9943 150.402 91.143 150.509 91.435C150.618 91.7269 150.469 92.0515 150.177 92.1586C144.677 94.1942 111.379 102.222 105.146 103.462C105.109 103.469 105.072 103.473 105.035 103.473Z" fill="#9DE9DB"/>
<path d="M105.094 87.1987C104.83 87.1987 104.595 87.0127 104.541 86.7455C104.48 86.4401 104.679 86.1437 104.984 86.0828C108.004 85.482 118.116 83.1071 127.528 80.7886C139.328 77.8817 147.462 75.7097 149.844 74.8283C150.136 74.7201 150.461 74.8688 150.568 75.1608C150.676 75.4527 150.527 75.7773 150.235 75.8844C144.735 77.92 111.437 85.9475 105.204 87.1874C105.167 87.1953 105.13 87.1987 105.094 87.1987Z" fill="#9DE9DB"/>
<path d="M105.105 114.607C104.852 114.607 104.621 114.434 104.558 114.177C104.484 113.875 104.67 113.57 104.972 113.497L121.48 109.466C121.782 109.393 122.088 109.577 122.161 109.88C122.236 110.182 122.049 110.487 121.747 110.56L105.24 114.591C105.194 114.602 105.149 114.607 105.105 114.607Z" fill="#9DE9DB"/>
<path d="M127.315 125.59C127.058 125.59 126.826 125.414 126.765 125.155C126.694 124.851 126.883 124.548 127.186 124.477L143.052 120.776C143.356 120.706 143.659 120.893 143.73 121.196C143.801 121.499 143.612 121.802 143.309 121.873L127.443 125.574C127.4 125.584 127.357 125.589 127.315 125.589V125.59Z" fill="#9DE9DB"/>
<path d="M127.56 141.557C127.304 141.557 127.073 141.382 127.012 141.122C126.941 140.818 127.129 140.515 127.432 140.444L144.055 136.542C144.358 136.471 144.661 136.659 144.732 136.961C144.803 137.265 144.615 137.568 144.313 137.639L127.69 141.541C127.647 141.551 127.603 141.556 127.56 141.556V141.557Z" fill="#9DE9DB"/>
<path d="M102.764 159.068C102.491 159.068 102.252 158.87 102.208 158.592C102.159 158.285 102.369 157.996 102.677 157.948C107.416 157.201 112.226 156.663 116.877 156.141C126.144 155.103 135.725 154.029 145.144 151.264C145.443 151.176 145.757 151.347 145.844 151.646C145.932 151.944 145.761 152.258 145.462 152.346C135.948 155.139 126.317 156.219 117.002 157.262C112.363 157.782 107.566 158.32 102.853 159.062C102.824 159.067 102.793 159.069 102.765 159.069L102.764 159.068Z" fill="#9DE9DB"/>
<path d="M69.8916 158.444C69.8601 158.444 69.8274 158.441 69.7946 158.436C59.6099 156.671 47.6859 155.434 43.833 155.51C43.5217 155.516 43.2646 155.268 43.2578 154.957C43.2521 154.646 43.4992 154.389 43.8104 154.384C48.5453 154.29 61.5363 155.862 69.9864 157.327C70.2932 157.38 70.4984 157.672 70.4454 157.978C70.3981 158.252 70.1601 158.446 69.8905 158.446L69.8916 158.444Z" fill="#9DE9DB"/>
<path d="M71.544 131.367C71.5226 131.367 71.5012 131.367 71.4797 131.364L46.1723 128.509C45.8632 128.474 45.6399 128.194 45.6749 127.886C45.7098 127.577 45.9895 127.354 46.2986 127.389L71.6061 130.244C71.9151 130.279 72.1384 130.558 72.1035 130.867C72.0708 131.154 71.8271 131.367 71.544 131.367Z" fill="#9DE9DB"/>
<path d="M72.3245 143.185C72.3064 143.185 72.2895 143.185 72.2715 143.183C67.9393 142.781 58.4154 141.907 49.204 141.062C39.926 140.211 30.3311 139.331 25.9741 138.926C25.6639 138.897 25.4361 138.623 25.4643 138.313C25.4925 138.003 25.7677 137.775 26.0778 137.803C30.4349 138.208 40.0286 139.088 49.3066 139.939C58.5181 140.785 68.0419 141.658 72.3752 142.061C72.6854 142.09 72.9132 142.364 72.885 142.674C72.858 142.966 72.6121 143.185 72.3245 143.185Z" fill="#9DE9DB"/>
<path d="M24.4898 105.763C25.6357 89.4399 25.0402 77.1484 24.2665 62.783C30.6627 60.5828 40.7528 59.9527 46.9539 62.7435C47.0373 78.2046 45.5824 92.1665 43.8071 107.093C37.8925 105.612 30.5578 105.765 24.4909 105.762L24.4898 105.763Z" fill="#9DE9DB"/>
<path d="M67.6653 88.5698H61.6491C61.3379 88.5698 61.0852 88.3173 61.0852 88.0062C61.0852 87.6951 61.3379 87.4426 61.6491 87.4426H67.6653C67.9766 87.4426 68.2292 87.6951 68.2292 88.0062C68.2292 88.3173 67.9766 88.5698 67.6653 88.5698Z" fill="#9DE9DB"/>
<path d="M32.6895 154.74C32.6782 154.74 32.6669 154.74 32.6556 154.74L24.2382 154.245C23.9269 154.227 23.6901 153.96 23.7081 153.649C23.7262 153.338 23.9923 153.101 24.3048 153.119L32.7222 153.614C33.0335 153.632 33.2703 153.899 33.2523 154.21C33.2342 154.51 32.9861 154.741 32.6895 154.741V154.74Z" fill="#9DE9DB"/>
<path d="M67.6122 100.707C67.6054 100.707 67.5987 100.707 67.5908 100.707L59.1644 100.396C58.8531 100.384 58.6106 100.123 58.6218 99.8119C58.6331 99.5076 58.8835 99.2686 59.1847 99.2686C59.1914 99.2686 59.1982 99.2686 59.2061 99.2686L67.6325 99.5797C67.9438 99.591 68.1863 99.8525 68.175 100.164C68.1637 100.468 67.9134 100.707 67.6122 100.707Z" fill="#9DE9DB"/>
<path d="M68.8698 78.5517C68.863 78.5517 68.8562 78.5517 68.8483 78.5517L60.4219 78.2417C60.1106 78.2305 59.8681 77.969 59.8794 77.6579C59.8907 77.3536 60.1411 77.1146 60.4422 77.1146C60.449 77.1146 60.4558 77.1146 60.4636 77.1146L68.8901 77.4246C69.2014 77.4358 69.4439 77.6973 69.4326 78.0084C69.4213 78.3128 69.1709 78.5517 68.8698 78.5517Z" fill="#9DE9DB"/>
<path d="M118.214 143.317C118.979 136.465 119.058 133.332 118.263 126.483C113.761 128.007 108.392 128.492 103.782 130.711C103.264 136.22 102.744 141.728 102.225 147.236C107.572 146.381 113.575 146.108 118.215 143.318L118.214 143.317Z" fill="#9DE9DB"/>
<path d="M18.3878 128.6C22.6208 128.192 27.3365 128.171 26.1082 125.276C25.4755 123.786 23.8085 123.865 22.3749 123.607C19.3601 123.065 16.2561 122.838 13.1951 122.763C15.8275 122.705 23.3438 123.509 25.5916 122.089C26.1195 121.755 26.5413 121.194 26.5515 120.569C26.5616 119.929 26.1387 119.344 25.604 118.991C25.0694 118.639 24.4344 118.477 23.8107 118.332C20.8117 117.631 17.7461 117.161 14.6951 116.76C13.0608 116.544 12.842 116.72 11.5348 116.438C11.4953 116.43 11.501 116.372 11.5416 116.374C12.9041 116.443 15.8817 116.229 17.5927 115.992C20.2849 115.62 23.4295 115.195 25.7822 113.731C27.8925 112.419 26.8244 110.218 24.6747 109.842C23.2524 109.594 21.6023 109.933 20.1733 110.069C17.1765 110.355 12.9819 111.716 10.205 110.011C8.917 109.222 9.28694 104.669 9.36477 102.516C9.43582 100.548 9.68283 98.6521 8.9294 96.8002C8.38012 95.4521 7.60865 94.0939 6.18752 93.5495C5.49048 93.2823 4.70548 93.2947 4.0592 93.6667C2.94823 94.3069 2.90876 95.504 2.90424 96.5916C2.86477 107.126 -5.6564 124.45 10.0719 128.082C10.7633 128.242 14.623 128.96 18.3867 128.597L18.3878 128.6Z" fill="#E3F6F2"/>
<path d="M16.1569 129.266C12.797 129.266 9.9795 128.642 9.94566 128.634C4.43482 127.362 1.28915 124.345 0.32932 119.413C-0.495164 115.178 0.386842 110.185 1.23952 105.356C1.80121 102.18 2.33019 99.1796 2.34034 96.5928C2.34372 95.5614 2.35049 94.0026 3.77726 93.1809C4.5431 92.7402 5.49503 92.6827 6.38831 93.0254C8.08127 93.6735 8.91478 95.2706 9.45165 96.5894C10.1374 98.2745 10.0517 99.9911 9.96822 101.651C9.95356 101.946 9.93889 102.241 9.92762 102.537C9.91859 102.775 9.90731 103.041 9.89378 103.327C9.84077 104.499 9.77422 105.957 9.86107 107.225C9.98739 109.079 10.3822 109.459 10.4995 109.531C12.4417 110.723 15.2828 110.255 17.789 109.841C18.6135 109.706 19.3917 109.577 20.1192 109.508C20.4508 109.476 20.7925 109.433 21.1546 109.388C22.3592 109.238 23.6043 109.083 24.7706 109.287C26.1522 109.528 27.2282 110.45 27.4482 111.58C27.6444 112.587 27.1448 113.545 26.0789 114.208C23.6404 115.725 20.4981 116.159 17.7247 116.541L17.6672 116.549C17.6029 116.558 17.5363 116.567 17.4687 116.576C19.5124 116.88 21.7196 117.263 23.9359 117.782C24.6352 117.945 25.3131 118.125 25.9109 118.52C26.6632 119.017 27.1233 119.805 27.1109 120.577C27.0985 121.346 26.6417 122.088 25.8894 122.563C25.383 122.883 24.6578 123.1 23.8006 123.244C24.9274 123.422 26.0733 123.755 26.6237 125.054C26.9553 125.835 26.9485 126.522 26.6023 127.094C25.7349 128.533 23.0167 128.765 19.8699 129.032C19.3985 129.073 18.9112 129.113 18.4386 129.159C17.6672 129.234 16.8968 129.264 16.1535 129.264L16.1569 129.266ZM5.21757 93.9316C4.90289 93.9316 4.60175 94.0071 4.3412 94.1581C3.53815 94.6203 3.47386 95.4611 3.46935 96.5973C3.4592 99.281 2.9212 102.328 2.35162 105.552C0.668813 115.08 -1.07264 124.934 10.2006 127.536C11.2213 127.772 14.9072 128.37 18.3337 128.039C18.8131 127.993 19.3037 127.951 19.7786 127.91C22.2588 127.7 25.0706 127.461 25.6413 126.514C25.6966 126.423 25.8646 126.143 25.5894 125.495C25.2217 124.627 24.395 124.457 23.0776 124.281C22.8137 124.246 22.5419 124.209 22.2746 124.162C19.6252 123.685 16.6509 123.412 13.1804 123.325C12.8737 123.317 12.63 123.067 12.63 122.761C12.63 122.454 12.8759 122.205 13.1816 122.198C13.8527 122.183 14.8114 122.223 15.9212 122.268C19.0375 122.394 23.7476 122.586 25.2883 121.612C25.6199 121.402 25.9774 121.016 25.9853 120.56C25.9909 120.176 25.7191 119.744 25.2905 119.463C24.8473 119.169 24.2991 119.026 23.6799 118.882C20.4914 118.137 17.3107 117.674 14.6196 117.32C13.9147 117.227 13.4838 117.209 13.1049 117.195C12.612 117.174 12.1856 117.157 11.4142 116.992C11.1074 116.925 10.9066 116.641 10.9472 116.33C10.9878 116.02 11.2551 115.802 11.5676 115.814C12.8951 115.88 15.8546 115.666 17.5138 115.436L17.5713 115.428C20.232 115.061 23.2479 114.645 25.4834 113.254C26.1398 112.846 26.4444 112.329 26.3417 111.798C26.212 111.133 25.4868 110.558 24.5777 110.399C23.5773 110.224 22.4167 110.369 21.2944 110.508C20.9403 110.552 20.5748 110.598 20.2263 110.631C19.5372 110.697 18.777 110.823 17.9717 110.955C15.2704 111.4 12.2082 111.904 9.90844 110.494C8.58543 109.685 8.60799 106.747 8.76589 103.278C8.7783 102.995 8.79071 102.732 8.7986 102.498C8.80988 102.196 8.82455 101.895 8.83921 101.596C8.91929 99.9877 8.99598 98.4683 8.40384 97.0143C7.95269 95.9063 7.27032 94.5707 5.98228 94.0781C5.72625 93.9801 5.4657 93.9316 5.21419 93.9316H5.21757Z" fill="#9DE9DB"/>
<path d="M153.335 127.061C151.872 126.85 150.427 126.533 149.015 126.037C147.766 125.599 146.31 125.032 145.998 123.568C145.842 122.837 146.386 122.17 147.039 121.807C148.325 121.09 155.216 121.384 158.1 121.31C154.361 121.1 146.56 121.323 144.525 117.307C143.323 114.935 145.555 114.417 147.467 114.725C150.621 115.232 155.212 115.968 158.424 115.547C158.424 115.547 152.952 115.015 149.504 113.707C148.303 113.252 145.962 112.371 146.783 110.645C147.596 108.935 151.106 109.371 152.564 109.49C154.264 109.627 155.965 109.765 157.665 109.902C158.45 109.965 159.258 110.026 160.008 109.787C163.204 108.767 162.555 102.084 162.497 99.538C162.467 98.2643 162.367 96.9478 162.819 95.7564C163.897 92.9138 166.161 93.7749 167.421 95.797C169.51 99.1491 168.453 104.592 169.026 108.404C169.448 111.213 169.885 114.186 169.709 117.047C169.505 120.365 168.466 124.093 165.475 125.936C163.412 127.207 160.808 127.454 158.434 127.474C156.73 127.489 155.018 127.303 153.336 127.061H153.335Z" fill="#E3F6F2"/>
<path d="M158.246 128.039C156.414 128.039 154.623 127.816 153.254 127.618C151.613 127.382 150.164 127.039 148.828 126.569C147.709 126.177 145.837 125.519 145.445 123.685C145.256 122.797 145.772 121.866 146.763 121.314C147.14 121.104 147.821 120.968 148.753 120.884C146.676 120.292 144.897 119.291 144.021 117.562C143.377 116.292 143.632 115.493 143.958 115.046C144.181 114.741 145.101 113.774 147.556 114.169C148.403 114.306 149.369 114.461 150.391 114.607C150.014 114.491 149.649 114.367 149.303 114.236L149.291 114.231C148.309 113.858 146.664 113.235 146.182 112.036C145.973 111.517 146.004 110.968 146.271 110.405C147.197 108.458 150.506 108.747 152.285 108.902C152.401 108.912 152.509 108.921 152.607 108.929L157.709 109.342C158.432 109.4 159.181 109.46 159.836 109.252C162.288 108.469 162.069 103.076 161.964 100.485C161.951 100.144 161.937 99.8231 161.932 99.5526C161.928 99.4106 161.924 99.2686 161.92 99.1266C161.885 97.9431 161.85 96.7201 162.291 95.558C162.925 93.8865 163.899 93.4537 164.602 93.3849C165.752 93.2711 167.016 94.0837 167.899 95.4994C169.36 97.8428 169.371 101.01 169.382 104.075C169.388 105.61 169.394 107.061 169.583 108.322C169.991 111.039 170.454 114.121 170.272 117.083C170.08 120.194 169.144 124.339 165.771 126.417C163.496 127.819 160.657 128.021 158.438 128.04C158.374 128.04 158.311 128.04 158.247 128.04L158.246 128.039ZM153.485 121.875C150.966 121.875 147.973 121.93 147.312 122.298C146.863 122.549 146.452 123.002 146.548 123.449C146.787 124.572 147.94 125.062 149.201 125.505C150.469 125.95 151.846 126.276 153.415 126.503C154.792 126.701 156.606 126.928 158.427 126.911C160.499 126.893 163.139 126.711 165.178 125.456C166.812 124.448 168.827 122.165 169.144 117.011C169.319 114.167 168.866 111.15 168.466 108.486C168.265 107.144 168.259 105.654 168.253 104.076C168.243 101.169 168.232 98.164 166.94 96.0923C166.295 95.0576 165.422 94.4343 164.711 94.503C164.01 94.5718 163.582 95.3292 163.345 95.9537C162.983 96.9072 163.014 97.9667 163.047 99.0894C163.052 99.2337 163.055 99.3791 163.058 99.5222C163.064 99.7837 163.076 100.086 163.091 100.435C163.216 103.526 163.45 109.278 160.179 110.321C159.311 110.599 158.411 110.525 157.617 110.461L152.516 110.049C152.416 110.041 152.305 110.031 152.187 110.02C150.897 109.908 147.879 109.644 147.289 110.884C147.118 111.246 147.172 111.472 147.227 111.611C147.526 112.352 148.934 112.887 149.691 113.173L149.702 113.178C153.04 114.443 158.422 114.978 158.476 114.982C158.761 115.01 158.98 115.247 158.984 115.533C158.989 115.82 158.778 116.064 158.494 116.101C155.19 116.535 150.487 115.779 147.374 115.277C146.218 115.091 145.187 115.267 144.866 115.707C144.612 116.055 144.811 116.629 145.025 117.048C146.672 120.301 152.927 120.538 156.663 120.679C157.19 120.699 157.688 120.717 158.128 120.742C158.431 120.759 158.665 121.011 158.661 121.313C158.656 121.615 158.414 121.86 158.111 121.868C157.349 121.888 156.298 121.881 155.183 121.876C154.67 121.872 154.09 121.87 153.484 121.87L153.485 121.875Z" fill="#9DE9DB"/>
</g>
<defs>
<clipPath id="clip0_958_3592">
<rect width="170.312" height="174.286" fill="white"/>
</clipPath>
</defs>
</svg>
