<svg width="180" height="174" viewBox="0 0 180 174" fill="none" xmlns="http://www.w3.org/2000/svg">
<g clip-path="url(#clip0_958_3326)">
<path d="M30.0979 49.2958C30.0226 48.959 29.9474 48.6223 29.8708 48.2855C29.25 45.5735 29.2123 40.7466 26.8957 38.9056C24.0848 36.6712 19.7626 36.9917 16.4098 37.1865C11.6235 37.4642 3.35524 35.6496 3.86699 42.9559C4.72491 55.1959 8.13407 66.9383 9.8261 79.0238C10.2977 82.3942 10.9938 85.9444 12.7674 88.9001C14.4682 91.7351 17.6892 91.4825 20.7384 91.4159C24.5966 91.3305 28.4548 91.2463 32.3129 91.1608C33.4029 91.137 34.5644 91.0905 35.4562 90.4621C36.9977 89.3763 37.0378 87.1018 36.6164 85.262C33.9523 73.2519 32.7457 61.238 30.0979 49.2958Z" fill="#0BC9A4"/>
<path d="M18.8369 92.0794C19.3098 92.0794 19.7802 92.0681 20.2405 92.0556C20.4111 92.0518 20.5816 92.0468 20.751 92.043L32.3268 91.7879C33.344 91.7653 34.7388 91.7351 35.8174 90.9748C37.956 89.4693 37.5157 86.3792 37.2285 85.12C35.899 79.1269 34.9169 73.0232 33.9661 67.1218C33.0179 61.2305 32.037 55.1381 30.7112 49.1588C30.636 48.8208 30.5607 48.4827 30.483 48.1447C30.335 47.4975 30.2183 46.7058 30.0954 45.8688C29.6865 43.0966 29.2237 39.9537 27.287 38.413C24.3658 36.0906 20.0887 36.342 16.6532 36.543L16.376 36.5594C15.5181 36.6096 14.5372 36.5895 13.4987 36.5682C10.2288 36.5028 6.52236 36.4287 4.55062 38.5072C3.54845 39.5628 3.10944 41.0746 3.24365 42.9986C3.75916 50.3527 5.21037 57.6288 6.61392 64.6662C7.55463 69.3851 8.52796 74.2635 9.20653 79.1093C9.68818 82.545 10.3868 86.1479 12.2319 89.2218C13.742 91.7389 16.3221 92.0782 18.8394 92.0782L18.8369 92.0794ZM19.8479 37.6778C22.2712 37.6778 24.7396 37.9957 26.5056 39.3982C28.0547 40.6285 28.4974 43.6357 28.8524 46.0523C28.9791 46.9157 29.0995 47.73 29.2588 48.4262C29.3353 48.7617 29.4106 49.0972 29.4858 49.4315C30.8041 55.3744 31.7812 61.4479 32.7269 67.3216C33.6802 73.2418 34.666 79.3644 36.0043 85.3977C36.1862 86.1906 36.654 88.8498 35.0962 89.9481C34.3876 90.447 33.4105 90.5086 32.2992 90.5325L20.7234 90.7876C20.5515 90.7913 20.3797 90.7964 20.2079 90.8001C17.3857 90.8718 14.7216 90.9396 13.3043 88.5771C11.5759 85.6955 10.9086 82.2409 10.4458 78.9371C9.76218 74.0562 8.78509 69.1589 7.84061 64.4225C6.44459 57.424 5.00216 50.1868 4.49166 42.9131C4.38128 41.3335 4.69612 40.1761 5.45621 39.3756C7.0479 37.6979 10.4596 37.767 13.4711 37.8273C14.5347 37.8487 15.5382 37.8688 16.445 37.816L16.7235 37.7997C17.7118 37.7419 18.7755 37.6803 19.8479 37.6803V37.6778Z" fill="#1A1E22"/>
<path d="M16.2756 46.0159C15.6898 46.144 15.1191 46.5851 14.7077 47.4108C13.1562 50.5311 18.8807 52.1384 18.7954 48.5921C18.7528 46.8176 17.4835 45.7507 16.2756 46.0146V46.0159Z" fill="white"/>
<path d="M5.14251 82.824C8.13774 90.2158 10.4582 97.9369 11.8391 105.742C11.9106 106.143 13.1135 113.33 12.7761 113.398C19.0174 113.96 26.8341 113.546 31.5251 111.955C30.6722 108.397 29.8833 104.823 29.1031 101.249C27.9366 95.9073 26.814 90.5451 25.2964 85.2896C24.165 81.3701 22.557 77.5699 20.4185 74.0939C19.8101 73.1049 15.3587 66.8328 13.9426 70.0524C13.5048 71.0477 14.5785 72.7505 14.9749 73.6478C16.8111 77.8074 18.764 81.8526 19.9594 86.2661C18.9434 82.5174 17.7669 79.1043 15.4816 75.9035C14.1345 74.0147 12.5002 72.0405 10.5723 70.731C9.83856 70.2321 8.75861 69.6 7.91448 70.217C6.10078 71.5441 8.89282 75.1683 9.50115 76.567C11.0477 80.1234 12.5478 83.6999 13.836 87.3594C12.6971 84.1247 11.1405 80.8699 9.50617 77.8601C8.42247 75.8658 4.81137 68.2893 1.57406 70.1844C-0.312389 71.2877 1.07862 73.781 1.75719 75.1922C2.96005 77.6892 4.09141 80.2365 5.14 82.824H5.14251Z" fill="white"/>
<path d="M18.3126 114.262C23.0237 114.262 28.1148 113.775 31.7259 112.549C32.0332 112.445 32.2101 112.123 32.1348 111.808C31.2606 108.164 30.4604 104.527 29.7153 101.115C29.5974 100.575 29.4795 100.035 29.3629 99.4951C28.3331 94.7574 27.2682 89.8601 25.8985 85.1149C24.7044 80.9754 23.04 77.1564 20.9529 73.7633C20.9203 73.7106 17.609 68.5129 15.1029 68.5129C15.0628 68.5129 15.0226 68.5142 14.9825 68.5167C14.4895 68.5506 13.8085 68.8007 13.3695 69.7985C12.9593 70.731 13.4397 71.9248 13.9138 72.9025C12.9079 71.7715 11.9295 70.8918 10.9261 70.2107C10.3504 69.8186 8.82018 68.7781 7.54708 69.7093C6.75437 70.2899 6.58127 71.1218 6.72677 72.0291C5.73965 70.7611 4.62208 69.7055 3.45309 69.3713C2.68296 69.1513 1.94417 69.2418 1.26058 69.6427C-1.00716 70.9697 0.336176 73.7106 1.05739 75.1821C1.10631 75.2814 1.15273 75.3757 1.19537 75.4661C2.402 77.9707 3.53461 80.5255 4.56187 83.0615C7.65619 90.6996 9.8976 98.3679 11.2221 105.853C11.5031 107.439 12.2506 112.247 12.2105 113.129C12.1666 113.221 12.1453 113.325 12.1503 113.433C12.1666 113.745 12.4099 113.997 12.7197 114.025C14.4243 114.178 16.3346 114.265 18.3126 114.265V114.262ZM30.7789 111.534C25.9938 112.997 18.8319 113.243 13.4573 112.823C13.4485 112.619 13.4272 112.397 13.4046 112.167C13.3444 111.544 13.2353 110.681 13.0797 109.604C12.8088 107.721 12.4889 105.82 12.4551 105.631C11.1155 98.06 8.85027 90.3063 5.72209 82.5865C4.68479 80.0266 3.54089 77.4454 2.32298 74.9182C2.27782 74.8252 2.23016 74.7285 2.18124 74.6267C0.750101 71.7049 1.22672 71.1143 1.89149 70.7259C2.27405 70.5023 2.67167 70.4533 3.1069 70.5789C5.29187 71.2047 7.63612 75.6584 8.63704 77.561C8.75871 77.7935 8.86658 77.9958 8.95564 78.1617C10.7944 81.5472 12.2356 84.7052 13.2378 87.5491C13.2403 87.5554 13.2428 87.5629 13.2453 87.5692C13.3607 87.896 13.7182 88.0681 14.0455 87.9525C14.3716 87.8369 14.5435 87.4787 14.4281 87.1507C14.4243 87.142 14.4218 87.1319 14.418 87.1231C13.076 83.3141 11.5382 79.6785 10.077 76.3169C9.93146 75.9826 9.69189 75.5654 9.41344 75.0816C8.62951 73.7169 7.31627 71.4335 8.28458 70.7247C8.6709 70.4419 9.26795 70.6041 10.22 71.2512C11.7702 72.3056 13.2804 73.9003 14.9712 76.2704C15.6623 77.2393 16.2506 78.2258 16.7648 79.2437C17.7733 81.6 18.6788 83.9412 19.3537 86.4319C19.444 86.7675 19.7889 86.9648 20.1225 86.8743C20.4574 86.7838 20.6543 86.4382 20.564 86.1039C20.5615 86.0939 20.559 86.0851 20.5565 86.075C19.6459 82.7197 18.7516 80.4124 17.8849 78.6757C17.3995 77.5409 16.8978 76.4225 16.4023 75.3153C16.1164 74.677 15.8304 74.0373 15.5469 73.3951C15.4641 73.2091 15.3588 72.9968 15.2471 72.7731C14.8859 72.0505 14.2801 70.8403 14.5159 70.3075C14.7417 69.7947 14.9775 69.7784 15.0665 69.7721C15.0828 69.7721 15.0991 69.7709 15.1154 69.7709C16.3484 69.7709 18.8984 72.8233 19.883 74.4244C21.9112 77.7206 23.5292 81.4354 24.6919 85.4655C26.049 90.1693 27.1102 95.0477 28.1349 99.764C28.2528 100.304 28.3695 100.845 28.4874 101.385C29.1948 104.627 29.9524 108.072 30.7764 111.537L30.7789 111.534Z" fill="#022821"/>
<path d="M127.264 20.2552C127.666 22.991 127.676 25.8814 127.813 28.4286C128.106 33.9241 127.327 39.5779 126.914 45.0495C126.569 49.62 125.21 58.6053 128.227 62.6995C130.082 65.2167 135.97 65.9669 136.886 67.4774C137.867 69.0923 132.738 69.791 131.495 71.2123C129.198 73.8413 125.132 75.9462 122.189 77.8174L122.185 77.8199C118.675 80.048 114.509 80.9842 110.395 81.1488C100.88 81.5271 89.2925 75.9387 86.5005 65.8412C91.6481 63.9122 93.3765 63.5729 93.5734 57.9606C93.6587 54.4092 91.8789 36.0479 92.0469 30.3061C92.3668 19.378 94.3373 8.20617 107.026 5.8876C115.35 4.36576 122.373 8.17727 125.825 15.2222C126.569 16.7403 127 18.4644 127.264 20.254V20.2552Z" fill="white"/>
<path d="M109.483 81.796C109.798 81.796 110.109 81.7897 110.42 81.7772C115.167 81.5887 119.237 80.4363 122.52 78.3527L122.524 78.3502H122.526C123.162 77.9443 123.846 77.5321 124.569 77.0948C127.165 75.529 130.107 73.7558 131.967 71.6257C132.37 71.1645 133.49 70.7146 134.478 70.3175C135.973 69.7168 137.264 69.1978 137.571 68.2729C137.657 68.014 137.701 67.6094 137.421 67.1494C136.9 66.2924 135.501 65.7683 133.727 65.1036C131.815 64.3873 129.649 63.5742 128.73 62.3263C126.258 58.9697 126.92 51.8544 127.358 47.1469C127.427 46.4092 127.492 45.7118 127.537 45.0972C127.64 43.7451 127.767 42.3526 127.889 41.0055C128.268 36.8597 128.66 32.5719 128.438 28.3947C128.403 27.74 128.376 27.074 128.349 26.3677C128.268 24.3306 128.186 22.2244 127.883 20.1635C127.577 18.0824 127.088 16.3758 126.387 14.9457C122.716 7.45343 115.254 3.74497 106.912 5.27057C100.912 6.3664 96.797 9.41761 94.3298 14.5989C92.0132 19.4622 91.5566 25.5383 91.4174 30.2885C91.3208 33.5735 91.8489 40.8522 92.3154 47.2738C92.6566 51.9864 92.9802 56.4375 92.9438 57.9468C92.772 62.8403 91.5604 63.2902 87.0537 64.9641C86.8041 65.0571 86.5457 65.1526 86.2773 65.2531C85.9725 65.3675 85.8057 65.6955 85.8923 66.0096C88.668 76.0467 99.8713 81.7948 109.479 81.796H109.483ZM121.853 77.2883L121.849 77.2908C118.756 79.255 114.894 80.3421 110.37 80.5218C101.23 80.8837 90.2308 75.6446 87.2669 66.227C87.3422 66.1994 87.4175 66.1705 87.4915 66.1428C92.0922 64.4338 93.9974 63.725 94.1981 57.9845C94.2358 56.4073 93.9259 52.1334 93.5672 47.1833C93.1031 40.7919 92.5788 33.5471 92.6729 30.3262C92.8084 25.6991 93.2474 19.7928 95.4637 15.1405C97.7452 10.3501 101.563 7.52631 107.139 6.50715C111.032 5.79587 114.777 6.27843 117.969 7.90457C121.082 9.48925 123.605 12.1157 125.263 15.5012C125.905 16.8119 126.357 18.3978 126.644 20.3482C126.937 22.3426 127.019 24.4148 127.097 26.4192C127.124 27.1292 127.151 27.8016 127.186 28.4638C127.404 32.5506 127.017 36.7918 126.641 40.8937C126.519 42.2446 126.391 43.642 126.288 45.0042C126.243 45.6074 126.177 46.2986 126.11 47.0313C125.654 51.9298 124.965 59.3316 127.721 63.074C128.863 64.6223 131.213 65.5044 133.288 66.2823C134.585 66.7687 136.055 67.3203 136.35 67.8054C136.38 67.8544 136.382 67.8783 136.382 67.8783C136.317 68.2277 134.759 68.8522 134.012 69.1538C132.784 69.6465 131.625 70.1127 131.024 70.8001C129.292 72.7819 126.44 74.5023 123.922 76.0203C123.192 76.4602 122.502 76.8761 121.855 77.2883H121.853Z" fill="#022821"/>
<path d="M98.1026 14.467C96.7429 15.2813 95.6066 16.9062 94.933 18.2169C94.2971 19.4547 94.1027 20.9024 93.4818 22.1189C93.0064 23.0501 92.8057 22.5952 92.4734 21.7105C92.1748 20.9162 92.0155 16.0202 92.1058 14.6869C92.3981 10.3438 93.5884 5.63628 97.0966 2.75974C99.9727 0.400953 103.797 -0.175863 107.408 0.0427992C111.798 0.307958 116.134 1.49049 120.187 3.17444C124.239 4.85839 128.366 6.47071 132.166 8.70634C133.842 9.69158 135.581 10.9759 136.002 12.876C136.395 14.6429 135.518 16.4513 134.413 17.8814C131.756 21.3184 128.346 25.0193 128.263 29.6929C128.261 29.8575 128.237 30.0573 128.091 30.1264C127.909 30.2132 127.73 30.0146 127.622 29.8412C127.063 28.9401 126.492 28.117 125.949 27.216C124.904 25.4378 123.626 23.3504 122.221 21.8751C120.542 20.1107 118.145 18.8993 115.773 19.3014C113.213 19.735 110.869 21.9593 108.354 21.3347C106.282 20.8207 105.134 18.6153 103.909 16.8082C102.889 15.3039 100.956 13.488 98.9781 14.0736C98.677 14.1628 98.3848 14.2973 98.1013 14.467H98.1026Z" fill="#022821"/>
<path d="M79.528 135.372C74.4394 150.24 65.8588 163.162 50.9792 164.616C21.7004 167.475 13.5827 125.795 12.7762 113.398C12.795 113.691 31.5253 111.955 31.5253 111.955C34.2308 119.279 34.8579 122.768 38.8014 128.556C40.4056 130.91 43.6805 134.162 46.8777 132.257C49.6936 130.578 50.3684 124.742 51.1322 121.872C53.2407 113.947 54.6706 105.429 58.0421 97.928C62.3606 88.3182 67.601 78.6003 75.8442 71.9236C77.8636 70.2874 82.6412 67.0162 85.9625 66.0687C85.9625 66.0687 88.7332 70.5073 89.7555 71.5843C94.4628 76.5406 101.882 78.1718 108.417 78.6921C126.132 80.1058 132.71 65.1991 132.736 65.2079C132.736 65.2079 159.445 97.7182 154.406 132.693C153.118 141.633 146.848 161.207 122.016 156.129C114.243 154.539 79.528 135.372 79.528 135.372Z" fill="white"/>
<path d="M132.735 65.2079C162.179 75.0213 181.348 103.391 178.58 131.053C177.248 144.369 171.658 155.954 160.961 163.84C147.95 173.432 124.538 176.388 109.76 169.838C84.2716 158.541 78.8782 132.692 75.3148 123.194C82.5307 122.249 93.4003 115.665 93.4191 115.659C93.3652 115.676 98.4062 124.403 99.0747 125.324C103.352 131.224 108.294 137.599 115.014 140.798C127.501 146.743 143.851 141.893 145.755 126.712L132.735 65.2067V65.2079Z" fill="white"/>
<path d="M102.464 43.9411C103.195 43.9411 103.951 43.7111 104.646 43.27C105.431 42.7724 106.102 42.0272 106.488 41.2254C106.638 40.9125 106.506 40.5368 106.194 40.3872C105.882 40.2364 105.507 40.3684 105.357 40.6813C104.812 41.8173 103.404 42.893 102.084 42.6505C100.569 42.3728 100.303 41.2468 100.092 39.6885C100.046 39.3442 99.7307 39.1042 99.387 39.1494C99.0433 39.1959 98.8025 39.5126 98.8489 39.8556C99.0283 41.189 99.3293 43.4221 101.857 43.8858C102.055 43.9223 102.258 43.9399 102.463 43.9399L102.464 43.9411Z" fill="#022821"/>
<path d="M99.1915 30.2861C99.7735 29.7821 99.3947 28.778 98.5255 28.8861C97.3929 29.0269 97.655 31.0426 98.9607 30.4331C99.0498 30.3916 99.1263 30.3414 99.1903 30.2861H99.1915Z" fill="#1A1E22"/>
<path d="M98.5003 31.1758C98.7323 31.1758 98.9782 31.118 99.2265 31.0024C99.3657 30.937 99.4924 30.8566 99.6028 30.7611C100.082 30.3451 100.231 29.6753 99.9741 29.0947C99.7132 28.5066 99.1161 28.1786 98.4489 28.2616C97.8719 28.3332 97.4241 28.7114 97.2535 29.2732C97.0754 29.8575 97.241 30.4972 97.6637 30.8667C97.8995 31.0715 98.1867 31.1758 98.499 31.1758H98.5003ZM98.7825 29.8098C98.7599 29.8299 98.7311 29.8475 98.6985 29.8626C98.5705 29.9216 98.5003 29.9216 98.4865 29.9166C98.4627 29.8978 98.4175 29.7796 98.4514 29.6502C98.4852 29.5233 98.5567 29.5145 98.6044 29.5082C98.721 29.4944 98.7938 29.5258 98.8289 29.6049C98.8452 29.6414 98.8716 29.7319 98.7825 29.8098Z" fill="#022821"/>
<path d="M113.137 33.576C113.719 33.0721 113.34 32.068 112.471 32.1761C111.338 32.3168 111.599 34.3326 112.906 33.7231C112.995 33.6816 113.071 33.6313 113.135 33.576H113.137Z" fill="#1A1E22"/>
<path d="M112.444 34.4658C112.676 34.4658 112.922 34.408 113.17 34.2923C113.31 34.227 113.436 34.1466 113.547 34.0511C114.026 33.6351 114.175 32.9653 113.918 32.3847C113.657 31.7966 113.057 31.4686 112.393 31.5515C111.816 31.6232 111.368 32.0014 111.197 32.5632C111.019 33.1475 111.185 33.7872 111.608 34.1566C111.843 34.3615 112.131 34.4658 112.443 34.4658H112.444ZM112.726 33.0998C112.704 33.1199 112.675 33.1375 112.642 33.1525C112.514 33.2116 112.444 33.2116 112.43 33.2066C112.407 33.1877 112.361 33.0696 112.395 32.9402C112.429 32.8132 112.501 32.8044 112.548 32.7982C112.664 32.7843 112.738 32.8158 112.773 32.8949C112.789 32.9314 112.815 33.0231 112.726 33.0998Z" fill="#022821"/>
<path d="M127.465 31.6772C127.657 31.1519 127.687 30.5814 128.34 30.1629C129.078 29.6879 130.118 29.5546 130.931 29.9115C132.307 30.5148 133.067 32.0303 133.353 33.5082C133.663 35.1079 133.53 36.8308 132.75 38.2609C131.97 39.691 130.49 40.7768 128.865 40.8585C126.35 40.9854 124.394 38.2861 124.576 35.8971C124.671 34.6367 125.381 33.4378 126.438 32.7466C126.671 32.5946 126.924 32.4639 127.117 32.2628C127.29 32.0831 127.39 31.8833 127.467 31.6772H127.465Z" fill="white"/>
<path d="M92.9288 31.3605C92.7118 31.6282 92.4948 31.8908 92.2929 32.1459C91.7812 32.7919 91.0474 33.2895 90.2108 32.8157C89.2023 32.244 88.5514 30.7523 88.2353 29.287C87.8916 27.7011 87.8477 25.9819 88.2779 24.5418C88.7082 23.1004 89.6551 21.9882 90.7815 21.8713C91.9016 21.7557 92.6617 22.6995 93.3942 23.3592C94.2396 24.122 94.8529 24.8924 95.0034 26.0724C95.1677 27.3693 94.7526 28.6901 94.0715 29.8047C93.7441 30.3388 93.3352 30.8604 92.9301 31.3605H92.9288Z" fill="white"/>
<path d="M128.686 41.4919C128.756 41.4919 128.826 41.4906 128.897 41.4868C130.651 41.3976 132.38 40.2503 133.299 38.5626C134.093 37.1048 134.331 35.2675 133.968 33.3888C133.588 31.4234 132.572 29.9468 131.182 29.336C130.226 28.9163 128.988 29.0281 128.026 29.6188C127.257 30.0913 126.791 30.8164 126.744 31.6093C126.724 31.9562 126.989 32.2528 127.335 32.2729C127.681 32.293 127.977 32.0278 127.997 31.681C128.026 31.167 128.439 30.8403 128.682 30.6907C129.284 30.32 130.106 30.2371 130.678 30.4884C132.108 31.1155 132.593 32.8937 132.735 33.6288C133.043 35.221 132.851 36.7592 132.197 37.9619C131.482 39.2751 130.161 40.1661 128.831 40.2339C128.052 40.2716 127.217 39.9864 126.601 39.4661C126.337 39.2424 125.94 39.2763 125.718 39.5415C125.495 39.8067 125.529 40.2038 125.793 40.4262C126.604 41.1098 127.646 41.4931 128.683 41.4931L128.686 41.4919Z" fill="#022821"/>
<path d="M90.9018 33.6263C91.2868 33.6263 91.6757 33.517 92.0319 33.2996C92.7907 32.8358 93.2222 31.9876 93.1833 31.0312C93.1695 30.6844 92.8723 30.4167 92.5311 30.428C92.1849 30.4419 91.9152 30.7347 91.929 31.0815C91.9491 31.5754 91.7421 32.0039 91.3771 32.2263C91.0974 32.3973 90.7763 32.4136 90.518 32.2678C89.8055 31.8644 89.1809 30.6995 88.846 29.1525C88.496 27.5339 88.5061 25.9593 88.8761 24.7202C89.2486 23.4723 90.0388 22.5776 90.8428 22.4946C91.3709 22.4393 91.9805 22.7736 92.4345 23.3655C92.6452 23.6407 93.0391 23.6922 93.3138 23.4811C93.5884 23.27 93.6399 22.8754 93.4292 22.6002C92.7017 21.6514 91.687 21.145 90.7136 21.2442C89.3703 21.3837 88.2051 22.5776 87.6732 24.3595C87.243 25.7997 87.2242 27.5955 87.6193 29.4189C87.8639 30.5474 88.4848 32.5594 89.8996 33.3611C90.2107 33.5383 90.5531 33.6263 90.8993 33.6263H90.9018Z" fill="#1A1E22"/>
<path d="M58.2553 61.7256C58.5363 61.7256 58.7922 61.5346 58.8637 61.2493L63.2261 43.6847C63.3101 43.3479 63.1044 43.0074 62.7683 42.9232C62.4321 42.839 62.0922 43.0451 62.0082 43.3819L57.6458 60.9465C57.5617 61.2833 57.7674 61.6238 58.1036 61.708C58.155 61.7206 58.2052 61.7269 58.2553 61.7269V61.7256Z" fill="#022821"/>
<path d="M51.5099 63.6194C51.5676 63.6194 51.6266 63.6119 51.6843 63.5943C52.0166 63.4975 52.2085 63.1494 52.112 62.8164C50.6532 57.7709 49.5583 52.572 48.8584 47.3668C48.812 47.0225 48.4984 46.7812 48.1535 46.8277C47.8098 46.8742 47.5689 47.1909 47.6154 47.5339C48.3228 52.8019 49.4303 58.0611 50.9066 63.1658C50.9856 63.441 51.2365 63.6194 51.5087 63.6194H51.5099Z" fill="#022821"/>
<path d="M45.5458 68.4287C45.6825 68.4287 45.8205 68.3835 45.9371 68.2917C46.208 68.0756 46.252 67.6797 46.0362 67.4083L40.2878 60.1912C40.0721 59.9197 39.677 59.8758 39.4061 60.0919C39.1351 60.3081 39.0912 60.7039 39.307 60.9754L45.0554 68.1925C45.1795 68.3483 45.3614 68.4287 45.5458 68.4287Z" fill="#022821"/>
<path d="M32.916 117.777L30.9567 112.071L13.3231 113.294V122.26L32.916 117.777Z" fill="#088D73"/>
<path d="M48.1597 165.384C49.1066 165.384 50.0662 165.336 51.0395 165.242C64.0339 163.973 73.8173 153.992 80.1214 135.577C80.2342 135.249 80.0586 134.891 79.7313 134.779C79.4027 134.666 79.0464 134.842 78.9348 135.17C76.134 143.353 72.6082 149.894 68.4552 154.611C63.5522 160.178 57.6521 163.334 50.9178 163.992C43.7446 164.692 37.3277 162.682 31.8477 158.017C26.0867 153.114 21.2339 145.077 17.8122 134.776C15.1845 126.867 13.8562 119.074 13.4573 114.118C13.8587 114.137 14.4394 114.149 15.2735 114.148C16.8878 114.148 18.8144 114.095 20.6983 114.002C23.4941 113.864 28.3708 113.521 31.1164 112.744C31.884 115.124 34.8216 123.831 38.2822 128.911C40.437 132.075 43.9101 134.758 47.1964 132.798C49.7012 131.305 50.6206 127.058 51.2929 123.958C51.4471 123.248 51.5914 122.577 51.7356 122.035C52.3126 119.865 52.8494 117.611 53.3674 115.434C54.7522 109.61 56.1846 103.588 58.6116 98.1869C62.6291 89.2469 67.8645 79.1935 76.2356 72.4124C78.4306 70.6342 82.6977 67.8168 85.6866 66.8127C86.4066 67.9512 88.4222 71.0954 89.299 72.0191C93.2951 76.2277 99.5314 78.6167 108.364 79.3204C112.351 79.6383 116.108 79.1646 119.53 77.9104C122.303 76.895 124.868 75.3669 127.155 73.3688C130.741 70.2334 132.621 66.8592 133.262 65.5535L133.278 65.5208C133.298 65.4856 133.314 65.4492 133.327 65.409C133.437 65.0797 133.259 64.7241 132.932 64.6135C132.845 64.5846 132.397 64.4652 132.137 64.998C131.528 66.2359 129.745 69.4366 126.329 72.4212C121.411 76.7216 115.401 78.6217 108.463 78.0675C99.9529 77.3889 93.9812 75.1269 90.2071 71.152C89.4043 70.3063 87.252 66.9559 86.4906 65.7357C86.3426 65.4982 86.0554 65.3876 85.787 65.4643C82.4456 66.4181 77.6705 69.6327 75.4454 71.4347C66.8698 78.3817 61.5441 88.596 57.4665 97.6704C54.9905 103.18 53.5443 109.261 52.1458 115.142C51.629 117.312 51.0959 119.558 50.5227 121.711C50.371 122.281 50.223 122.966 50.0662 123.69C49.4428 126.565 48.5899 130.504 46.5542 131.718C43.2755 133.672 39.9504 129.133 39.3169 128.203C35.4726 122.56 32.155 111.878 32.1224 111.772C32.0722 111.608 31.9568 111.473 31.8038 111.395C31.6507 111.318 31.4739 111.307 31.3121 111.364C27.1918 112.837 14.4282 113.042 13.0397 112.83C12.9468 112.786 12.8427 112.764 12.7336 112.772C12.3874 112.795 12.1265 113.094 12.1479 113.439V113.443C12.4715 118.417 13.8161 126.736 16.6194 135.175C20.164 145.844 25.0131 153.852 31.0336 158.976C36.0382 163.236 41.7879 165.385 48.1571 165.385L48.1597 165.384ZM13.3595 113.164C13.3808 113.217 13.3946 113.273 13.4009 113.336C13.3946 113.276 13.3808 113.218 13.3595 113.164ZM133.265 65.5434C133.136 65.752 132.849 65.9091 132.537 65.8036C132.816 65.8978 133.115 65.7822 133.265 65.5434Z" fill="#022821"/>
<path d="M55.0019 83.1532C55.4559 82.413 56.492 82.217 57.321 82.4721C58.8375 82.9396 64.8643 88.8347 66.2102 89.9921C65.7059 89.4467 60.6323 83.95 60.157 83.3769C59.2263 82.2547 57.7738 80.7856 57.3963 79.3266C56.8996 77.4052 58.5941 76.2214 60.522 77.2154C63.0807 78.5349 68.9156 84.2327 71.4342 86.9233C68.9608 84.2415 66.2553 81.7244 63.7154 79.1105C62.1864 77.5371 60.6587 75.9625 59.1197 74.398C58.1978 73.4605 56.7491 72.6562 56.0693 71.4435C54.9542 69.4554 56.1696 67.9889 58.3997 68.9C64.103 71.2299 69.2054 75.6433 73.564 79.9085C78.6113 84.8472 82.6538 90.7461 85.8146 97.0483C88.8375 103.077 90.3915 109.663 93.4206 115.661C94.7978 118.389 94.9471 119.067 96.9414 122.303C96.3444 122.578 95.3848 123.128 94.789 123.406C89.6176 125.825 84.4663 128.315 79.0503 130.147C78.8885 130.202 78.0945 130.255 77.9315 130.308C75.3288 122.388 72.4164 114.574 68.8266 107.064C65.3196 99.7263 60.8067 92.8774 55.851 86.3917C55.1285 85.4467 54.3797 84.1686 55.0019 83.1545V83.1532Z" fill="white"/>
<path d="M77.3961 129.656C77.4551 129.656 77.514 129.647 77.573 129.631C77.642 129.616 77.864 129.591 78.0132 129.574C78.4083 129.53 78.5827 129.508 78.7156 129.463C83.6663 127.787 88.4577 125.539 93.0923 123.365C93.5676 123.141 94.0442 122.919 94.5196 122.695C94.8244 122.553 95.2145 122.345 95.592 122.145C95.9784 121.94 96.3772 121.728 96.6682 121.593C96.8313 121.518 96.9542 121.376 97.0069 121.204C97.0583 121.031 97.0345 120.845 96.9404 120.692C95.5306 118.405 95.5904 118.695 94.9332 117.324C94.671 116.777 94.3737 116.157 93.9799 115.376C92.4748 112.395 91.312 109.195 90.1869 106.101C89.0606 103.001 87.8954 99.7967 86.3752 96.7656C82.9773 89.9896 78.8156 84.1674 74.0029 79.4586C70.0306 75.5717 64.6936 70.7926 58.6379 68.3182C57.3397 67.7879 56.1707 67.9198 55.5097 68.6713C54.8537 69.4153 54.86 70.5676 55.5248 71.7527C56.0252 72.6449 56.8342 73.2959 57.6169 73.9242C58.007 74.2384 58.377 74.535 58.6755 74.8391C59.186 75.3581 59.6978 75.8809 60.2083 76.4049C59.2262 76.0857 58.2503 76.2076 57.558 76.7631C56.7954 77.3738 56.5081 78.3917 56.7916 79.485C57.0613 80.5268 57.7913 81.5397 58.5263 82.4282C58.1111 82.1454 57.7662 81.9531 57.5078 81.874C56.483 81.5573 55.1096 81.7835 54.4699 82.8265C53.5204 84.3735 54.9014 86.1819 55.3554 86.775C60.8893 94.016 65.1113 100.742 68.2633 107.337C71.4529 114.011 73.8026 120.094 76.8041 129.226C76.8906 129.49 77.1365 129.659 77.3999 129.659L77.3961 129.656ZM77.588 129.626C77.588 129.626 77.583 129.627 77.5792 129.628C77.5818 129.628 77.5855 129.627 77.588 129.626ZM78.3293 128.266C78.2541 128.282 78.017 128.309 77.874 128.325C77.8577 128.326 77.8426 128.329 77.8263 128.33C74.8675 119.376 72.5454 113.393 69.3909 106.791C66.2012 100.117 61.9342 93.3198 56.3476 86.0084C55.4784 84.8699 55.2037 84.0204 55.5348 83.4825C55.8258 83.0075 56.5771 82.9007 57.1353 83.0728C58.15 83.3858 62.1863 87.1344 64.1267 88.9365C64.8767 89.6327 65.4687 90.1819 65.8011 90.4684C66.0532 90.6846 66.4308 90.667 66.6616 90.4269C66.8923 90.1869 66.8961 89.8086 66.6691 89.5636C65.9868 88.8259 61.0863 83.5139 60.6385 82.9736C60.4754 82.7775 60.2973 82.5714 60.1129 82.3565C59.2964 81.4103 58.2792 80.2327 58.0032 79.1671C57.8464 78.5588 57.9681 78.0398 58.3394 77.742C58.7834 77.3864 59.5096 77.3977 60.2359 77.7722C62.6554 79.0201 68.4263 84.6261 70.9776 87.3506C71.2134 87.6032 71.6097 87.6157 71.8618 87.3807C72.1152 87.1445 72.129 86.7486 71.8957 86.4948C70.3956 84.8674 68.7913 83.2827 67.2385 81.7483C66.2213 80.743 65.1702 79.7037 64.1643 78.6694L63.6713 78.163C62.3293 76.7819 60.9408 75.3531 59.5661 73.9544C59.2161 73.5987 58.801 73.2645 58.3996 72.9415C57.7097 72.3873 56.9973 71.813 56.616 71.1331C56.2309 70.4457 56.167 69.8199 56.4492 69.4995C56.7364 69.1727 57.3936 69.1652 58.1638 69.4793C64.0175 71.8708 69.2354 76.5482 73.1262 80.3546C77.8385 84.9654 81.92 90.6757 85.2538 97.3261C86.7414 100.292 87.8941 103.462 89.0079 106.529C90.1456 109.658 91.3208 112.893 92.8598 115.94C93.2487 116.71 93.5422 117.324 93.8018 117.864C94.4164 119.146 94.3403 118.823 95.5143 120.761C95.3475 120.848 95.1744 120.94 95.005 121.03C94.6413 121.224 94.265 121.424 93.9891 121.553C93.5124 121.775 93.0358 121.999 92.5604 122.223C87.9635 124.381 83.2085 126.611 78.3306 128.262L78.3293 128.266Z" fill="#022821"/>
<path d="M96.7895 121.496L93.4034 116.503L75.6286 123.435L78.3716 131.664L96.7895 121.496Z" fill="#088D73"/>
<path d="M128.389 173.985C130.902 173.985 133.482 173.83 136.096 173.516C145.952 172.333 154.914 169.076 161.331 164.346C166.605 160.458 170.812 155.556 173.836 149.774C176.707 144.284 178.514 138.006 179.204 131.114C180.566 117.505 176.676 103.287 168.252 91.0791C159.76 78.7712 147.215 69.3713 132.933 64.611C132.604 64.5004 132.249 64.6801 132.14 65.0093C132.031 65.3386 132.209 65.6942 132.538 65.8035C146.565 70.4796 158.883 79.71 167.221 91.7942C175.476 103.757 179.289 117.677 177.957 130.99C177.283 137.721 175.523 143.845 172.728 149.19C169.793 154.802 165.709 159.559 160.59 163.333C152.353 169.405 140.052 172.723 128.481 172.723C121.767 172.723 115.3 171.607 110.013 169.263C104.872 166.985 100.206 163.933 96.146 160.193C92.6716 156.992 89.5409 153.192 86.8392 148.899C81.8923 141.036 79.2746 133.069 77.3631 127.253C76.9253 125.921 76.5365 124.736 76.1665 123.7C82.3451 122.61 90.5581 118.052 93.1733 116.533C93.2962 116.753 93.453 117.03 93.655 117.383C94.1429 118.238 94.7951 119.371 95.4473 120.492C96.2426 121.859 98.139 125.104 98.568 125.696C103.032 131.853 107.958 138.137 114.746 141.368C118.287 143.054 122.135 143.895 125.893 143.895C129.768 143.895 133.548 143 136.804 141.214C142.182 138.262 145.582 133.14 146.379 126.791C146.422 126.447 146.178 126.133 145.835 126.09C145.491 126.047 145.177 126.291 145.135 126.636C144.747 129.727 143.73 132.484 142.112 134.828C140.607 137.009 138.617 138.788 136.202 140.113C130.136 143.442 122.121 143.489 115.285 140.234C108.764 137.13 103.954 130.986 99.584 124.958C98.9255 124.049 94.311 116.036 94.0087 115.442C93.892 115.128 93.5496 114.96 93.2285 115.063C93.1984 115.073 93.1733 115.083 93.1495 115.094C93.1319 115.103 93.1144 115.112 93.0981 115.122C93.0843 115.129 93.0692 115.138 93.0517 115.148C91.2141 116.239 81.7179 121.723 75.2345 122.572C75.0452 122.597 74.8771 122.707 74.778 122.871C74.6789 123.035 74.6613 123.235 74.7291 123.415C75.1681 124.586 75.6347 126.003 76.1727 127.643C79.9356 139.094 86.9408 160.41 109.507 170.412C114.819 172.766 121.345 173.984 128.39 173.984L128.389 173.985Z" fill="#022821"/>
</g>
<path d="M98.1028 14.467C96.7432 15.2813 95.6068 16.9062 94.9332 18.2169C94.2973 19.4547 94.1029 20.9024 93.482 22.1189C93.0067 23.0501 92.806 22.5952 92.4736 21.7105C92.1751 20.9162 92.0158 16.0202 92.1061 14.6869C92.3983 10.3438 93.5887 5.63628 97.0969 2.75974C99.973 0.400953 103.797 -0.175863 107.408 0.0427992C111.798 0.307958 116.134 1.49049 120.187 3.17444C124.24 4.85839 128.366 6.47071 132.167 8.70634C133.842 9.69158 135.581 10.9759 136.002 12.876C136.395 14.6429 135.518 16.4513 134.413 17.8814C131.757 21.3184 128.346 25.0193 128.263 29.6929C128.261 29.8575 128.237 30.0573 128.092 30.1264C127.91 30.2131 127.73 30.0146 127.622 29.8412C127.063 28.9401 126.492 28.117 125.949 27.216C124.904 25.4378 123.626 23.3504 122.221 21.8751C120.542 20.1107 118.145 18.8993 115.773 19.3014C113.213 19.735 110.869 21.9593 108.354 21.3347C106.282 20.8207 105.134 18.6153 103.909 16.8082C102.889 15.3039 100.956 13.488 98.9783 14.0736C98.6773 14.1628 98.385 14.2973 98.1016 14.467H98.1028Z" fill="#022821"/>
<defs>
<clipPath id="clip0_958_3326">
<rect width="179.471" height="173.985" fill="white" transform="matrix(-1 0 0 1 179.471 0.00012207)"/>
</clipPath>
</defs>
</svg>
