<svg width="124" height="169" viewBox="0 0 124 169" fill="none" xmlns="http://www.w3.org/2000/svg">
<path d="M85.9682 8.94199L5.0409 23.1207C2.25864 23.6082 0.398142 26.2591 0.88536 29.0418L24.3914 163.292C24.8786 166.074 27.5291 167.935 30.3113 167.447L111.239 153.269C114.021 152.781 115.881 150.13 115.394 147.348L91.8881 13.0978C91.4009 10.3151 88.7504 8.45453 85.9682 8.94199Z" fill="#07A6CC"/>
<path d="M17.4895 26.7218L15.0637 37.3907L12.3467 37.8667L8.90881 30.2956C8.6977 29.8278 8.55869 29.6688 8.14346 29.5282C7.46672 29.3012 6.39124 29.1651 5.45914 29.1271L5.46983 28.8278L9.84275 28.0616C10.3996 27.964 10.9658 28.2464 11.2069 28.8683L13.2956 34.4311L14.7876 27.1982L17.4871 26.7252L17.4895 26.7218ZM29.3081 31.5504C28.8604 28.9244 25.1971 29.419 25.0181 28.2423C24.9646 27.8851 25.2364 27.4468 25.9625 27.2175C26.3211 27.1035 27.3295 26.8908 28.5739 27.2197L28.6568 25.0326C27.9994 24.9164 27.1658 24.8401 26.1746 25.0137C23.6324 25.4591 22.0817 27.1221 22.4061 29.0606C22.6392 30.4952 24.0735 31.0672 25.1304 31.3719C26.2185 31.683 26.6084 31.9363 26.682 32.3741C26.7931 33.0428 26.0517 33.4762 25.3133 33.6176C24.0254 33.8643 23.2113 33.6253 22.5652 33.453L22.48 35.7126C23.1291 35.8844 24.2787 35.9293 25.4323 35.7392C28.1319 35.2662 29.6647 33.6214 29.3121 31.5557M36.5912 33.6248L38.9701 33.208L35.1542 23.6327L32.959 24.0173C32.4663 24.1037 32.1 24.4653 31.9934 24.9378L29.749 34.8236L32.4486 34.3506L32.7252 32.7727L36.0224 32.195L36.5912 33.6248ZM33.1059 30.6055L33.8052 26.6366L35.237 30.2321L33.1059 30.6055ZM21.1667 26.0835L20.7816 36.3948L18.2104 36.8453L18.5954 26.534L21.1667 26.0835Z" fill="white"/>
<path d="M87.119 21.7086C87.0491 21.7209 86.976 21.7156 86.9053 21.689C86.6905 21.6124 86.5796 21.3734 86.6596 21.161C87.4496 18.9971 87.0229 16.5596 85.5447 14.7932C85.3997 14.6172 85.4205 14.3582 85.5964 14.2131C85.7723 14.0681 86.0314 14.0888 86.1764 14.2648C87.8442 16.2564 88.3256 19.0059 87.4337 21.4461C87.3808 21.5906 87.2566 21.6875 87.1166 21.712L87.119 21.7086ZM85.4986 21.2232C85.4286 21.2355 85.3556 21.2302 85.2848 21.2036C85.0701 21.127 84.9591 20.888 85.0391 20.6757C85.6445 19.0189 85.3173 17.15 84.1851 15.7977C84.0401 15.6218 84.0609 15.3627 84.2368 15.2177C84.4122 15.0697 84.6718 15.0934 84.8168 15.2693C86.1386 16.8468 86.5205 19.0277 85.8132 20.9607C85.7604 21.1052 85.6361 21.2021 85.4962 21.2267L85.4986 21.2232ZM83.9467 20.7348C83.8797 20.7466 83.8066 20.7414 83.7364 20.7176C83.5217 20.641 83.4112 20.4049 83.4878 20.1902C83.9103 19.0163 83.6785 17.6926 82.8824 16.7322C82.7374 16.5562 82.7611 16.2967 82.937 16.1516C83.1129 16.0066 83.3725 16.0303 83.5175 16.2062C84.4998 17.3894 84.7862 19.0251 84.2643 20.4718C84.2114 20.6163 84.0872 20.7132 83.9472 20.7378L83.9467 20.7348ZM82.4041 20.2989C82.3283 20.3122 82.246 20.3056 82.1678 20.2712C81.9598 20.1814 81.8629 19.937 81.9556 19.7284C82.2531 19.0422 82.1199 18.2812 81.607 17.737C81.4518 17.5718 81.457 17.3095 81.6221 17.1543C81.7873 16.9992 82.0496 17.0043 82.2047 17.1695C82.9385 17.9454 83.1366 19.0767 82.7101 20.056C82.6523 20.1893 82.5353 20.276 82.4041 20.2989Z" fill="white"/>
<path d="M36.1685 133.351C29.6292 134.497 25.3102 139.04 27.4841 144.369C27.527 144.494 27.6599 144.567 27.7882 144.544L33.1234 143.609C33.2838 143.581 33.3723 143.4 33.3239 143.244C32.4459 140.666 34.0491 138.924 36.9879 138.409C41.0666 137.695 42.9435 140.263 43.6223 144.14C41.7598 144.04 39.6828 144.14 37.6916 144.489C30.505 145.748 26.5652 149.642 27.4661 154.788C28.2434 159.228 32.1617 161.802 37.5611 160.856C41.7447 160.123 44.5253 157.691 45.8364 154.093L46.5674 158.268C46.5934 158.417 46.7304 158.513 46.8791 158.487L51.7013 157.642C51.8412 157.618 51.9461 157.479 51.9201 157.33L49.4333 143.125C48.1915 136.031 43.6092 132.05 36.1661 133.355M37.9263 156.008C35.4219 156.447 33.705 155.651 33.3467 153.604C32.9363 151.26 34.7136 149.38 38.8885 148.648C40.7223 148.327 42.8152 148.267 44.5973 148.525C44.2822 152.424 41.6459 155.353 37.9287 156.005" fill="white"/>
<path d="M78.7179 152.47L67.1808 141.168L73.3902 127.993C73.4883 127.799 73.3177 127.579 73.1049 127.616L67.0233 128.682C66.9388 128.697 66.8614 128.753 66.8309 128.836L62.8337 137.671L56.0206 130.73C55.9548 130.664 55.8719 130.636 55.7757 130.653L49.8137 131.698C49.6008 131.735 49.5154 132.002 49.6733 132.149L60.0948 142.451L53.0327 156.968C52.9361 157.172 53.1072 157.394 53.32 157.357L59.3258 156.304C59.422 156.287 59.4901 156.23 59.5298 156.148L64.2903 145.974L72.1711 153.933C72.2368 154 72.3197 154.027 72.4043 154.012L78.582 152.93C78.7949 152.893 78.8803 152.625 78.7203 152.467" fill="white"/>
<path d="M76.769 115.516C74.6813 115.881 73.3388 117.809 73.7043 119.896C74.0698 121.984 75.9851 123.328 78.0728 122.963C80.1605 122.597 81.5051 120.681 81.1395 118.594C80.774 116.506 78.8567 115.15 76.769 115.516ZM81.3135 126.178L76.0213 127.106C75.8726 127.132 75.7764 127.269 75.8024 127.417L80.1727 152.379C80.1987 152.528 80.3358 152.624 80.4845 152.598L85.7766 151.671C85.9137 151.647 86.0216 151.508 85.9955 151.359L81.6252 126.397C81.5992 126.248 81.4505 126.154 81.3135 126.178Z" fill="white"/>
<path d="M91.3915 131.779C91.0709 129.948 92.7744 128.264 95.7219 127.748C99.1096 127.154 101.69 128.61 101.691 131.432C101.687 131.598 101.832 131.738 102.004 131.707L107.115 130.812C107.243 130.789 107.341 130.661 107.339 130.532C107.248 124.742 101.695 121.872 94.9453 123.055C88.7908 124.133 84.5862 128.076 85.479 133.176C87.1475 142.707 102.915 136.17 103.805 141.257C104.128 143.1 102.264 144.677 99.1449 145.223C95.2877 145.899 92.6409 144.443 92.3096 141.418C92.2932 141.255 92.1541 141.148 92.0054 141.174L86.9471 142.06C86.7984 142.086 86.6906 142.225 86.7151 142.365C87.515 148.427 92.8331 151.171 99.9263 149.928C106.55 148.767 110.667 144.938 109.766 139.795C108.072 130.115 92.2942 136.919 91.3938 131.776" fill="white"/>
<path d="M60.8123 102.743C68.858 101.333 74.2383 93.6673 72.8295 85.6207C71.4208 77.5741 63.7564 72.1939 55.7107 73.6037C47.6649 75.0135 42.2846 82.6794 43.6934 90.7259C45.1021 98.7725 52.7665 104.153 60.8123 102.743Z" fill="white"/>
<path d="M100.298 4.29359L18.523 12.2445C15.7116 12.5178 13.654 15.0189 13.9272 17.8307L27.108 153.49C27.3812 156.302 29.8818 158.36 32.6932 158.086L114.468 150.135C117.28 149.862 119.337 147.361 119.064 144.549L105.883 8.88996C105.61 6.0781 103.11 4.02024 100.298 4.29359Z" fill="#EBA6BC"/>
<path d="M30.6611 16.7879L27.4273 27.2407L24.6817 27.5077L21.8323 19.6955C21.6575 19.2129 21.5311 19.0438 21.1278 18.8718C20.4703 18.5937 19.4084 18.3758 18.4819 18.2666L18.5154 17.9689L22.9342 17.5393C23.4968 17.4846 24.0399 17.8095 24.2327 18.448L25.8904 24.1545L27.9306 17.0564L30.6585 16.7912L30.6611 16.7879ZM42.0766 22.5062C41.8307 19.8535 38.1403 20.0667 38.0517 18.8797C38.0257 18.5194 38.3302 18.1032 39.0716 17.93C39.4379 17.8438 40.4597 17.7088 41.6754 18.1318L41.925 15.9573C41.2785 15.7912 40.4531 15.6514 39.4515 15.7488C36.8827 15.9986 35.2094 17.5382 35.3847 19.4959C35.5076 20.9442 36.894 21.6243 37.9246 22.0088C38.9857 22.4023 39.3551 22.6846 39.3951 23.1268C39.4548 23.8021 38.6824 24.1775 37.9353 24.2621C36.6323 24.4096 35.8389 24.1091 35.2078 23.8879L34.9503 26.1345C35.5843 26.3554 36.7272 26.4881 37.8919 26.3868C40.6198 26.1215 42.2739 24.5986 42.0801 22.5118M49.18 25.1315L51.5838 24.8978L48.5106 15.0582L46.2924 15.2739C45.7945 15.3223 45.4016 15.655 45.2592 16.1179L42.2661 25.8038L44.9939 25.5386L45.3903 23.9862L48.722 23.6623L49.18 25.1315ZM45.9355 21.8544L46.936 17.9504L48.0889 21.645L45.9355 21.8544ZM34.3764 16.4326L33.2046 26.6849L30.6064 26.9376L31.7782 16.6853L34.3764 16.4326Z" fill="white"/>
<path d="M100.473 17.112C100.402 17.1188 100.33 17.108 100.261 17.076C100.053 16.9833 99.9604 16.7365 100.056 16.5308C101.009 14.4337 100.77 11.9706 99.4307 10.0961C99.2996 9.90961 99.3401 9.65288 99.5265 9.52174C99.713 9.39061 99.9697 9.4311 100.101 9.61763C101.612 11.7312 101.882 14.5095 100.807 16.8743C100.743 17.0144 100.612 17.1015 100.47 17.1152L100.473 17.112ZM98.894 16.504C98.8233 16.5108 98.7509 16.5 98.6824 16.468C98.4741 16.3753 98.3817 16.1285 98.4777 15.9228C99.2078 14.3173 99.0241 12.4287 97.9984 10.9937C97.8673 10.8072 97.9077 10.5504 98.0942 10.4193C98.2804 10.2852 98.5374 10.3287 98.6686 10.5152C99.8662 12.1892 100.081 14.3931 99.2278 16.2663C99.1641 16.4064 99.0328 16.4935 98.8914 16.5072L98.894 16.504ZM97.3839 15.8982C97.3162 15.9048 97.2438 15.894 97.1755 15.865C96.9672 15.7722 96.8751 15.5283 96.9679 15.32C97.4787 14.1819 97.3487 12.8443 96.6281 11.8257C96.497 11.6392 96.5404 11.3822 96.7269 11.2511C96.9134 11.1199 97.1704 11.1634 97.3015 11.3499C98.1908 12.6048 98.3515 14.2577 97.7206 15.6603C97.6569 15.8003 97.5256 15.8874 97.3842 15.9012L97.3839 15.8982ZM95.879 15.3455C95.8024 15.353 95.7208 15.3401 95.6455 15.2998C95.445 15.1944 95.367 14.9432 95.4754 14.7423C95.8244 14.0809 95.7496 13.3119 95.2797 12.73C95.1376 12.5535 95.1628 12.2923 95.3393 12.1502C95.5158 12.0082 95.777 12.0333 95.919 12.2099C96.5915 13.0398 96.7027 14.1829 96.2027 15.1267C96.1349 15.2552 96.0115 15.3327 95.879 15.3455Z" fill="white"/>
<path d="M41.1381 124.537C34.5303 125.18 29.8768 129.379 31.6372 134.859C31.6704 134.987 31.7974 135.069 31.9271 135.057L37.3182 134.533C37.4802 134.517 37.5823 134.343 37.546 134.183C36.8675 131.546 38.5991 129.932 41.5687 129.643C45.6901 129.242 47.3653 131.946 47.7459 135.865C45.8964 135.623 43.8179 135.563 41.8058 135.759C34.544 136.465 30.3181 140.046 30.8232 145.246C31.2591 149.734 34.9693 152.6 40.4252 152.069C44.6527 151.658 47.6109 149.446 49.1932 145.958L49.603 150.177C49.6176 150.327 49.7469 150.434 49.8971 150.419L54.7698 149.945C54.9112 149.932 55.0264 149.801 55.0118 149.651L53.6175 135.297C52.9213 128.129 48.6565 123.809 41.1354 124.54M41.1598 147.263C38.6292 147.509 36.9781 146.584 36.7772 144.516C36.5471 142.147 38.4629 140.408 42.6815 139.998C44.5345 139.818 46.6259 139.918 48.383 140.312C47.771 144.175 44.9186 146.894 41.1625 147.26" fill="white"/>
<path d="M82.1035 146.854L71.4635 134.701L78.6613 122.04C78.7741 121.853 78.6207 121.621 78.4056 121.642L72.2604 122.24C72.1749 122.248 72.0935 122.298 72.0568 122.379L67.3962 130.883L61.1332 123.441C61.0727 123.37 60.9921 123.336 60.8949 123.345L54.8704 123.931C54.6553 123.952 54.5498 124.212 54.696 124.37L64.3 135.44L56.1494 149.375C56.0375 149.57 56.1911 149.805 56.4062 149.784L62.4749 149.194C62.5721 149.184 62.6444 149.133 62.6903 149.054L68.2142 139.273L75.4639 147.812C75.5244 147.883 75.605 147.917 75.6904 147.909L81.9329 147.301C82.148 147.281 82.2535 147.02 82.1062 146.85" fill="white"/>
<path d="M82.984 109.856C80.8744 110.061 79.3886 111.88 79.5935 113.99C79.7984 116.099 81.6054 117.586 83.715 117.381C85.8245 117.176 87.3116 115.369 87.1066 113.259C86.9017 111.149 85.0936 109.651 82.984 109.856ZM86.7005 120.835L81.3529 121.355C81.2027 121.37 81.0962 121.499 81.1108 121.649L83.5611 146.873C83.5757 147.023 83.705 147.13 83.8553 147.115L89.2029 146.595C89.3414 146.582 89.4596 146.451 89.445 146.301L86.9947 121.077C86.9801 120.927 86.839 120.822 86.7005 120.835Z" fill="white"/>
<path d="M96.3216 127.191C96.1419 125.34 97.969 123.792 100.947 123.502C104.371 123.169 106.833 124.818 106.618 127.632C106.601 127.797 106.735 127.947 106.909 127.931L112.073 127.428C112.203 127.416 112.31 127.295 112.318 127.166C112.67 121.386 107.352 118.1 100.532 118.763C94.3127 119.368 89.8191 122.978 90.3196 128.131C91.2552 137.763 107.476 132.45 107.975 137.591C108.156 139.453 106.177 140.883 103.025 141.189C99.1277 141.568 96.5999 139.914 96.5007 136.872C96.4967 136.709 96.3663 136.59 96.216 136.605L91.1048 137.102C90.9545 137.117 90.8364 137.247 90.8501 137.389C91.1845 143.495 96.2775 146.637 103.445 145.94C110.138 145.289 114.535 141.786 114.031 136.588C113.08 126.807 96.8291 132.385 96.3243 127.187" fill="white"/>
<path d="M68.0498 95.901C76.1798 95.1105 82.1301 87.878 81.3402 79.7469C80.5503 71.6158 73.3192 65.6651 65.1892 66.4557C57.0592 67.2463 51.1089 74.4787 51.8988 82.6098C52.6887 90.7409 59.9198 96.6916 68.0498 95.901Z" fill="white"/>
<path d="M118.885 0H36.7227C33.8979 0 31.608 2.29035 31.608 5.11563V141.423C31.608 144.248 33.8979 146.539 36.7227 146.539H118.885C121.71 146.539 124 144.248 124 141.423V5.11563C124 2.29035 121.71 0 118.885 0Z" fill="#0BCCA7"/>
<path d="M48.3667 5.69905L44.1371 15.7912H41.3785L39.2977 7.73879C39.1705 7.24144 39.0609 7.06085 38.6762 6.85066C38.0487 6.51021 37.0127 6.19048 36.1011 5.99213L36.1632 5.69905H40.603C41.1684 5.69905 41.6775 6.07503 41.8077 6.72928L42.9058 12.5702L45.6229 5.70201H48.3638L48.3667 5.69905ZM59.1761 12.4962C59.188 9.83181 55.4941 9.68675 55.5207 8.49666C55.5296 8.13549 55.8729 7.75063 56.6277 7.64997C57.0007 7.59965 58.0307 7.56412 59.1998 8.10292L59.6586 5.96253C59.0311 5.73458 58.2231 5.5155 57.2167 5.5155C54.6357 5.5155 52.8213 6.88618 52.8065 8.85191C52.7888 10.3055 54.1029 11.1166 55.0915 11.5992C56.1097 12.0936 56.4501 12.4103 56.4472 12.8544C56.4412 13.5323 55.6362 13.8314 54.8844 13.8432C53.5731 13.8639 52.8125 13.4879 52.2057 13.2067L51.7321 15.4181C52.3418 15.6994 53.4666 15.9421 54.6357 15.954C57.3766 15.954 59.1702 14.5981 59.1791 12.5021M65.9927 15.7971H68.408L66.3005 5.70497H64.0718C63.5715 5.70497 63.1483 5.99805 62.9618 6.44508L59.0459 15.7971H61.7867L62.3314 14.2902H65.679L65.9927 15.7971ZM63.0802 12.2209L64.4536 8.43153L65.2439 12.2209H63.0802ZM52.0991 5.70497L49.9414 15.7971H47.3308L49.4885 5.70497H52.0991Z" fill="white"/>
<path d="M117.823 12.7777C117.752 12.7777 117.681 12.76 117.615 12.7215C117.417 12.609 117.349 12.3544 117.465 12.159C118.616 10.1637 118.616 7.68874 117.465 5.69341C117.352 5.49506 117.417 5.24342 117.615 5.13092C117.814 5.01843 118.065 5.08356 118.178 5.28191C119.477 7.53184 119.477 10.3235 118.178 12.5735C118.101 12.7067 117.962 12.7807 117.82 12.7807L117.823 12.7777ZM116.31 12.0199C116.239 12.0199 116.168 12.0021 116.103 11.9636C115.905 11.8511 115.837 11.5965 115.952 11.4011C116.834 9.87354 116.834 7.9759 115.952 6.44832C115.84 6.24997 115.905 5.99833 116.103 5.88584C116.301 5.77038 116.553 5.83847 116.665 6.03682C117.695 7.819 117.695 10.0334 116.665 11.8156C116.588 11.9488 116.449 12.0228 116.307 12.0228L116.31 12.0199ZM114.866 11.2709C114.798 11.2709 114.727 11.2531 114.662 11.2176C114.463 11.1051 114.395 10.8534 114.508 10.6551C115.126 9.57158 115.126 8.22754 114.508 7.14402C114.395 6.94567 114.463 6.69404 114.662 6.58154C114.86 6.46904 115.111 6.53713 115.224 6.73548C115.988 8.07064 115.988 9.73144 115.224 11.0666C115.147 11.1998 115.008 11.2738 114.866 11.2738V11.2709ZM113.421 10.5752C113.344 10.5752 113.265 10.5544 113.193 10.5071C113.004 10.3827 112.951 10.1252 113.078 9.93571C113.489 9.31106 113.489 8.53839 113.078 7.91373C112.954 7.72427 113.004 7.46671 113.193 7.34237C113.383 7.21803 113.64 7.26836 113.765 7.45783C114.354 8.34892 114.354 9.49757 113.765 10.3887C113.685 10.51 113.555 10.5752 113.421 10.5752Z" fill="white"/>
<path d="M48.3725 113.962C41.7335 113.962 36.6959 117.692 37.9183 123.317C37.939 123.447 38.0574 123.542 38.1876 123.542H43.6042C43.767 123.542 43.8854 123.379 43.8646 123.216C43.4443 120.525 45.3238 119.087 48.3074 119.087C52.4482 119.087 53.8542 121.94 53.8542 125.878C52.0368 125.457 49.9738 125.197 47.9522 125.197C40.6561 125.197 36.1039 128.353 36.1039 133.578C36.1039 138.087 39.5196 141.299 45.0012 141.299C49.2486 141.299 52.4068 139.383 54.3189 136.065V140.304C54.3189 140.455 54.4373 140.573 54.5882 140.573H59.4838C59.6259 140.573 59.7532 140.455 59.7532 140.304V125.881C59.7532 118.678 55.9261 113.965 48.3695 113.965M46.197 136.586C43.6545 136.586 42.1006 135.505 42.1006 133.427C42.1006 131.047 44.1754 129.501 48.4139 129.501C50.2757 129.501 52.3476 129.803 54.0584 130.366C53.0757 134.152 49.9738 136.583 46.2 136.583" fill="white"/>
<path d="M86.9899 140.141L77.5746 127.014L85.9628 115.107C86.0931 114.933 85.9628 114.687 85.7468 114.687H79.5725C79.4867 114.687 79.4008 114.728 79.3564 114.805L73.8955 122.819L68.3813 114.805C68.328 114.728 68.251 114.687 68.1534 114.687H62.1005C61.8844 114.687 61.7542 114.936 61.8844 115.107L70.3733 127.056L60.9136 140.138C60.7833 140.321 60.9136 140.57 61.1296 140.57H67.2269C67.3246 140.57 67.4016 140.526 67.4548 140.452L73.8985 131.251L80.2888 140.452C80.3421 140.529 80.419 140.57 80.5049 140.57H86.7768C86.9929 140.57 87.1231 140.321 86.9929 140.138" fill="white"/>
<path d="M91.4446 103.399C89.3253 103.399 87.6708 105.065 87.6708 107.185C87.6708 109.305 89.3253 110.96 91.4446 110.96C93.5639 110.96 95.2184 109.305 95.2184 107.185C95.2184 105.065 93.5639 103.399 91.4446 103.399ZM94.0818 114.687H88.7097C88.5587 114.687 88.4403 114.805 88.4403 114.956V140.301C88.4403 140.451 88.5587 140.57 88.7097 140.57H94.0818C94.2209 140.57 94.3512 140.451 94.3512 140.301V114.956C94.3512 114.805 94.2209 114.687 94.0818 114.687Z" fill="white"/>
<path d="M103.044 121.943C103.044 120.084 105.013 118.719 108.005 118.719C111.444 118.719 113.735 120.599 113.25 123.379C113.217 123.542 113.336 123.705 113.51 123.705H118.699C118.829 123.705 118.948 123.595 118.968 123.468C119.877 117.748 114.901 113.962 108.049 113.962C101.801 113.962 96.9795 117.121 96.9795 122.299C96.9795 131.976 113.638 128.258 113.638 133.424C113.638 135.295 111.53 136.526 108.363 136.526C104.447 136.526 102.091 134.635 102.287 131.597C102.298 131.435 102.18 131.304 102.029 131.304H96.8937C96.7427 131.304 96.6125 131.423 96.6125 131.565C96.355 137.675 101.12 141.296 108.322 141.296C115.046 141.296 119.762 138.235 119.762 133.012C119.762 123.184 103.047 127.163 103.047 121.94" fill="white"/>
<path d="M77.9298 88.0638C86.0984 88.0638 92.7203 81.4406 92.7203 73.2705C92.7203 65.1004 86.0984 58.4772 77.9298 58.4772C69.7613 58.4772 63.1394 65.1004 63.1394 73.2705C63.1394 81.4406 69.7613 88.0638 77.9298 88.0638Z" fill="white"/>
</svg>
