<svg width="338" height="200" viewBox="0 0 338 200" fill="none" xmlns="http://www.w3.org/2000/svg">
<path d="M348.032 188.011C325.234 184.884 327.434 152.536 327.434 152.536L299.772 158.499C299.772 158.499 298.44 192.563 317.711 198.057C323.844 199.805 348.034 188.011 348.034 188.011H348.032Z" fill="#B6EFE4"/>
<path d="M319.207 198.785C322.359 198.785 327.782 197.25 335.385 194.205C342.14 191.498 348.223 188.539 348.284 188.509C348.508 188.401 348.632 188.162 348.592 187.921C348.551 187.679 348.357 187.493 348.111 187.458C343.057 186.765 338.861 184.525 335.636 180.796C333.037 177.791 331.052 173.816 329.738 168.98C327.483 160.686 327.994 152.651 327.998 152.571C328.01 152.396 327.939 152.226 327.803 152.112C327.669 151.997 327.486 151.953 327.313 151.989L299.651 157.952C299.399 158.006 299.216 158.221 299.207 158.474C299.204 158.559 298.895 167.167 300.962 176.334C302.183 181.74 303.978 186.29 306.301 189.853C309.237 194.356 313.022 197.294 317.553 198.586C318.007 198.717 318.56 198.78 319.207 198.78V198.785ZM346.214 188.258C343.98 189.308 339.627 191.303 334.952 193.176C323.844 197.626 319.53 197.997 317.868 197.522C313.609 196.307 310.037 193.526 307.255 189.256C305.003 185.802 303.259 181.375 302.068 176.095C300.293 168.224 300.295 160.781 300.327 158.947L326.838 153.232C326.768 155.433 326.739 162.243 328.637 169.242C329.995 174.245 332.056 178.371 334.765 181.507C337.797 185.017 341.643 187.282 346.215 188.256L346.214 188.258Z" fill="#9DE9DB"/>
<path d="M266.631 257.517L290.677 235.703L290.486 214.277L284.921 218.724L290.307 211.421L290.677 171.987L286.406 173.448L290.486 169.15V156.73L266.553 177.926L266.631 257.517Z" fill="#E3F6F2"/>
<path d="M266.631 258.074C266.77 258.074 266.908 258.023 267.014 257.926L291.06 236.112C291.178 236.005 291.244 235.854 291.243 235.698L291.05 214.272C291.049 214.059 290.923 213.865 290.726 213.773C290.528 213.683 290.297 213.71 290.127 213.845L287.908 215.618L290.763 211.747C290.832 211.653 290.869 211.54 290.871 211.426L291.243 171.992C291.244 171.811 291.157 171.64 291.007 171.534C290.856 171.428 290.664 171.401 290.491 171.461L288.38 172.182L290.898 169.53C290.997 169.427 291.05 169.292 291.05 169.15V156.73C291.05 156.511 290.919 156.311 290.714 156.222C290.511 156.133 290.271 156.169 290.105 156.317L266.172 177.513C266.053 177.618 265.985 177.769 265.985 177.926L266.064 257.517C266.064 257.738 266.196 257.938 266.403 258.026C266.476 258.058 266.554 258.072 266.63 258.072L266.631 258.074ZM290.11 235.462L267.197 256.249L267.119 178.174L289.921 157.981V168.932L285.994 173.069C285.816 173.257 285.792 173.538 285.934 173.753C286.077 173.967 286.348 174.059 286.594 173.975L290.106 172.774L289.744 211.24L284.465 218.399C284.299 218.625 284.328 218.938 284.535 219.131C284.742 219.323 285.06 219.334 285.28 219.158L289.932 215.44L290.111 235.463L290.11 235.462Z" fill="#9DE9DB"/>
<path d="M266.631 257.517L214.173 241.18L213.443 161.507L266.553 177.926L266.631 257.517Z" fill="#E3F6F2"/>
<path d="M266.633 258.074C266.752 258.074 266.869 258.037 266.967 257.966C267.113 257.861 267.198 257.694 267.198 257.516L267.119 177.924C267.119 177.681 266.959 177.467 266.723 177.394L213.614 160.973C213.441 160.919 213.254 160.951 213.108 161.058C212.963 161.164 212.877 161.331 212.879 161.509L213.609 241.183C213.611 241.423 213.771 241.636 214.004 241.709L266.461 258.047C266.518 258.064 266.574 258.072 266.633 258.072V258.074ZM265.988 178.334L266.065 256.758L214.736 240.771L214.017 162.267L265.988 178.334Z" fill="#9DE9DB"/>
<path d="M266.552 217.43C266.689 217.43 266.825 217.381 266.93 217.287L290.821 196.091C291.053 195.885 291.071 195.533 290.861 195.306C290.653 195.079 290.294 195.06 290.063 195.266L266.414 216.248L214.983 200.129C214.686 200.037 214.367 200.198 214.272 200.49C214.177 200.783 214.341 201.096 214.639 201.189L266.379 217.405C266.435 217.422 266.494 217.43 266.55 217.43H266.552Z" fill="#9DE9DB"/>
<path d="M266.389 208.338C266.629 208.338 266.852 208.185 266.928 207.947C267.021 207.653 266.854 207.341 266.557 207.251L236.503 198.07C236.204 197.979 235.887 198.143 235.795 198.435C235.703 198.729 235.869 199.041 236.166 199.131L266.22 208.312C266.277 208.33 266.334 208.338 266.389 208.338Z" fill="#9DE9DB"/>
<path d="M266.633 188.946C266.768 188.946 266.903 188.898 267.011 188.803L282.824 174.773C283.057 174.568 283.075 174.215 282.865 173.988C282.656 173.759 282.297 173.741 282.066 173.948L266.253 187.978C266.02 188.183 266.002 188.536 266.212 188.763C266.324 188.885 266.478 188.947 266.633 188.947V188.946Z" fill="#9DE9DB"/>
<path d="M260.548 187.066C260.792 187.066 261.017 186.91 261.09 186.668C261.179 186.374 261.009 186.065 260.71 185.977L229.213 176.737C228.913 176.648 228.598 176.817 228.509 177.111C228.42 177.405 228.59 177.715 228.889 177.802L260.387 187.042C260.44 187.058 260.495 187.066 260.548 187.066Z" fill="#9DE9DB"/>
<path d="M298.84 179.437L290.994 177.011L267.116 198.211L274.951 200.633L298.84 179.437Z" fill="#B6EFE4"/>
<path d="M274.951 201.189C275.088 201.189 275.224 201.14 275.329 201.046L299.218 179.851C299.368 179.717 299.435 179.514 299.392 179.32C299.349 179.124 299.203 178.967 299.009 178.908L290.846 176.388C290.549 176.295 290.231 176.459 290.137 176.752C290.043 177.044 290.21 177.357 290.507 177.449L297.726 179.679L274.812 200.01L222.011 183.685C221.712 183.593 221.395 183.755 221.302 184.049C221.208 184.342 221.374 184.655 221.672 184.747L274.781 201.167C274.836 201.185 274.894 201.193 274.951 201.193V201.189Z" fill="#9DE9DB"/>
<path d="M290.486 156.73C263.508 157.46 237.333 140.31 237.333 140.31L213.443 161.506C233.705 176.656 266.552 177.926 266.552 177.926L290.484 156.73H290.486Z" fill="#B6EFE4"/>
<path d="M266.552 178.482C266.691 178.482 266.827 178.431 266.93 178.339L290.863 157.143C291.039 156.988 291.097 156.74 291.01 156.524C290.922 156.307 290.707 156.163 290.468 156.174C276.643 156.551 263.026 152.094 254.036 148.293C244.276 144.164 237.71 139.89 237.645 139.847C237.43 139.706 237.144 139.727 236.952 139.897L213.061 161.093C212.937 161.204 212.867 161.363 212.875 161.53C212.882 161.695 212.964 161.849 213.098 161.949C218.922 166.304 229.613 172.267 247.478 175.943C258.146 178.137 266.445 178.479 266.527 178.482C266.536 178.482 266.542 178.482 266.55 178.482H266.552ZM288.986 157.309L266.345 177.359C264.947 177.287 257.288 176.825 247.69 174.848C238.121 172.877 224.641 168.961 214.33 161.464L237.388 141.008C238.914 141.968 245.034 145.693 253.567 149.304C262.305 153.002 275.373 157.307 288.829 157.307C288.881 157.307 288.934 157.307 288.986 157.307V157.309Z" fill="#9DE9DB"/>
<path d="M289.76 148.997C264.066 158.699 236.224 139.501 236.224 139.501L214.109 156.73C214.109 156.73 244.412 176.451 268.779 169.845C276.535 167.742 289.76 148.997 289.76 148.997Z" fill="#E3F6F2"/>
<path d="M258.024 171.753C261.913 171.753 265.559 171.296 268.931 170.382C276.793 168.251 289.683 150.085 290.227 149.315C290.368 149.114 290.362 148.846 290.208 148.654C290.054 148.461 289.793 148.39 289.56 148.477C283.776 150.661 277.398 151.527 270.598 151.05C265.144 150.669 259.407 149.427 253.551 147.363C243.566 143.843 236.622 139.093 236.553 139.045C236.347 138.903 236.073 138.911 235.877 139.064L213.761 156.293C213.619 156.404 213.54 156.574 213.548 156.752C213.556 156.93 213.65 157.094 213.802 157.193C213.878 157.242 221.549 162.202 232.104 166.282C238.311 168.68 244.29 170.312 249.878 171.132C252.694 171.545 255.415 171.752 258.027 171.752L258.024 171.753ZM288.247 150.122C284.982 154.531 274.86 167.621 268.63 169.309C263.152 170.793 256.903 171.038 250.056 170.034C244.556 169.228 238.662 167.62 232.537 165.255C223.857 161.903 217.151 157.951 215.085 156.681L236.252 140.189C237.799 141.201 244.315 145.289 253.166 148.409C259.121 150.508 264.958 151.77 270.515 152.159C276.816 152.601 282.771 151.915 288.246 150.12L288.247 150.122Z" fill="#9DE9DB"/>
<path d="M233.272 205.347C234.628 206.736 236.065 207.988 237.581 208.942C238.021 209.218 243.827 213.956 237.728 221.669C235.995 223.86 230.511 226.953 227.7 226.694C223.738 226.328 226.819 223.441 227.449 220.763C228.038 218.268 226.09 215.583 224.22 213.389C221.936 210.707 220.46 209.249 218.064 206.804C221.268 204.069 224.307 201.139 227.157 198.033C228.986 200.36 231.02 203.043 233.272 205.347Z" fill="#B6EFE4"/>
<path d="M228.031 227.266C229.407 227.266 231.327 226.67 233.383 225.592C235.444 224.513 237.28 223.142 238.174 222.012C240.487 219.086 241.42 216.232 240.946 213.525C240.435 210.609 238.402 208.799 237.885 208.475C236.53 207.623 235.155 206.474 233.679 204.962C231.729 202.966 229.906 200.636 228.298 198.578C228.063 198.278 227.832 197.982 227.604 197.693C227.502 197.563 227.346 197.483 227.178 197.477C227.011 197.471 226.848 197.537 226.736 197.66C223.911 200.738 220.869 203.673 217.692 206.385C217.576 206.485 217.505 206.628 217.498 206.78C217.492 206.933 217.549 207.081 217.655 207.19L218.428 207.979C220.368 209.954 221.769 211.381 223.783 213.746C225.618 215.9 227.422 218.401 226.895 220.637C226.727 221.348 226.361 222.096 226.009 222.821C225.398 224.075 224.821 225.259 225.354 226.187C225.702 226.791 226.45 227.139 227.643 227.248C227.766 227.26 227.894 227.266 228.028 227.266H228.031ZM232.864 205.733C234.403 207.308 235.846 208.513 237.277 209.412C237.296 209.425 239.369 210.965 239.839 213.757C240.238 216.13 239.378 218.678 237.282 221.33C235.588 223.472 230.276 226.376 227.753 226.142C226.99 226.072 226.489 225.894 226.343 225.64C226.099 225.217 226.575 224.245 227.034 223.304C227.414 222.525 227.806 221.721 228.002 220.89C228.64 218.179 226.668 215.397 224.656 213.034C222.616 210.639 221.202 209.199 219.247 207.208L218.889 206.841C221.767 204.355 224.535 201.688 227.126 198.901C227.218 199.02 227.312 199.139 227.405 199.259C229.032 201.337 230.876 203.694 232.867 205.735L232.864 205.733Z" fill="#85E4D2"/>
<path d="M224.811 119.387C216.317 122.053 206.796 124.713 199.403 129.61C191.266 134.999 183.454 144.768 184.356 154.941C185.401 166.739 192.282 179.172 198.483 189.044C205.534 200.272 211.958 207.21 220.487 217.397C228.065 215.488 236.272 201.331 236.272 201.331C223.088 188.003 217.953 178.325 212.468 161.606L250.199 134.328L224.813 119.386L224.811 119.387Z" fill="#E3F6F2"/>
<path d="M220.487 217.954C220.534 217.954 220.581 217.948 220.628 217.937C228.35 215.992 236.422 202.194 236.763 201.607C236.888 201.393 236.852 201.121 236.677 200.945C223.053 187.171 218.189 177.23 213.007 161.437C212.911 161.145 212.593 160.985 212.294 161.078C211.996 161.172 211.833 161.487 211.928 161.779C217.127 177.624 222.012 187.643 235.565 201.417C234.256 203.578 227.196 214.801 220.689 216.766C219.259 215.06 217.89 213.446 216.563 211.884C210.22 204.411 204.742 197.957 198.963 188.755C192.976 179.223 185.969 166.758 184.917 154.895C184.514 150.348 185.912 145.467 188.964 140.784C191.615 136.713 195.433 132.91 199.716 130.074C206.302 125.713 214.482 123.176 222.395 120.724C223.264 120.454 224.128 120.187 224.981 119.92C225.278 119.826 225.443 119.513 225.348 119.221C225.253 118.928 224.936 118.766 224.637 118.86C223.785 119.127 222.923 119.394 222.054 119.664C214.065 122.14 205.804 124.7 199.083 129.152C194.673 132.071 190.74 135.99 188.009 140.184C184.821 145.078 183.362 150.198 183.787 154.993C184.858 167.09 191.945 179.704 197.997 189.342C203.817 198.61 209.32 205.093 215.69 212.599C217.088 214.245 218.533 215.949 220.046 217.756C220.154 217.886 220.316 217.959 220.483 217.959L220.487 217.954Z" fill="#85E4D2"/>
<path d="M282.096 145.864C281.072 148.884 279.71 151.772 277.751 154.292C271.86 161.873 261.142 163.119 251.925 163.764C247.357 164.084 242.75 163.988 238.223 164.665C233.047 165.439 224.933 167.752 222.464 172.823C218.895 180.154 219.81 190.117 221.677 197.742C223.985 207.163 228.524 215.888 233.023 224.512C227.112 229.065 219.821 233.714 212.316 233.464C206.746 224.518 198.047 210.665 193.902 199.522C189.758 188.38 188.24 175.65 193.181 164.826C196.101 158.434 201.087 153.123 206.722 148.832C212.355 144.541 218.656 141.187 224.924 137.853L249.082 126.661L282.094 145.864H282.096Z" fill="#E3F6F2"/>
<path d="M212.898 234.03C220.578 234.03 227.853 229.198 233.372 224.949C233.585 224.785 233.65 224.494 233.527 224.257C229.106 215.784 224.533 207.02 222.228 197.612C218.965 184.294 221.296 176.515 222.975 173.063C224.016 170.924 226.23 169.099 229.559 167.64C232.922 166.166 236.483 165.487 238.308 165.215C241.221 164.78 244.234 164.665 247.147 164.554C248.726 164.494 250.36 164.432 251.965 164.319C261.536 163.65 272.245 162.293 278.2 154.631C280.015 152.295 281.465 149.485 282.632 146.041C282.731 145.75 282.571 145.434 282.275 145.337C281.979 145.24 281.657 145.397 281.559 145.688C280.432 149.014 279.039 151.718 277.301 153.954C271.632 161.248 261.21 162.556 251.885 163.208C250.296 163.319 248.673 163.381 247.102 163.44C244.157 163.551 241.113 163.667 238.137 164.112C235.085 164.568 224.899 166.528 221.953 172.58C220.209 176.164 217.781 184.216 221.127 197.87C223.428 207.254 227.921 215.947 232.307 224.353C226.98 228.42 220.067 232.914 212.898 232.914C212.813 232.914 212.725 232.914 212.64 232.913L212.389 232.51C206.842 223.606 198.459 210.148 194.434 199.327C192.216 193.367 190.96 187.546 190.7 182.025C190.404 175.765 191.413 170.054 193.698 165.05C196.299 159.354 200.798 154.044 207.069 149.267C212.682 144.993 219.042 141.61 225.194 138.338C225.469 138.191 225.571 137.855 225.422 137.584C225.274 137.314 224.931 137.213 224.656 137.36C218.464 140.653 212.061 144.059 206.376 148.388C199.957 153.277 195.344 158.729 192.666 164.594C190.307 169.759 189.266 175.641 189.57 182.076C189.835 187.709 191.115 193.642 193.372 199.708C197.436 210.633 205.854 224.148 211.424 233.091L211.835 233.75C211.933 233.909 212.108 234.009 212.299 234.015C212.499 234.022 212.699 234.025 212.898 234.025V234.03Z" fill="#85E4D2"/>
<path d="M229.122 17.2113C229.122 17.2113 207.027 30.2972 210.213 55.703C211.675 67.3633 221.612 78.0765 232.811 82.1736C235.504 95.0815 232.407 108.53 224.811 119.388C238.648 134.152 261.73 144.415 282.095 145.865C282.095 145.865 283.25 142.637 283.702 140.013C285.818 127.718 286.235 114.517 284.25 102.201C289.824 116.576 296.49 130.357 305.534 142.91C310.362 141.815 313.705 139.258 316.304 135.059C312.775 126.296 307.872 114.033 303.251 102.596C298.63 91.1592 292.966 79.7802 283.878 71.3158C274.791 62.8515 261.934 56.5469 249.725 59.2582C244.278 60.4676 238.276 59.87 233.6 56.8711C229.827 54.4507 227.187 50.6953 226.89 46.1881C226.633 42.2992 228.72 38.4707 231.085 35.4797C233.325 32.6493 236.55 30.081 239.821 26.4226C239.821 26.4226 240.356 21.1351 237.014 19.3091C233.529 17.4052 232.34 20.0703 229.122 17.2097V17.2113Z" fill="#E3F6F2"/>
<path d="M282.096 146.421C282.333 146.421 282.548 146.273 282.629 146.049C282.678 145.915 283.806 142.745 284.26 140.105C286.224 128.694 286.622 117.252 285.437 106.713C291.35 121.226 297.642 132.917 305.071 143.229C305.204 143.414 305.437 143.501 305.66 143.45C310.509 142.351 314.044 139.776 316.786 135.347C316.878 135.197 316.894 135.015 316.828 134.853C315.514 131.588 314.009 127.839 312.399 123.826C309.715 117.142 306.675 109.566 303.775 102.389C299.511 91.8378 293.858 79.8469 284.267 70.9121C279.369 66.3494 273.805 62.7767 268.18 60.5788C261.692 58.0439 255.441 57.4178 249.599 58.7146C243.893 59.9828 238.173 59.1405 233.907 56.4038C230.073 53.9452 227.721 50.2073 227.453 46.1499C227.192 42.2007 229.527 38.3531 231.529 35.8198C232.712 34.3243 234.216 32.8654 235.808 31.319C237.24 29.9284 238.721 28.4918 240.245 26.7881C240.324 26.6991 240.373 26.5878 240.384 26.4718C240.408 26.2255 240.885 20.7855 237.289 18.8211C235.556 17.8755 234.322 17.963 233.236 18.0408C232.03 18.1266 231.077 18.195 229.502 16.7949C229.318 16.6312 229.045 16.6041 228.831 16.7313C228.602 16.8664 223.159 20.1307 218.029 26.5847C215.013 30.3782 212.745 34.4848 211.288 38.7917C209.467 44.1793 208.916 49.8895 209.653 55.7681C210.369 61.4751 213.058 67.1344 217.432 72.1342C221.512 76.7971 226.788 80.4985 232.318 82.582C234.812 94.9686 231.914 108.25 224.346 119.068C224.196 119.283 224.217 119.569 224.396 119.761C231.157 126.975 240.277 133.324 250.768 138.12C261.055 142.823 271.873 145.691 282.057 146.416C282.07 146.416 282.084 146.416 282.097 146.416L282.096 146.421ZM284.25 101.643C284.202 101.643 284.153 101.65 284.105 101.663C283.825 101.736 283.647 102.006 283.693 102.287C285.569 113.93 285.38 126.943 283.146 139.919C282.8 141.931 282.021 144.337 281.703 145.276C271.783 144.512 261.262 141.693 251.246 137.114C241.045 132.451 232.166 126.309 225.536 119.333C233.147 108.247 236 94.6889 233.367 82.0623C233.328 81.8748 233.193 81.719 233.01 81.6523C227.548 79.6546 222.321 76.0168 218.291 71.4111C214.062 66.5782 211.465 61.1239 210.776 55.6346C210.06 49.9228 210.593 44.3748 212.362 39.1461C213.778 34.96 215.984 30.9662 218.92 27.2728C223.2 21.8884 227.799 18.7258 229.072 17.9026C230.833 19.3313 232.095 19.2407 233.319 19.1533C234.339 19.0802 235.302 19.0119 236.741 19.797C239.385 21.2416 239.319 25.3085 239.272 26.1969C237.819 27.81 236.395 29.191 235.018 30.5292C233.398 32.1009 231.869 33.5853 230.64 35.138C228.516 37.8239 226.043 41.9257 226.328 46.2231C226.619 50.6332 229.158 54.6842 233.293 57.3367C237.814 60.2355 243.85 61.135 249.853 59.8016C260.39 57.4607 272.966 61.9169 283.492 71.721C292.926 80.508 298.51 92.3623 302.728 102.802C305.627 109.978 308.668 117.554 311.35 124.238C312.918 128.144 314.385 131.803 315.675 135.005C313.196 138.905 310.035 141.227 305.776 142.281C297.78 131.116 291.102 118.305 284.781 102.003C284.695 101.783 284.482 101.645 284.252 101.645L284.25 101.643Z" fill="#85E4D2"/>
<path d="M239.821 26.4241C245.277 21.5021 248.277 11.0623 247.28 6.08479C246.602 2.69968 245.198 5.70337 244.664 7.15436C243.862 9.33958 243.394 11.5582 242.787 13.7911C243.376 11.6186 243.874 9.42381 244.279 7.21157C244.375 6.69189 244.456 6.12135 244.181 5.66841C243.728 4.92146 242.527 4.96755 241.858 5.5365C240.348 6.81903 239.876 9.62088 239.113 11.342C239.838 9.70829 239.797 6.94299 239.695 5.18845C239.652 4.43674 238.488 -0.625032 237.617 1.69846C235.94 6.16902 235.299 13.6751 229.119 17.2127C229.119 17.2127 229.163 20.6153 232.707 23.5539C236.773 26.9231 239.818 26.4256 239.818 26.4256L239.821 26.4241Z" fill="#E3F6F2"/>
<path d="M239.367 27.0074C239.694 27.0074 239.884 26.9787 239.915 26.974C240.023 26.9565 240.124 26.9088 240.204 26.8357C242.786 24.5075 245.025 20.8204 246.509 16.4531C247.858 12.4816 248.354 8.56566 247.837 5.97835C247.672 5.15194 247.352 4.04741 246.489 3.98225C245.896 3.93616 245.314 4.45903 244.751 5.53654C244.727 5.4841 244.7 5.43324 244.669 5.38397C244.407 4.95328 243.963 4.66722 243.415 4.57981C242.742 4.47333 242.005 4.67834 241.491 5.1138C241.014 5.51906 240.634 6.04669 240.318 6.63472C240.311 6.16589 240.293 5.67322 240.263 5.15671C240.259 5.1138 239.655 0.752889 238.242 0.546286C237.899 0.49543 237.421 0.62257 237.088 1.5062C236.71 2.51537 236.387 3.66599 236.042 4.88336C234.828 9.19818 233.451 14.0899 228.836 16.7312C228.66 16.833 228.553 17.0189 228.555 17.2191C228.557 17.3685 228.645 20.911 232.344 23.9782C235.599 26.6768 238.26 27.0074 239.364 27.0074H239.367ZM239.577 25.8885C238.934 25.9187 236.357 25.8488 233.074 23.128C230.369 20.8855 229.824 18.3698 229.714 17.5116C234.481 14.6032 235.948 9.38889 237.133 5.18055C237.47 3.98543 237.788 2.85706 238.15 1.89079C238.155 1.87808 238.16 1.86537 238.165 1.85265C238.586 2.59801 239.099 4.64497 239.133 5.22028C239.291 7.93154 239.105 9.97056 238.598 11.1196C238.473 11.4009 238.604 11.7283 238.89 11.8522C239.176 11.9746 239.511 11.8459 239.636 11.5646V11.5598C239.873 11.0274 240.075 10.4155 240.29 9.77031C240.757 8.35905 241.288 6.76027 242.231 5.95769C242.492 5.73679 242.894 5.62554 243.235 5.67957C243.384 5.70341 243.586 5.77016 243.698 5.95451C243.867 6.23581 243.804 6.6808 243.725 7.11467C243.402 8.88351 243.014 10.6587 242.569 12.4085C242.464 12.8201 242.356 13.2365 242.244 13.6497C242.164 13.9469 242.343 14.252 242.645 14.3299C242.949 14.4093 243.258 14.2329 243.337 13.9357C243.45 13.5194 243.56 13.1014 243.667 12.6818C243.722 12.4689 243.775 12.2591 243.829 12.0493C244.242 10.4235 244.633 8.88828 245.199 7.34511C245.665 6.07689 246.137 5.34106 246.382 5.13764C246.457 5.25047 246.596 5.53336 246.727 6.19449C247.202 8.56566 246.707 12.3608 245.435 16.1019C244.039 20.2133 241.963 23.6795 239.579 25.8901L239.577 25.8885Z" fill="#85E4D2"/>
<path d="M309.772 138.242C306.478 141.297 305.986 144.526 305.986 144.526C309.745 149.99 312.302 157.623 313.289 164.009C313.348 164.387 313.425 164.8 313.726 165.045C314.125 165.371 314.76 165.233 315.137 164.881C316.037 164.042 316.411 162.199 316.456 160.754C316.503 161.234 316.601 161.706 316.936 161.922C318.124 162.691 319.333 161.314 319.64 160.312C320.133 158.706 320.187 156.972 319.973 155.252L319.991 155.262C320.104 156.457 320.688 158.461 322.341 157.676C323.009 157.359 323.389 156.565 323.544 155.888C324.308 152.552 319.878 141.502 316.312 135.433C316.312 135.433 313.503 134.786 309.777 138.241L309.772 138.242Z" fill="#E3F6F2"/>
<path d="M317.652 162.704C317.865 162.704 318.082 162.666 318.298 162.588C319.247 162.25 319.939 161.255 320.178 160.474C320.789 158.485 321.108 155.036 319.16 149.909C319.05 149.621 318.725 149.475 318.433 149.583C318.14 149.691 317.991 150.011 318.101 150.298C319.115 152.968 320.112 156.845 319.095 160.153C318.935 160.676 318.437 161.356 317.914 161.544C317.676 161.628 317.464 161.601 317.245 161.46C317.13 161.341 317.044 160.84 317.007 159.985C317 159.826 316.994 159.7 316.983 159.605C316.944 159.3 316.661 159.084 316.352 159.122C316.042 159.16 315.822 159.437 315.861 159.742C315.867 159.793 315.872 159.915 315.879 160.034C315.922 161.01 316.016 161.995 316.625 162.39C316.95 162.601 317.299 162.706 317.655 162.706L317.652 162.704Z" fill="#85E4D2"/>
<path d="M314.269 165.786C314.733 165.786 315.2 165.589 315.525 165.287C316.955 163.952 317.125 160.886 316.983 159.611C316.695 157.032 316.291 154.93 315.588 152.357C315.507 152.059 315.196 151.885 314.894 151.964C314.592 152.043 314.414 152.349 314.495 152.646C315.182 155.162 315.578 157.215 315.858 159.734C316.011 161.107 315.702 163.588 314.745 164.481C314.547 164.667 314.227 164.734 314.086 164.619C313.947 164.506 313.892 164.216 313.848 163.926C312.883 157.676 309.956 148.514 306.196 142.883C306.718 141.974 308.461 139.134 310.475 137.907C313.714 135.933 315.423 135.882 315.946 135.933C319.643 142.309 323.665 152.814 322.988 155.769C322.865 156.303 322.566 156.953 322.09 157.178C321.698 157.364 321.497 157.299 321.379 157.236C320.982 157.015 320.642 156.183 320.55 155.214C320.521 154.909 320.243 154.685 319.934 154.712C319.624 154.74 319.394 155.011 319.423 155.317C319.486 155.986 319.75 157.609 320.823 158.205C321.182 158.405 321.78 158.563 322.582 158.181C323.607 157.695 323.978 156.504 324.09 156.015C324.926 152.366 320.254 141.046 316.797 135.159C316.73 135.048 316.629 134.962 316.504 134.916C316.296 134.84 314.336 134.245 309.877 136.963C307.208 138.589 305.118 142.49 305.031 142.656C304.935 142.837 304.947 143.055 305.063 143.225C308.821 148.69 311.765 157.862 312.727 164.096C312.783 164.467 312.88 165.085 313.36 165.477C313.627 165.695 313.945 165.789 314.265 165.789L314.269 165.786Z" fill="#85E4D2"/>
<path d="M261.512 36.8543C259.791 40.3983 258.803 44.5081 257.626 48.0522C256.045 52.8199 254.002 57.5829 250.42 59.1229C250.42 59.1229 249.759 64.4485 255.47 69.2401H255.472C257.457 71.1456 260.083 72.4679 262.796 73.3563C269.07 75.4112 276.959 72.827 280.411 67.8352C280.411 67.8352 278.956 66.1681 279.071 63.2136C279.264 58.2743 281.963 53.454 283.158 48.6688C284.271 44.2062 284.59 40.117 282.892 35.8245C281.732 32.8859 279.508 30.4623 276.7 29.3308C270.745 26.9294 264.433 30.8342 261.509 36.8543H261.512Z" fill="#E3F6F2"/>
<path d="M267.399 74.6197C272.672 74.6197 278.101 72.1691 280.88 68.1483C281.024 67.9401 281.008 67.6636 280.841 67.4728C280.83 67.4601 279.534 65.9138 279.637 63.2359C279.755 60.2052 280.874 57.1395 281.955 54.174C282.597 52.4147 283.259 50.5966 283.707 48.8023C284.65 45.0294 285.353 40.5128 283.421 35.6242C282.172 32.4616 279.8 29.9808 276.917 28.8174C273.972 27.6303 270.698 27.8528 267.701 29.4468C264.905 30.9327 262.524 33.4787 261.001 36.6159C259.749 39.1937 258.89 42.0273 258.061 44.7672C257.731 45.8558 257.421 46.8825 257.09 47.8821C255.603 52.3638 253.622 57.1427 250.196 58.6159C250.013 58.6954 249.885 58.8623 249.861 59.0577C249.832 59.2866 249.231 64.7298 255.093 69.6549C256.96 71.438 259.49 72.8604 262.619 73.8855C264.142 74.3845 265.763 74.6197 267.401 74.6197H267.399ZM279.718 67.84C276.236 72.5092 268.825 74.7453 262.977 72.8302C260.001 71.856 257.61 70.5147 255.869 68.846C255.86 68.8364 255.85 68.8285 255.839 68.8189C253.02 66.4541 251.851 63.9654 251.366 62.2935C250.989 60.9919 250.955 59.9684 250.967 59.4884C254.602 57.7037 256.644 52.8104 258.165 48.227C258.501 47.2146 258.814 46.18 259.146 45.085C259.964 42.3865 260.809 39.5958 262.023 37.0959C263.444 34.17 265.652 31.8021 268.24 30.4258C270.145 29.4134 273.123 28.4901 276.488 29.8473C279.087 30.8946 281.229 33.1482 282.367 36.0279C283.812 39.6863 283.885 43.429 282.61 48.5385C282.176 50.2755 281.522 52.0666 280.891 53.7989C279.781 56.8439 278.633 59.9922 278.507 63.1946C278.415 65.5626 279.267 67.1661 279.716 67.84H279.718Z" fill="#85E4D2"/>
<path d="M282.927 51.5199C284.907 49.7288 286.756 46.4709 286.846 42.5502C286.909 39.8214 286.271 36.9433 284.528 34.3528C281.215 29.4246 274.72 27.1662 269.004 28.9541C265.783 29.9617 263.049 32.1358 261.22 35.0966C259.771 37.4407 259.501 39.119 259.476 42.0702C261.105 39.7436 262.683 39.0999 265.081 37.6998C266.791 36.7017 272.612 34.6961 273.217 32.9432C271.972 34.7517 270.727 36.5619 269.484 38.3705C271.309 38.6422 273.154 38.914 274.995 38.7757C276.836 38.639 278.7 38.0526 280.048 36.8114C279.8 43.2574 282.927 51.5199 282.927 51.5199Z" fill="#85E4D2"/>
<path d="M282.926 52.0762C283.067 52.0762 283.204 52.0254 283.31 51.93C285.228 50.1945 287.313 46.8222 287.412 42.563C287.485 39.4448 286.651 36.5 285 34.0461C281.562 28.9335 274.762 26.5687 268.833 28.425C265.513 29.4643 262.637 31.7306 260.736 34.8074C259.206 37.2835 258.937 39.0475 258.91 42.0655C258.908 42.3103 259.068 42.5264 259.306 42.6011C259.543 42.6742 259.8 42.5884 259.943 42.3865C261.255 40.5128 262.547 39.7818 264.336 38.771C264.664 38.5851 265.008 38.3912 265.372 38.1782C265.833 37.9096 266.635 37.552 267.564 37.1372C268.704 36.6287 269.753 36.1503 270.653 35.6815L269.017 38.059C268.909 38.2163 268.889 38.4198 268.967 38.5946C269.045 38.7694 269.21 38.8934 269.4 38.922C271.232 39.1937 273.124 39.475 275.038 39.332C276.296 39.2382 277.985 38.914 279.471 37.9605C279.514 40.454 279.975 43.3957 280.846 46.722C281.596 49.589 282.364 51.6296 282.396 51.7139C282.463 51.8871 282.611 52.0174 282.794 52.0603C282.838 52.0699 282.881 52.0762 282.926 52.0762ZM273.005 28.9065C277.338 28.9065 281.617 31.0313 284.056 34.6596C285.579 36.9227 286.347 39.6483 286.281 42.5375C286.2 45.9878 284.711 48.7944 283.161 50.4933C282.395 48.2509 280.416 41.9161 280.612 36.8321C280.62 36.6064 280.49 36.3982 280.282 36.3045C280.073 36.2107 279.828 36.2504 279.66 36.4046C278.231 37.7205 276.31 38.1194 274.951 38.2195C273.461 38.3308 271.943 38.1607 270.454 37.9478L273.184 33.9794C273.457 33.6981 273.65 33.412 273.752 33.1196C273.842 32.8558 273.721 32.5666 273.467 32.4426C273.213 32.3186 272.906 32.3981 272.746 32.6285L272.284 33.2992C271.28 34.2528 268.726 35.3922 267.092 36.1201C266.132 36.5476 265.304 36.9179 264.79 37.2183C264.433 37.4281 264.092 37.6188 263.769 37.8031C262.379 38.5898 261.208 39.251 260.091 40.4191C260.214 38.5215 260.594 37.1706 261.7 35.3827C263.458 32.5348 266.112 30.4401 269.172 29.4818C270.422 29.0909 271.715 28.9033 273.002 28.9033L273.005 28.9065Z" fill="#85E4D2"/>
<path d="M259.475 42.0702C259.499 41.9526 259.521 41.8255 259.529 41.6793C259.579 40.7623 258.758 39.8294 257.733 39.9581C256.671 40.0932 255.711 41.0467 255.062 42.0813C254.361 43.2018 253.9 44.5145 253.942 45.7573C253.984 47.0001 254.579 48.1475 255.581 48.5798C256.926 49.1599 258.963 48.2095 259.605 47.0573C260.014 46.3231 260.854 44.114 260.723 43.2844C260.629 42.6916 259.419 42.3467 259.474 42.0702H259.475Z" fill="#E3F6F2"/>
<path d="M256.453 49.3093C257.01 49.3093 257.587 49.1551 258.116 48.8531C258.386 48.699 258.476 48.3573 258.32 48.0919C258.163 47.8265 257.815 47.7375 257.545 47.8916C256.975 48.219 256.31 48.2874 255.809 48.0712C255.054 47.7454 254.544 46.83 254.508 45.7382C254.473 44.6909 254.841 43.4942 255.544 42.3722C256.217 41.2994 257.062 40.6033 257.806 40.5096C258.132 40.4698 258.497 40.6288 258.733 40.9196C258.842 41.0531 259.078 41.4139 258.908 41.8731C258.801 42.1624 258.953 42.4802 259.247 42.5851C259.54 42.69 259.865 42.5406 259.972 42.253C260.225 41.5664 260.093 40.8083 259.616 40.2251C259.131 39.6291 258.381 39.316 257.66 39.4066C256.564 39.5449 255.442 40.4142 254.581 41.7889C253.761 43.0953 253.335 44.5113 253.377 45.7748C253.428 47.2909 254.204 48.5925 255.353 49.0884C255.695 49.2362 256.07 49.3093 256.451 49.3093H256.453Z" fill="#85E4D2"/>
<path d="M257.381 46.4104C257.392 46.4104 257.403 46.4104 257.416 46.4104C257.728 46.4025 257.975 46.1482 257.967 45.8415C257.959 45.5348 257.705 45.2948 257.389 45.2996H257.382C257.22 45.2996 257.098 45.1708 257.052 45.1152C256.92 44.9515 256.87 44.7322 256.918 44.5447C256.97 44.3492 257.132 44.1712 257.338 44.0822C257.486 44.0186 257.634 44.0123 257.735 44.0647C258.009 44.2093 258.354 44.1076 258.501 43.8374C258.648 43.5673 258.544 43.2288 258.27 43.0841C257.859 42.868 257.355 42.8601 256.886 43.0635C256.359 43.2907 255.963 43.7405 255.824 44.2665C255.685 44.7942 255.814 45.3695 256.167 45.8081C256.479 46.1943 256.92 46.4136 257.382 46.4136L257.381 46.4104Z" fill="#85E4D2"/>
<path d="M282.136 50.5234C282.209 50.4169 282.288 50.3041 282.396 50.1865C283.065 49.4554 284.455 49.3871 285.189 50.2787C285.951 51.2036 285.994 52.6673 285.721 53.9514C285.425 55.3404 284.784 56.6897 283.788 57.5956C282.792 58.5015 281.42 58.9067 280.269 58.457C278.725 57.8531 277.804 55.5566 278.171 54.1882C278.405 53.3157 279.43 50.997 280.18 50.4726C280.717 50.0975 281.968 50.7745 282.136 50.5234Z" fill="#E3F6F2"/>
<path d="M281.263 59.1944C282.265 59.1944 283.321 58.778 284.171 58.0025C285.183 57.0823 285.93 55.6837 286.274 54.0643C286.634 52.3717 286.398 50.8635 285.629 49.9275C285.117 49.3045 284.234 48.9723 283.385 49.0804C282.597 49.1821 281.965 49.6319 281.654 50.3168C281.527 50.5981 281.654 50.9255 281.94 51.0511C282.225 51.1766 282.559 51.0511 282.687 50.7698C282.888 50.328 283.303 50.2119 283.532 50.1817C284 50.1214 284.478 50.2962 284.75 50.6251C285.298 51.2895 285.453 52.4893 285.167 53.8338C284.869 55.2292 284.244 56.418 283.403 57.184C282.517 57.9897 281.37 58.2853 280.477 57.9373C279.871 57.7005 279.359 57.1093 279.141 56.3941C279.05 56.1001 278.735 55.9333 278.436 56.0223C278.137 56.1113 277.967 56.4212 278.058 56.7152C278.379 57.7641 279.128 58.6064 280.06 58.9719C280.44 59.1213 280.849 59.1928 281.266 59.1928L281.263 59.1944Z" fill="#85E4D2"/>
<path d="M281.719 55.8665C281.801 55.8665 281.885 55.8617 281.969 55.8506C282.553 55.7759 283.069 55.4469 283.348 54.9685C283.626 54.4917 283.663 53.8799 283.445 53.33C283.238 52.8071 282.836 52.4209 282.343 52.2684C282.045 52.1762 281.727 52.3383 281.633 52.6323C281.539 52.9247 281.706 53.2378 282.003 53.33C282.165 53.3793 282.309 53.5318 282.39 53.7353C282.483 53.9705 282.474 54.2311 282.365 54.4155C282.262 54.5935 282.058 54.719 281.822 54.7476C281.614 54.7746 281.417 54.7174 281.295 54.5982C281.076 54.3789 280.718 54.3773 280.495 54.5935C280.272 54.8096 280.271 55.1608 280.49 55.3801C280.807 55.6964 281.245 55.868 281.717 55.868L281.719 55.8665Z" fill="#85E4D2"/>
<path d="M273.199 48.4336C273.077 47.9314 273.381 47.3768 274.033 47.3736C274.794 47.3688 275.331 47.9394 275.08 48.6037C274.909 49.0598 274.223 49.33 273.74 49.09C273.438 48.9406 273.26 48.6943 273.199 48.4336Z" fill="#85E4D2"/>
<path d="M262.943 43.9281C262.821 43.4259 263.125 42.8713 263.777 42.8681C264.538 42.8633 265.075 43.4339 264.824 44.0982C264.653 44.5543 263.967 44.8245 263.484 44.5845C263.182 44.4351 263.004 44.1888 262.943 43.9281Z" fill="#85E4D2"/>
<path d="M266.225 55.1927C266.566 55.1927 266.914 55.1387 267.25 55.0274C268.047 54.7668 268.7 54.2217 269.044 53.5335C269.182 53.257 269.065 52.9248 268.786 52.7897C268.505 52.6547 268.167 52.7691 268.029 53.044C267.819 53.4668 267.405 53.8053 266.895 53.9722C266.384 54.139 265.846 54.112 265.42 53.899C264.994 53.6845 264.657 53.2729 264.496 52.7675C264.334 52.2621 264.371 51.7345 264.596 51.3197C264.743 51.0479 264.638 50.711 264.363 50.568C264.087 50.4234 263.744 50.5267 263.599 50.7968C263.232 51.4739 263.167 52.313 263.418 53.1012C263.67 53.8895 264.211 54.5411 264.906 54.8892C265.307 55.091 265.762 55.1927 266.229 55.1927H266.225Z" fill="#85E4D2"/>
<path d="M52.6726 94.1445C44.2789 94.1445 37.9085 98.7861 39.4533 105.782C39.4806 105.944 39.631 106.065 39.795 106.065H46.6439C46.849 106.065 46.9994 105.863 46.972 105.661C46.4389 102.311 48.8175 100.522 52.5906 100.522C57.8264 100.522 59.6035 104.074 59.6035 108.971C57.3069 108.446 54.6958 108.123 52.1395 108.123C42.9119 108.123 37.1566 112.052 37.1566 118.55C37.1566 124.16 41.4765 128.156 48.4074 128.156C53.7799 128.156 57.7717 125.775 60.1914 121.644V126.918C60.1914 127.107 60.3417 127.255 60.5331 127.255H66.7258C66.9036 127.255 67.0676 127.107 67.0676 126.918V108.971C67.0676 100.01 62.2283 94.1445 52.6726 94.1445ZM49.9248 122.29C46.7123 122.29 44.7437 120.945 44.7437 118.362C44.7437 115.402 47.3685 113.478 52.7273 113.478C55.0786 113.478 57.7033 113.855 59.8633 114.554C58.6193 119.263 54.6958 122.29 49.9248 122.29Z" fill="#9DE9DB"/>
<path d="M101.504 126.715L89.5966 110.382L100.205 95.5689C100.369 95.3537 100.205 95.0442 99.9315 95.0442H92.1256C92.0163 95.0442 91.9069 95.0981 91.8522 95.1922L84.9487 105.162L77.9767 95.1922C77.9084 95.0981 77.8127 95.0442 77.6896 95.0442H70.0342C69.7608 95.0442 69.5967 95.3537 69.7608 95.5689L80.4921 110.436L68.5304 126.715C68.3664 126.943 68.5304 127.253 68.8038 127.253H76.514C76.637 127.253 76.7327 127.199 76.8011 127.105L84.9487 115.656L93.0279 127.105C93.0963 127.199 93.1919 127.253 93.3013 127.253H101.23C101.504 127.253 101.668 126.943 101.504 126.715Z" fill="#9DE9DB"/>
<path d="M107.135 81C104.456 81 102.364 83.0719 102.364 85.7089C102.364 88.3458 104.456 90.4043 107.135 90.4043C109.815 90.4043 111.906 88.3458 111.906 85.7089C111.906 83.0719 109.815 81 107.135 81ZM110.471 95.0459H103.677C103.485 95.0459 103.335 95.1939 103.335 95.3822V126.918C103.335 127.107 103.485 127.255 103.677 127.255H110.471C110.648 127.255 110.812 127.107 110.812 126.918V95.3822C110.812 95.1939 110.648 95.0459 110.471 95.0459Z" fill="#9DE9DB"/>
<path d="M121.804 104.074C121.804 101.759 124.292 100.064 128.079 100.064C132.426 100.064 135.324 102.405 134.709 105.863C134.668 106.065 134.818 106.267 135.037 106.267H141.599C141.763 106.267 141.913 106.132 141.941 105.971C143.089 98.8534 136.801 94.1445 128.134 94.1445C120.232 94.1445 114.135 98.0731 114.135 104.518C114.135 116.559 135.201 111.931 135.201 118.362C135.201 120.689 132.535 122.223 128.53 122.223C123.581 122.223 120.601 119.868 120.847 116.088C120.861 115.886 120.711 115.725 120.519 115.725H114.026C113.834 115.725 113.67 115.873 113.67 116.048C113.342 123.649 119.371 128.156 128.475 128.156C136.978 128.156 142.939 124.349 142.939 117.85C142.939 105.621 121.804 110.572 121.804 104.074Z" fill="#9DE9DB"/>
<path d="M29.6786 82.8432C28.7353 81.9014 27.2042 81.9014 24.1421 81.9014H6.4798C3.43129 81.9014 1.9002 81.9014 0.956933 82.8432C-1.01853e-07 83.7715 0 85.2784 0 88.2786V120.877C0 123.878 -1.01853e-07 125.384 0.956933 126.313C1.9002 127.255 3.43129 127.255 6.4798 127.255H24.1421C27.2042 127.255 28.7353 127.255 29.6786 126.313C30.6219 125.384 30.6219 123.878 30.6219 120.877V88.2786C30.6219 85.2784 30.6219 83.7715 29.6786 82.8432ZM15.3109 109.28C12.6315 109.28 10.5399 107.222 10.5399 104.585C10.5399 101.934 12.6315 99.8759 15.3109 99.8759C17.9903 99.8759 20.0956 101.934 20.0956 104.585C20.0956 107.222 17.9903 109.28 15.3109 109.28Z" fill="#9DE9DB"/>
</svg>
