<svg width="18" height="14" viewBox="0 0 18 14" fill="none" xmlns="http://www.w3.org/2000/svg">
<path d="M12.4874 0.000170367C11.5568 0.000170367 10.2083 0.119841 9.375 0.491807V12.1004C9.46784 12.0773 9.56012 12.0501 9.64874 12.0104C10.2337 11.741 11.3212 11.5748 12.4874 11.5748C13.6238 11.5748 14.6962 11.7336 15.2888 11.9957C15.5213 12.0953 15.7912 12.0731 16.0051 11.9365C16.2226 11.7999 16.3501 11.5637 16.3501 11.3128V1.33239C16.3501 0.280421 13.9201 0 12.4875 0L12.4874 0.000170367ZM14.4459 8.56414H10.7757C10.5684 8.56414 10.4007 8.39887 10.4007 8.19504C10.4007 7.99121 10.5684 7.82594 10.7757 7.82594H14.4459C14.6532 7.82594 14.8209 7.99121 14.8209 8.19504C14.8209 8.39887 14.6532 8.56414 14.4459 8.56414ZM14.4459 6.21599H10.7757C10.5684 6.21599 10.4007 6.05073 10.4007 5.84689C10.4007 5.64306 10.5684 5.4778 10.7757 5.4778H14.4459C14.6532 5.4778 14.8209 5.64306 14.8209 5.84689C14.8209 6.05073 14.6532 6.21599 14.4459 6.21599ZM14.4459 3.86784H10.7757C10.5684 3.86784 10.4007 3.70258 10.4007 3.49875C10.4007 3.29491 10.5684 3.12965 10.7757 3.12965H14.4459C14.6532 3.12965 14.8209 3.29491 14.8209 3.49875C14.8209 3.70258 14.6532 3.86784 14.4459 3.86784Z" fill="#808080"/>
<path d="M5.51255 0.000244141C4.0801 0.000244141 1.65015 0.28085 1.65015 1.33264V11.313C1.65015 11.5641 1.77759 11.8002 1.99512 11.9368C2.2088 12.0734 2.47887 12.0956 2.71507 11.9921C3.30377 11.7337 4.37637 11.5751 5.51257 11.5751C6.67877 11.5751 7.76641 11.7412 8.34757 12.0069C8.43747 12.0474 8.53122 12.077 8.62497 12.0992V0.491074C7.79257 0.118374 6.44252 0.000313132 5.51257 0.000313132L5.51255 0.000244141ZM7.1063 8.56329H3.43505C3.22888 8.56329 3.06005 8.39712 3.06005 8.19419C3.06005 7.99126 3.22888 7.8251 3.43505 7.8251H7.1063C7.31247 7.8251 7.4813 7.99126 7.4813 8.19419C7.4813 8.3973 7.31247 8.56329 7.1063 8.56329ZM7.1063 6.21588H3.43505C3.22888 6.21588 3.06005 6.04971 3.06005 5.84678C3.06005 5.64385 3.22888 5.47769 3.43505 5.47769H7.1063C7.31247 5.47769 7.4813 5.64385 7.4813 5.84678C7.4813 6.04971 7.31247 6.21588 7.1063 6.21588ZM7.1063 3.86847H3.43505C3.22888 3.86847 3.06005 3.7023 3.06005 3.49937C3.06005 3.29644 3.22888 3.13028 3.43505 3.13028H7.1063C7.31247 3.13028 7.4813 3.29644 7.4813 3.49937C7.4813 3.7023 7.31247 3.86847 7.1063 3.86847Z" fill="#808080"/>
<path d="M18 3.49931V12.4536C18 12.9445 17.775 13.3911 17.3774 13.6863C17.1037 13.8931 16.7737 14.0001 16.4399 14.0001C16.2975 14.0001 16.1549 13.9817 16.0124 13.941C14.8273 13.6124 13.3011 13.38 12.3036 13.38C11.1224 13.38 10.0311 13.5497 9.45356 13.8192C9.05603 14.0111 8.5761 14.0111 8.17476 13.8192C7.6011 13.5497 6.50976 13.38 5.32856 13.38C4.39106 13.38 3.08222 13.5829 1.99476 13.8967C1.52601 14.0333 1.02722 13.941 0.629719 13.6494C0.228717 13.354 0 12.9038 0 12.4091V3.49909C0 3.29616 0.168825 3.13 0.375 3.13H0.899953V11.3129C0.899953 11.8222 1.15868 12.2873 1.58625 12.5568C1.82996 12.7118 2.11505 12.7966 2.4075 12.7966C2.61752 12.7966 2.8237 12.7523 3.0187 12.6674C3.50995 12.4533 4.48865 12.3131 5.5124 12.3131C6.70495 12.3131 7.63495 12.4939 8.03231 12.6748C8.18978 12.7487 8.33974 12.7893 8.441 12.815L8.62502 12.8594L9.00002 12.9554L9.37502 12.8594L9.55868 12.815C9.65627 12.7929 9.80623 12.7523 9.96737 12.6784C10.361 12.4977 11.2949 12.3131 12.4873 12.3131C13.5147 12.3131 14.4936 12.4533 14.9885 12.671C15.1798 12.7523 15.3822 12.7965 15.5885 12.7965C15.8848 12.7965 16.1697 12.7116 16.4061 12.5602C16.8411 12.2872 17.0999 11.822 17.0999 11.3127L17.1 3.12982H17.625C17.8312 3.12982 18 3.29581 18 3.49892L18 3.49931Z" fill="#808080"/>
</svg>
